<?xml version="1.0" encoding="UTF-8" standalone="no"?><svg xmlns="http://www.w3.org/2000/svg" xmlns:xlink="http://www.w3.org/1999/xlink" contentScriptType="application/ecmascript" contentStyleType="text/css" height="413px" preserveAspectRatio="none" style="width:785px;height:413px;" version="1.1" viewBox="0 0 785 413" width="785px" zoomAndPan="magnify"><defs><filter height="300%" id="ffvbv1edwyb8y" width="300%" x="-1" y="-1"><feGaussianBlur result="blurOut" stdDeviation="2.0"/><feColorMatrix in="blurOut" result="blurOut2" type="matrix" values="0 0 0 0 0 0 0 0 0 0 0 0 0 0 0 0 0 0 .4 0"/><feOffset dx="4.0" dy="4.0" in="blurOut2" result="blurOut3"/><feBlend in="SourceGraphic" in2="blurOut3" mode="normal"/></filter></defs><g><text fill="#000000" font-family="sans-serif" font-size="18" lengthAdjust="spacingAndGlyphs" textLength="49" x="372" y="18.6855">Model</text><!--class ComputationTask--><rect fill="#FEFECE" filter="url(#ffvbv1edwyb8y)" height="48" id="ComputationTask" style="stroke: #A80036; stroke-width: 1.5;" width="130" x="6" y="138.6406"/><ellipse cx="21" cy="154.6406" fill="#ADD1B2" rx="11" ry="11" style="stroke: #A80036; stroke-width: 1.0;"/><path d="M23,151.1406 Q23.2031,150.6406 23.4375,150.3906 Q23.6719,150.1406 23.9375,150.1406 Q24.4063,150.1406 24.7031,150.4219 Q25,150.7031 25,151.3594 L25,152.9219 Q25,153.5781 24.7188,153.8594 Q24.4375,154.1406 24,154.1406 Q23.6094,154.1406 23.3594,153.9688 Q23.1094,153.7969 23,153.3438 Q22.9531,153.0313 22.7813,152.8594 Q22.4688,152.5313 21.9063,152.3359 Q21.3438,152.1406 20.7813,152.1406 Q20.0781,152.1406 19.4922,152.4219 Q18.9063,152.7031 18.4531,153.3281 Q18,153.9531 18,154.8125 L18,155.7344 Q18,156.7656 18.8438,157.4531 Q19.6875,158.1406 21.1875,158.1406 Q22.0781,158.1406 22.7031,157.9375 Q23.0625,157.8281 23.4688,157.4688 Q23.7344,157.2656 23.875,157.2031 Q24.0156,157.1406 24.1875,157.1406 Q24.5156,157.1406 24.7578,157.3984 Q25,157.6563 25,158.0156 Q25,158.3594 24.6563,158.7656 Q24.1563,159.3594 23.3594,159.6875 Q22.3125,160.1406 21.0313,160.1406 Q19.5313,160.1406 18.3281,159.5469 Q17.3594,159.0781 16.6797,158.0625 Q16,157.0469 16,155.8438 L16,154.75 Q16,153.5 16.6016,152.4063 Q17.2031,151.3125 18.2578,150.7266 Q19.3125,150.1406 20.5,150.1406 Q21.2188,150.1406 21.8438,150.3906 Q22.4688,150.6406 23,151.1406 Z "/><text fill="#000000" font-family="sans-serif" font-size="12" lengthAdjust="spacingAndGlyphs" textLength="98" x="35" y="159.5508">ComputationTask</text><line style="stroke: #A80036; stroke-width: 1.5;" x1="7" x2="135" y1="170.6406" y2="170.6406"/><line style="stroke: #A80036; stroke-width: 1.5;" x1="7" x2="135" y1="178.6406" y2="178.6406"/><!--class ComputationApplication--><rect fill="#FEFECE" filter="url(#ffvbv1edwyb8y)" height="48" id="ComputationApplication" style="stroke: #A80036; stroke-width: 1.5;" width="163" x="92.5" y="354.6406"/><ellipse cx="107.5" cy="370.6406" fill="#ADD1B2" rx="11" ry="11" style="stroke: #A80036; stroke-width: 1.0;"/><path d="M109.5,367.1406 Q109.7031,366.6406 109.9375,366.3906 Q110.1719,366.1406 110.4375,366.1406 Q110.9063,366.1406 111.2031,366.4219 Q111.5,366.7031 111.5,367.3594 L111.5,368.9219 Q111.5,369.5781 111.2188,369.8594 Q110.9375,370.1406 110.5,370.1406 Q110.1094,370.1406 109.8594,369.9688 Q109.6094,369.7969 109.5,369.3438 Q109.4531,369.0313 109.2813,368.8594 Q108.9688,368.5313 108.4063,368.3359 Q107.8438,368.1406 107.2813,368.1406 Q106.5781,368.1406 105.9922,368.4219 Q105.4063,368.7031 104.9531,369.3281 Q104.5,369.9531 104.5,370.8125 L104.5,371.7344 Q104.5,372.7656 105.3438,373.4531 Q106.1875,374.1406 107.6875,374.1406 Q108.5781,374.1406 109.2031,373.9375 Q109.5625,373.8281 109.9688,373.4688 Q110.2344,373.2656 110.375,373.2031 Q110.5156,373.1406 110.6875,373.1406 Q111.0156,373.1406 111.2578,373.3984 Q111.5,373.6563 111.5,374.0156 Q111.5,374.3594 111.1563,374.7656 Q110.6563,375.3594 109.8594,375.6875 Q108.8125,376.1406 107.5313,376.1406 Q106.0313,376.1406 104.8281,375.5469 Q103.8594,375.0781 103.1797,374.0625 Q102.5,373.0469 102.5,371.8438 L102.5,370.75 Q102.5,369.5 103.1016,368.4063 Q103.7031,367.3125 104.7578,366.7266 Q105.8125,366.1406 107,366.1406 Q107.7188,366.1406 108.3438,366.3906 Q108.9688,366.6406 109.5,367.1406 Z "/><text fill="#000000" font-family="sans-serif" font-size="12" lengthAdjust="spacingAndGlyphs" textLength="131" x="121.5" y="375.5508">ComputationApplication</text><line style="stroke: #A80036; stroke-width: 1.5;" x1="93.5" x2="254.5" y1="386.6406" y2="386.6406"/><line style="stroke: #A80036; stroke-width: 1.5;" x1="93.5" x2="254.5" y1="394.6406" y2="394.6406"/><!--class ComputationInput--><rect fill="#FEFECE" filter="url(#ffvbv1edwyb8y)" height="48" id="ComputationInput" style="stroke: #A80036; stroke-width: 1.5;" width="130" x="124" y="246.6406"/><ellipse cx="139" cy="262.6406" fill="#ADD1B2" rx="11" ry="11" style="stroke: #A80036; stroke-width: 1.0;"/><path d="M141,259.1406 Q141.2031,258.6406 141.4375,258.3906 Q141.6719,258.1406 141.9375,258.1406 Q142.4063,258.1406 142.7031,258.4219 Q143,258.7031 143,259.3594 L143,260.9219 Q143,261.5781 142.7188,261.8594 Q142.4375,262.1406 142,262.1406 Q141.6094,262.1406 141.3594,261.9688 Q141.1094,261.7969 141,261.3438 Q140.9531,261.0313 140.7813,260.8594 Q140.4688,260.5313 139.9063,260.3359 Q139.3438,260.1406 138.7813,260.1406 Q138.0781,260.1406 137.4922,260.4219 Q136.9063,260.7031 136.4531,261.3281 Q136,261.9531 136,262.8125 L136,263.7344 Q136,264.7656 136.8438,265.4531 Q137.6875,266.1406 139.1875,266.1406 Q140.0781,266.1406 140.7031,265.9375 Q141.0625,265.8281 141.4688,265.4688 Q141.7344,265.2656 141.875,265.2031 Q142.0156,265.1406 142.1875,265.1406 Q142.5156,265.1406 142.7578,265.3984 Q143,265.6563 143,266.0156 Q143,266.3594 142.6563,266.7656 Q142.1563,267.3594 141.3594,267.6875 Q140.3125,268.1406 139.0313,268.1406 Q137.5313,268.1406 136.3281,267.5469 Q135.3594,267.0781 134.6797,266.0625 Q134,265.0469 134,263.8438 L134,262.75 Q134,261.5 134.6016,260.4063 Q135.2031,259.3125 136.2578,258.7266 Q137.3125,258.1406 138.5,258.1406 Q139.2188,258.1406 139.8438,258.3906 Q140.4688,258.6406 141,259.1406 Z "/><text fill="#000000" font-family="sans-serif" font-size="12" lengthAdjust="spacingAndGlyphs" textLength="98" x="153" y="267.5508">ComputationInput</text><line style="stroke: #A80036; stroke-width: 1.5;" x1="125" x2="253" y1="278.6406" y2="278.6406"/><line style="stroke: #A80036; stroke-width: 1.5;" x1="125" x2="253" y1="286.6406" y2="286.6406"/><!--class ComputationStep--><rect fill="#FEFECE" filter="url(#ffvbv1edwyb8y)" height="48" id="ComputationStep" style="stroke: #A80036; stroke-width: 1.5;" width="128" x="295" y="246.6406"/><ellipse cx="310" cy="262.6406" fill="#ADD1B2" rx="11" ry="11" style="stroke: #A80036; stroke-width: 1.0;"/><path d="M312,259.1406 Q312.2031,258.6406 312.4375,258.3906 Q312.6719,258.1406 312.9375,258.1406 Q313.4063,258.1406 313.7031,258.4219 Q314,258.7031 314,259.3594 L314,260.9219 Q314,261.5781 313.7188,261.8594 Q313.4375,262.1406 313,262.1406 Q312.6094,262.1406 312.3594,261.9688 Q312.1094,261.7969 312,261.3438 Q311.9531,261.0313 311.7813,260.8594 Q311.4688,260.5313 310.9063,260.3359 Q310.3438,260.1406 309.7813,260.1406 Q309.0781,260.1406 308.4922,260.4219 Q307.9063,260.7031 307.4531,261.3281 Q307,261.9531 307,262.8125 L307,263.7344 Q307,264.7656 307.8438,265.4531 Q308.6875,266.1406 310.1875,266.1406 Q311.0781,266.1406 311.7031,265.9375 Q312.0625,265.8281 312.4688,265.4688 Q312.7344,265.2656 312.875,265.2031 Q313.0156,265.1406 313.1875,265.1406 Q313.5156,265.1406 313.7578,265.3984 Q314,265.6563 314,266.0156 Q314,266.3594 313.6563,266.7656 Q313.1563,267.3594 312.3594,267.6875 Q311.3125,268.1406 310.0313,268.1406 Q308.5313,268.1406 307.3281,267.5469 Q306.3594,267.0781 305.6797,266.0625 Q305,265.0469 305,263.8438 L305,262.75 Q305,261.5 305.6016,260.4063 Q306.2031,259.3125 307.2578,258.7266 Q308.3125,258.1406 309.5,258.1406 Q310.2188,258.1406 310.8438,258.3906 Q311.4688,258.6406 312,259.1406 Z "/><text fill="#000000" font-family="sans-serif" font-size="12" lengthAdjust="spacingAndGlyphs" textLength="96" x="324" y="267.5508">ComputationStep</text><line style="stroke: #A80036; stroke-width: 1.5;" x1="296" x2="422" y1="278.6406" y2="278.6406"/><line style="stroke: #A80036; stroke-width: 1.5;" x1="296" x2="422" y1="286.6406" y2="286.6406"/><!--class ComputationStepPackage--><rect fill="#FEFECE" filter="url(#ffvbv1edwyb8y)" height="48" id="ComputationStepPackage" style="stroke: #A80036; stroke-width: 1.5;" width="176" x="242" y="138.6406"/><ellipse cx="257" cy="154.6406" fill="#ADD1B2" rx="11" ry="11" style="stroke: #A80036; stroke-width: 1.0;"/><path d="M259,151.1406 Q259.2031,150.6406 259.4375,150.3906 Q259.6719,150.1406 259.9375,150.1406 Q260.4063,150.1406 260.7031,150.4219 Q261,150.7031 261,151.3594 L261,152.9219 Q261,153.5781 260.7188,153.8594 Q260.4375,154.1406 260,154.1406 Q259.6094,154.1406 259.3594,153.9688 Q259.1094,153.7969 259,153.3438 Q258.9531,153.0313 258.7813,152.8594 Q258.4688,152.5313 257.9063,152.3359 Q257.3438,152.1406 256.7813,152.1406 Q256.0781,152.1406 255.4922,152.4219 Q254.9063,152.7031 254.4531,153.3281 Q254,153.9531 254,154.8125 L254,155.7344 Q254,156.7656 254.8438,157.4531 Q255.6875,158.1406 257.1875,158.1406 Q258.0781,158.1406 258.7031,157.9375 Q259.0625,157.8281 259.4688,157.4688 Q259.7344,157.2656 259.875,157.2031 Q260.0156,157.1406 260.1875,157.1406 Q260.5156,157.1406 260.7578,157.3984 Q261,157.6563 261,158.0156 Q261,158.3594 260.6563,158.7656 Q260.1563,159.3594 259.3594,159.6875 Q258.3125,160.1406 257.0313,160.1406 Q255.5313,160.1406 254.3281,159.5469 Q253.3594,159.0781 252.6797,158.0625 Q252,157.0469 252,155.8438 L252,154.75 Q252,153.5 252.6016,152.4063 Q253.2031,151.3125 254.2578,150.7266 Q255.3125,150.1406 256.5,150.1406 Q257.2188,150.1406 257.8438,150.3906 Q258.4688,150.6406 259,151.1406 Z "/><text fill="#000000" font-family="sans-serif" font-size="12" lengthAdjust="spacingAndGlyphs" textLength="144" x="271" y="159.5508">ComputationStepPackage</text><line style="stroke: #A80036; stroke-width: 1.5;" x1="243" x2="417" y1="170.6406" y2="170.6406"/><line style="stroke: #A80036; stroke-width: 1.5;" x1="243" x2="417" y1="178.6406" y2="178.6406"/><!--class ComputationStepParam--><rect fill="#FEFECE" filter="url(#ffvbv1edwyb8y)" height="48" id="ComputationStepParam" style="stroke: #A80036; stroke-width: 1.5;" width="165" x="290.5" y="354.6406"/><ellipse cx="305.5" cy="370.6406" fill="#ADD1B2" rx="11" ry="11" style="stroke: #A80036; stroke-width: 1.0;"/><path d="M307.5,367.1406 Q307.7031,366.6406 307.9375,366.3906 Q308.1719,366.1406 308.4375,366.1406 Q308.9063,366.1406 309.2031,366.4219 Q309.5,366.7031 309.5,367.3594 L309.5,368.9219 Q309.5,369.5781 309.2188,369.8594 Q308.9375,370.1406 308.5,370.1406 Q308.1094,370.1406 307.8594,369.9688 Q307.6094,369.7969 307.5,369.3438 Q307.4531,369.0313 307.2813,368.8594 Q306.9688,368.5313 306.4063,368.3359 Q305.8438,368.1406 305.2813,368.1406 Q304.5781,368.1406 303.9922,368.4219 Q303.4063,368.7031 302.9531,369.3281 Q302.5,369.9531 302.5,370.8125 L302.5,371.7344 Q302.5,372.7656 303.3438,373.4531 Q304.1875,374.1406 305.6875,374.1406 Q306.5781,374.1406 307.2031,373.9375 Q307.5625,373.8281 307.9688,373.4688 Q308.2344,373.2656 308.375,373.2031 Q308.5156,373.1406 308.6875,373.1406 Q309.0156,373.1406 309.2578,373.3984 Q309.5,373.6563 309.5,374.0156 Q309.5,374.3594 309.1563,374.7656 Q308.6563,375.3594 307.8594,375.6875 Q306.8125,376.1406 305.5313,376.1406 Q304.0313,376.1406 302.8281,375.5469 Q301.8594,375.0781 301.1797,374.0625 Q300.5,373.0469 300.5,371.8438 L300.5,370.75 Q300.5,369.5 301.1016,368.4063 Q301.7031,367.3125 302.7578,366.7266 Q303.8125,366.1406 305,366.1406 Q305.7188,366.1406 306.3438,366.3906 Q306.9688,366.6406 307.5,367.1406 Z "/><text fill="#000000" font-family="sans-serif" font-size="12" lengthAdjust="spacingAndGlyphs" textLength="133" x="319.5" y="375.5508">ComputationStepParam</text><line style="stroke: #A80036; stroke-width: 1.5;" x1="291.5" x2="454.5" y1="386.6406" y2="386.6406"/><line style="stroke: #A80036; stroke-width: 1.5;" x1="291.5" x2="454.5" y1="394.6406" y2="394.6406"/><!--class ComputationRunnable--><rect fill="#FEFECE" filter="url(#ffvbv1edwyb8y)" height="48" id="ComputationRunnable" style="stroke: #A80036; stroke-width: 1.5;" width="157" x="453.5" y="138.6406"/><ellipse cx="468.5" cy="154.6406" fill="#ADD1B2" rx="11" ry="11" style="stroke: #A80036; stroke-width: 1.0;"/><path d="M470.5,151.1406 Q470.7031,150.6406 470.9375,150.3906 Q471.1719,150.1406 471.4375,150.1406 Q471.9063,150.1406 472.2031,150.4219 Q472.5,150.7031 472.5,151.3594 L472.5,152.9219 Q472.5,153.5781 472.2188,153.8594 Q471.9375,154.1406 471.5,154.1406 Q471.1094,154.1406 470.8594,153.9688 Q470.6094,153.7969 470.5,153.3438 Q470.4531,153.0313 470.2813,152.8594 Q469.9688,152.5313 469.4063,152.3359 Q468.8438,152.1406 468.2813,152.1406 Q467.5781,152.1406 466.9922,152.4219 Q466.4063,152.7031 465.9531,153.3281 Q465.5,153.9531 465.5,154.8125 L465.5,155.7344 Q465.5,156.7656 466.3438,157.4531 Q467.1875,158.1406 468.6875,158.1406 Q469.5781,158.1406 470.2031,157.9375 Q470.5625,157.8281 470.9688,157.4688 Q471.2344,157.2656 471.375,157.2031 Q471.5156,157.1406 471.6875,157.1406 Q472.0156,157.1406 472.2578,157.3984 Q472.5,157.6563 472.5,158.0156 Q472.5,158.3594 472.1563,158.7656 Q471.6563,159.3594 470.8594,159.6875 Q469.8125,160.1406 468.5313,160.1406 Q467.0313,160.1406 465.8281,159.5469 Q464.8594,159.0781 464.1797,158.0625 Q463.5,157.0469 463.5,155.8438 L463.5,154.75 Q463.5,153.5 464.1016,152.4063 Q464.7031,151.3125 465.7578,150.7266 Q466.8125,150.1406 468,150.1406 Q468.7188,150.1406 469.3438,150.3906 Q469.9688,150.6406 470.5,151.1406 Z "/><text fill="#000000" font-family="sans-serif" font-size="12" lengthAdjust="spacingAndGlyphs" textLength="125" x="482.5" y="159.5508">ComputationRunnable</text><line style="stroke: #A80036; stroke-width: 1.5;" x1="454.5" x2="609.5" y1="170.6406" y2="170.6406"/><line style="stroke: #A80036; stroke-width: 1.5;" x1="454.5" x2="609.5" y1="178.6406" y2="178.6406"/><!--class ComputationTopic--><rect fill="#FEFECE" filter="url(#ffvbv1edwyb8y)" height="48" id="ComputationTopic" style="stroke: #A80036; stroke-width: 1.5;" width="133" x="465.5" y="246.6406"/><ellipse cx="480.5" cy="262.6406" fill="#ADD1B2" rx="11" ry="11" style="stroke: #A80036; stroke-width: 1.0;"/><path d="M482.5,259.1406 Q482.7031,258.6406 482.9375,258.3906 Q483.1719,258.1406 483.4375,258.1406 Q483.9063,258.1406 484.2031,258.4219 Q484.5,258.7031 484.5,259.3594 L484.5,260.9219 Q484.5,261.5781 484.2188,261.8594 Q483.9375,262.1406 483.5,262.1406 Q483.1094,262.1406 482.8594,261.9688 Q482.6094,261.7969 482.5,261.3438 Q482.4531,261.0313 482.2813,260.8594 Q481.9688,260.5313 481.4063,260.3359 Q480.8438,260.1406 480.2813,260.1406 Q479.5781,260.1406 478.9922,260.4219 Q478.4063,260.7031 477.9531,261.3281 Q477.5,261.9531 477.5,262.8125 L477.5,263.7344 Q477.5,264.7656 478.3438,265.4531 Q479.1875,266.1406 480.6875,266.1406 Q481.5781,266.1406 482.2031,265.9375 Q482.5625,265.8281 482.9688,265.4688 Q483.2344,265.2656 483.375,265.2031 Q483.5156,265.1406 483.6875,265.1406 Q484.0156,265.1406 484.2578,265.3984 Q484.5,265.6563 484.5,266.0156 Q484.5,266.3594 484.1563,266.7656 Q483.6563,267.3594 482.8594,267.6875 Q481.8125,268.1406 480.5313,268.1406 Q479.0313,268.1406 477.8281,267.5469 Q476.8594,267.0781 476.1797,266.0625 Q475.5,265.0469 475.5,263.8438 L475.5,262.75 Q475.5,261.5 476.1016,260.4063 Q476.7031,259.3125 477.7578,258.7266 Q478.8125,258.1406 480,258.1406 Q480.7188,258.1406 481.3438,258.3906 Q481.9688,258.6406 482.5,259.1406 Z "/><text fill="#000000" font-family="sans-serif" font-size="12" lengthAdjust="spacingAndGlyphs" textLength="101" x="494.5" y="267.5508">ComputationTopic</text><line style="stroke: #A80036; stroke-width: 1.5;" x1="466.5" x2="597.5" y1="278.6406" y2="278.6406"/><line style="stroke: #A80036; stroke-width: 1.5;" x1="466.5" x2="597.5" y1="286.6406" y2="286.6406"/><!--class Computation--><rect fill="#FEFECE" filter="url(#ffvbv1edwyb8y)" height="48" id="Computation" style="stroke: #A80036; stroke-width: 1.5;" width="103" x="208.5" y="30.6406"/><ellipse cx="223.5" cy="46.6406" fill="#ADD1B2" rx="11" ry="11" style="stroke: #A80036; stroke-width: 1.0;"/><path d="M225.5,43.1406 Q225.7031,42.6406 225.9375,42.3906 Q226.1719,42.1406 226.4375,42.1406 Q226.9063,42.1406 227.2031,42.4219 Q227.5,42.7031 227.5,43.3594 L227.5,44.9219 Q227.5,45.5781 227.2188,45.8594 Q226.9375,46.1406 226.5,46.1406 Q226.1094,46.1406 225.8594,45.9688 Q225.6094,45.7969 225.5,45.3438 Q225.4531,45.0313 225.2813,44.8594 Q224.9688,44.5313 224.4063,44.3359 Q223.8438,44.1406 223.2813,44.1406 Q222.5781,44.1406 221.9922,44.4219 Q221.4063,44.7031 220.9531,45.3281 Q220.5,45.9531 220.5,46.8125 L220.5,47.7344 Q220.5,48.7656 221.3438,49.4531 Q222.1875,50.1406 223.6875,50.1406 Q224.5781,50.1406 225.2031,49.9375 Q225.5625,49.8281 225.9688,49.4688 Q226.2344,49.2656 226.375,49.2031 Q226.5156,49.1406 226.6875,49.1406 Q227.0156,49.1406 227.2578,49.3984 Q227.5,49.6563 227.5,50.0156 Q227.5,50.3594 227.1563,50.7656 Q226.6563,51.3594 225.8594,51.6875 Q224.8125,52.1406 223.5313,52.1406 Q222.0313,52.1406 220.8281,51.5469 Q219.8594,51.0781 219.1797,50.0625 Q218.5,49.0469 218.5,47.8438 L218.5,46.75 Q218.5,45.5 219.1016,44.4063 Q219.7031,43.3125 220.7578,42.7266 Q221.8125,42.1406 223,42.1406 Q223.7188,42.1406 224.3438,42.3906 Q224.9688,42.6406 225.5,43.1406 Z "/><text fill="#000000" font-family="sans-serif" font-size="12" lengthAdjust="spacingAndGlyphs" textLength="71" x="237.5" y="51.5508">Computation</text><line style="stroke: #A80036; stroke-width: 1.5;" x1="209.5" x2="310.5" y1="62.6406" y2="62.6406"/><line style="stroke: #A80036; stroke-width: 1.5;" x1="209.5" x2="310.5" y1="70.6406" y2="70.6406"/><!--class Machine--><rect fill="#FEFECE" filter="url(#ffvbv1edwyb8y)" height="48" id="Machine" style="stroke: #A80036; stroke-width: 1.5;" width="78" x="665" y="30.6406"/><ellipse cx="680" cy="46.6406" fill="#ADD1B2" rx="11" ry="11" style="stroke: #A80036; stroke-width: 1.0;"/><path d="M682,43.1406 Q682.2031,42.6406 682.4375,42.3906 Q682.6719,42.1406 682.9375,42.1406 Q683.4063,42.1406 683.7031,42.4219 Q684,42.7031 684,43.3594 L684,44.9219 Q684,45.5781 683.7188,45.8594 Q683.4375,46.1406 683,46.1406 Q682.6094,46.1406 682.3594,45.9688 Q682.1094,45.7969 682,45.3438 Q681.9531,45.0313 681.7813,44.8594 Q681.4688,44.5313 680.9063,44.3359 Q680.3438,44.1406 679.7813,44.1406 Q679.0781,44.1406 678.4922,44.4219 Q677.9063,44.7031 677.4531,45.3281 Q677,45.9531 677,46.8125 L677,47.7344 Q677,48.7656 677.8438,49.4531 Q678.6875,50.1406 680.1875,50.1406 Q681.0781,50.1406 681.7031,49.9375 Q682.0625,49.8281 682.4688,49.4688 Q682.7344,49.2656 682.875,49.2031 Q683.0156,49.1406 683.1875,49.1406 Q683.5156,49.1406 683.7578,49.3984 Q684,49.6563 684,50.0156 Q684,50.3594 683.6563,50.7656 Q683.1563,51.3594 682.3594,51.6875 Q681.3125,52.1406 680.0313,52.1406 Q678.5313,52.1406 677.3281,51.5469 Q676.3594,51.0781 675.6797,50.0625 Q675,49.0469 675,47.8438 L675,46.75 Q675,45.5 675.6016,44.4063 Q676.2031,43.3125 677.2578,42.7266 Q678.3125,42.1406 679.5,42.1406 Q680.2188,42.1406 680.8438,42.3906 Q681.4688,42.6406 682,43.1406 Z "/><text fill="#000000" font-family="sans-serif" font-size="12" lengthAdjust="spacingAndGlyphs" textLength="46" x="694" y="51.5508">Machine</text><line style="stroke: #A80036; stroke-width: 1.5;" x1="666" x2="742" y1="62.6406" y2="62.6406"/><line style="stroke: #A80036; stroke-width: 1.5;" x1="666" x2="742" y1="70.6406" y2="70.6406"/><!--class MachineMetrics--><rect fill="#FEFECE" filter="url(#ffvbv1edwyb8y)" height="48" id="MachineMetrics" style="stroke: #A80036; stroke-width: 1.5;" width="117" x="645.5" y="138.6406"/><ellipse cx="660.5" cy="154.6406" fill="#ADD1B2" rx="11" ry="11" style="stroke: #A80036; stroke-width: 1.0;"/><path d="M662.5,151.1406 Q662.7031,150.6406 662.9375,150.3906 Q663.1719,150.1406 663.4375,150.1406 Q663.9063,150.1406 664.2031,150.4219 Q664.5,150.7031 664.5,151.3594 L664.5,152.9219 Q664.5,153.5781 664.2188,153.8594 Q663.9375,154.1406 663.5,154.1406 Q663.1094,154.1406 662.8594,153.9688 Q662.6094,153.7969 662.5,153.3438 Q662.4531,153.0313 662.2813,152.8594 Q661.9688,152.5313 661.4063,152.3359 Q660.8438,152.1406 660.2813,152.1406 Q659.5781,152.1406 658.9922,152.4219 Q658.4063,152.7031 657.9531,153.3281 Q657.5,153.9531 657.5,154.8125 L657.5,155.7344 Q657.5,156.7656 658.3438,157.4531 Q659.1875,158.1406 660.6875,158.1406 Q661.5781,158.1406 662.2031,157.9375 Q662.5625,157.8281 662.9688,157.4688 Q663.2344,157.2656 663.375,157.2031 Q663.5156,157.1406 663.6875,157.1406 Q664.0156,157.1406 664.2578,157.3984 Q664.5,157.6563 664.5,158.0156 Q664.5,158.3594 664.1563,158.7656 Q663.6563,159.3594 662.8594,159.6875 Q661.8125,160.1406 660.5313,160.1406 Q659.0313,160.1406 657.8281,159.5469 Q656.8594,159.0781 656.1797,158.0625 Q655.5,157.0469 655.5,155.8438 L655.5,154.75 Q655.5,153.5 656.1016,152.4063 Q656.7031,151.3125 657.7578,150.7266 Q658.8125,150.1406 660,150.1406 Q660.7188,150.1406 661.3438,150.3906 Q661.9688,150.6406 662.5,151.1406 Z "/><text fill="#000000" font-family="sans-serif" font-size="12" lengthAdjust="spacingAndGlyphs" textLength="85" x="674.5" y="159.5508">MachineMetrics</text><line style="stroke: #A80036; stroke-width: 1.5;" x1="646.5" x2="761.5" y1="170.6406" y2="170.6406"/><line style="stroke: #A80036; stroke-width: 1.5;" x1="646.5" x2="761.5" y1="178.6406" y2="178.6406"/><!--class MachineMetricValue--><rect fill="#FEFECE" filter="url(#ffvbv1edwyb8y)" height="48" id="MachineMetricValue" style="stroke: #A80036; stroke-width: 1.5;" width="141" x="633.5" y="246.6406"/><ellipse cx="648.5" cy="262.6406" fill="#ADD1B2" rx="11" ry="11" style="stroke: #A80036; stroke-width: 1.0;"/><path d="M650.5,259.1406 Q650.7031,258.6406 650.9375,258.3906 Q651.1719,258.1406 651.4375,258.1406 Q651.9063,258.1406 652.2031,258.4219 Q652.5,258.7031 652.5,259.3594 L652.5,260.9219 Q652.5,261.5781 652.2188,261.8594 Q651.9375,262.1406 651.5,262.1406 Q651.1094,262.1406 650.8594,261.9688 Q650.6094,261.7969 650.5,261.3438 Q650.4531,261.0313 650.2813,260.8594 Q649.9688,260.5313 649.4063,260.3359 Q648.8438,260.1406 648.2813,260.1406 Q647.5781,260.1406 646.9922,260.4219 Q646.4063,260.7031 645.9531,261.3281 Q645.5,261.9531 645.5,262.8125 L645.5,263.7344 Q645.5,264.7656 646.3438,265.4531 Q647.1875,266.1406 648.6875,266.1406 Q649.5781,266.1406 650.2031,265.9375 Q650.5625,265.8281 650.9688,265.4688 Q651.2344,265.2656 651.375,265.2031 Q651.5156,265.1406 651.6875,265.1406 Q652.0156,265.1406 652.2578,265.3984 Q652.5,265.6563 652.5,266.0156 Q652.5,266.3594 652.1563,266.7656 Q651.6563,267.3594 650.8594,267.6875 Q649.8125,268.1406 648.5313,268.1406 Q647.0313,268.1406 645.8281,267.5469 Q644.8594,267.0781 644.1797,266.0625 Q643.5,265.0469 643.5,263.8438 L643.5,262.75 Q643.5,261.5 644.1016,260.4063 Q644.7031,259.3125 645.7578,258.7266 Q646.8125,258.1406 648,258.1406 Q648.7188,258.1406 649.3438,258.3906 Q649.9688,258.6406 650.5,259.1406 Z "/><text fill="#000000" font-family="sans-serif" font-size="12" lengthAdjust="spacingAndGlyphs" textLength="109" x="662.5" y="267.5508">MachineMetricValue</text><line style="stroke: #A80036; stroke-width: 1.5;" x1="634.5" x2="773.5" y1="278.6406" y2="278.6406"/><line style="stroke: #A80036; stroke-width: 1.5;" x1="634.5" x2="773.5" y1="286.6406" y2="286.6406"/><!--link ComputationTask to ComputationApplication--><path d="M76.4545,200.1346 C81.5132,227.2866 90.6357,264.6716 106,294.6406 C117.473,317.0192 135.756,338.877 150.476,354.5399 " fill="none" id="ComputationTask-ComputationApplication" style="stroke: #A80036; stroke-width: 1.0;"/><polygon fill="#A80036" points="74.168,186.9616,71.2529,193.5572,76.2199,198.7849,79.135,192.1893,74.168,186.9616" style="stroke: #A80036; stroke-width: 1.0;"/><!--link ComputationTask to ComputationInput--><path d="M106.303,195.3536 C124.531,211.7276 146.378,231.3526 163.038,246.3186 " fill="none" id="ComputationTask-ComputationInput" style="stroke: #A80036; stroke-width: 1.0;"/><polygon fill="#FFFFFF" points="96.6042,186.6406,98.3947,193.6259,105.5313,194.6597,103.7408,187.6745,96.6042,186.6406" style="stroke: #A80036; stroke-width: 1.0;"/><!--link ComputationInput to ComputationApplication--><path d="M185.745,294.6406 C183.481,310.6436 180.446,332.0867 178.029,349.1686 " fill="none" id="ComputationInput-ComputationApplication" style="stroke: #A80036; stroke-width: 1.0; stroke-dasharray: 7.0,7.0;"/><polygon fill="#A80036" points="177.3,354.319,182.5216,345.9683,178.0006,349.3684,174.6006,344.8473,177.3,354.319" style="stroke: #A80036; stroke-width: 1.0;"/><!--link ComputationStepPackage to ComputationStep--><path d="M339.813,199.5096 C344.042,214.9656 348.866,232.5996 352.62,246.3186 " fill="none" id="ComputationStepPackage-ComputationStep" style="stroke: #A80036; stroke-width: 1.0;"/><polygon fill="#A80036" points="336.293,186.6406,334.0177,193.4834,339.459,198.2154,341.7343,191.3727,336.293,186.6406" style="stroke: #A80036; stroke-width: 1.0;"/><text fill="#000000" font-family="sans-serif" font-size="13" lengthAdjust="spacingAndGlyphs" textLength="20" x="328.6274" y="235.9781">1..*</text><!--link ComputationStep to ComputationStepParam--><path d="M363.799,307.9789 C365.826,323.3219 368.126,340.7386 369.92,354.319 " fill="none" id="ComputationStep-ComputationStepParam" style="stroke: #A80036; stroke-width: 1.0;"/><polygon fill="#FFFFFF" points="362.038,294.6406,358.8581,301.1127,363.6093,306.5373,366.7892,300.0652,362.038,294.6406" style="stroke: #A80036; stroke-width: 1.0;"/><text fill="#000000" font-family="sans-serif" font-size="13" lengthAdjust="spacingAndGlyphs" textLength="20" x="346.7318" y="343.9786">0..*</text><!--link ComputationStep to ComputationApplication--><path d="M318.858,294.6406 C289.383,311.5293 249.332,334.4771 218.814,351.9633 " fill="none" id="ComputationStep-ComputationApplication" style="stroke: #A80036; stroke-width: 1.0; stroke-dasharray: 7.0,7.0;"/><polygon fill="#A80036" points="214.383,354.5023,224.1806,353.4987,218.7213,352.0166,220.2034,346.5573,214.383,354.5023" style="stroke: #A80036; stroke-width: 1.0;"/><!--link ComputationRunnable to ComputationStep--><path d="M483.149,193.5726 C455.761,210.3536 422.116,230.9686 396.763,246.5026 " fill="none" id="ComputationRunnable-ComputationStep" style="stroke: #A80036; stroke-width: 1.0;"/><polygon fill="#A80036" points="494.462,186.6406,487.2562,186.3646,484.2299,192.9099,491.4357,193.186,494.462,186.6406" style="stroke: #A80036; stroke-width: 1.0;"/><text fill="#000000" font-family="sans-serif" font-size="13" lengthAdjust="spacingAndGlyphs" textLength="7" x="398.5429" y="235.8074">1</text><!--link ComputationRunnable to ComputationTopic--><path d="M532,199.9786 C532,215.3216 532,232.7386 532,246.3186 " fill="none" id="ComputationRunnable-ComputationTopic" style="stroke: #A80036; stroke-width: 1.0;"/><polygon fill="#FFFFFF" points="532,186.6406,528,192.6406,532,198.6406,536,192.6406,532,186.6406" style="stroke: #A80036; stroke-width: 1.0;"/><!--link Computation to ComputationStepPackage--><path d="M282.457,89.6476 C292.949,105.5346 305.173,124.0456 314.599,138.3186 " fill="none" id="Computation-ComputationStepPackage" style="stroke: #A80036; stroke-width: 1.0;"/><polygon fill="#A80036" points="275.189,78.6406,275.1576,85.8517,281.8018,88.6541,281.8333,81.4431,275.189,78.6406" style="stroke: #A80036; stroke-width: 1.0;"/><text fill="#000000" font-family="sans-serif" font-size="13" lengthAdjust="spacingAndGlyphs" textLength="7" x="302.9919" y="127.9781">1</text><!--link Computation to ComputationInput--><path d="M243.321,90.9256 C236.792,105.5036 229.554,122.6946 224,138.6406 C211.069,175.7666 200.115,220.2016 194.061,246.6116 " fill="none" id="Computation-ComputationInput" style="stroke: #A80036; stroke-width: 1.0;"/><polygon fill="#A80036" points="248.815,78.8846,242.6851,82.6825,243.8332,89.8016,249.9631,86.0037,248.815,78.8846" style="stroke: #A80036; stroke-width: 1.0;"/><text fill="#000000" font-family="sans-serif" font-size="13" lengthAdjust="spacingAndGlyphs" textLength="7" x="187.461" y="235.9444">1</text><!--link Machine to MachineMetrics--><path d="M704,91.9786 C704,107.3216 704,124.7386 704,138.3186 " fill="none" id="Machine-MachineMetrics" style="stroke: #A80036; stroke-width: 1.0;"/><polygon fill="#FFFFFF" points="704,78.6406,700,84.6406,704,90.6406,708,84.6406,704,78.6406" style="stroke: #A80036; stroke-width: 1.0;"/><!--link MachineMetrics to MachineMetricValue--><path d="M704,199.9786 C704,215.3216 704,232.7386 704,246.3186 " fill="none" id="MachineMetrics-MachineMetricValue" style="stroke: #A80036; stroke-width: 1.0;"/><polygon fill="#FFFFFF" points="704,186.6406,700,192.6406,704,198.6406,708,192.6406,704,186.6406" style="stroke: #A80036; stroke-width: 1.0;"/><!--
@startuml
    title Model

    class ComputationTask
    class ComputationApplication
    class ComputationInput
    class ComputationStep
    class ComputationStepPackage
    class ComputationStepParam
    class ComputationRunnable
    class ComputationTopic
    class Computation
    class Machine
    class MachineMetrics
    class MachineMetricValue

    ComputationTask *- - ComputationApplication
    ComputationTask o- - ComputationInput
    ComputationInput ..> ComputationApplication
    ComputationStepPackage *- - "1..*" ComputationStep
    ComputationStep o- - "0..*" ComputationStepParam
    ComputationStep ..> ComputationApplication
    ComputationRunnable *- - "1" ComputationStep
    ComputationRunnable o- - ComputationTopic
    Computation *- - "1"ComputationStepPackage
    Computation *- - "1" ComputationInput
    Machine o- - MachineMetrics
    MachineMetrics o- - MachineMetricValue
@enduml

PlantUML version 1.2018.11(Sat Sep 22 18:43:53 CEST 2018)
(GPL source distribution)
Java Runtime: OpenJDK Runtime Environment
JVM: OpenJDK 64-Bit Server VM
Java Version: 1.8.0_152-release-1248-b8
Operating System: Windows 10
OS Version: 10.0
Default Encoding: Cp1250
Language: pl
Country: PL
--></g></svg>