<?xml version="1.0" encoding="UTF-8" standalone="no"?><svg xmlns="http://www.w3.org/2000/svg" xmlns:xlink="http://www.w3.org/1999/xlink" contentScriptType="application/ecmascript" contentStyleType="text/css" height="305px" preserveAspectRatio="none" style="width:822px;height:305px;" version="1.1" viewBox="0 0 822 305" width="822px" zoomAndPan="magnify"><defs><filter height="300%" id="f1simdn9clyzj0" width="300%" x="-1" y="-1"><feGaussianBlur result="blurOut" stdDeviation="2.0"/><feColorMatrix in="blurOut" result="blurOut2" type="matrix" values="0 0 0 0 0 0 0 0 0 0 0 0 0 0 0 0 0 0 .4 0"/><feOffset dx="4.0" dy="4.0" in="blurOut2" result="blurOut3"/><feBlend in="SourceGraphic" in2="blurOut3" mode="normal"/></filter></defs><g><text fill="#000000" font-family="sans-serif" font-size="18" lengthAdjust="spacingAndGlyphs" textLength="49" x="390" y="18.6855">Model</text><!--class ComputationTask--><rect fill="#FEFECE" filter="url(#f1simdn9clyzj0)" height="48" id="ComputationTask" style="stroke: #A80036; stroke-width: 1.5;" width="130" x="425" y="30.6406"/><ellipse cx="440" cy="46.6406" fill="#ADD1B2" rx="11" ry="11" style="stroke: #A80036; stroke-width: 1.0;"/><path d="M442,43.1406 Q442.2031,42.6406 442.4375,42.3906 Q442.6719,42.1406 442.9375,42.1406 Q443.4063,42.1406 443.7031,42.4219 Q444,42.7031 444,43.3594 L444,44.9219 Q444,45.5781 443.7188,45.8594 Q443.4375,46.1406 443,46.1406 Q442.6094,46.1406 442.3594,45.9688 Q442.1094,45.7969 442,45.3438 Q441.9531,45.0313 441.7813,44.8594 Q441.4688,44.5313 440.9063,44.3359 Q440.3438,44.1406 439.7813,44.1406 Q439.0781,44.1406 438.4922,44.4219 Q437.9063,44.7031 437.4531,45.3281 Q437,45.9531 437,46.8125 L437,47.7344 Q437,48.7656 437.8438,49.4531 Q438.6875,50.1406 440.1875,50.1406 Q441.0781,50.1406 441.7031,49.9375 Q442.0625,49.8281 442.4688,49.4688 Q442.7344,49.2656 442.875,49.2031 Q443.0156,49.1406 443.1875,49.1406 Q443.5156,49.1406 443.7578,49.3984 Q444,49.6563 444,50.0156 Q444,50.3594 443.6563,50.7656 Q443.1563,51.3594 442.3594,51.6875 Q441.3125,52.1406 440.0313,52.1406 Q438.5313,52.1406 437.3281,51.5469 Q436.3594,51.0781 435.6797,50.0625 Q435,49.0469 435,47.8438 L435,46.75 Q435,45.5 435.6016,44.4063 Q436.2031,43.3125 437.2578,42.7266 Q438.3125,42.1406 439.5,42.1406 Q440.2188,42.1406 440.8438,42.3906 Q441.4688,42.6406 442,43.1406 Z "/><text fill="#000000" font-family="sans-serif" font-size="12" lengthAdjust="spacingAndGlyphs" textLength="98" x="454" y="51.5508">ComputationTask</text><line style="stroke: #A80036; stroke-width: 1.5;" x1="426" x2="554" y1="62.6406" y2="62.6406"/><line style="stroke: #A80036; stroke-width: 1.5;" x1="426" x2="554" y1="70.6406" y2="70.6406"/><!--class ComputationApplication--><rect fill="#FEFECE" filter="url(#f1simdn9clyzj0)" height="48" id="ComputationApplication" style="stroke: #A80036; stroke-width: 1.5;" width="163" x="381.5" y="246.6406"/><ellipse cx="396.5" cy="262.6406" fill="#ADD1B2" rx="11" ry="11" style="stroke: #A80036; stroke-width: 1.0;"/><path d="M398.5,259.1406 Q398.7031,258.6406 398.9375,258.3906 Q399.1719,258.1406 399.4375,258.1406 Q399.9063,258.1406 400.2031,258.4219 Q400.5,258.7031 400.5,259.3594 L400.5,260.9219 Q400.5,261.5781 400.2188,261.8594 Q399.9375,262.1406 399.5,262.1406 Q399.1094,262.1406 398.8594,261.9688 Q398.6094,261.7969 398.5,261.3438 Q398.4531,261.0313 398.2813,260.8594 Q397.9688,260.5313 397.4063,260.3359 Q396.8438,260.1406 396.2813,260.1406 Q395.5781,260.1406 394.9922,260.4219 Q394.4063,260.7031 393.9531,261.3281 Q393.5,261.9531 393.5,262.8125 L393.5,263.7344 Q393.5,264.7656 394.3438,265.4531 Q395.1875,266.1406 396.6875,266.1406 Q397.5781,266.1406 398.2031,265.9375 Q398.5625,265.8281 398.9688,265.4688 Q399.2344,265.2656 399.375,265.2031 Q399.5156,265.1406 399.6875,265.1406 Q400.0156,265.1406 400.2578,265.3984 Q400.5,265.6563 400.5,266.0156 Q400.5,266.3594 400.1563,266.7656 Q399.6563,267.3594 398.8594,267.6875 Q397.8125,268.1406 396.5313,268.1406 Q395.0313,268.1406 393.8281,267.5469 Q392.8594,267.0781 392.1797,266.0625 Q391.5,265.0469 391.5,263.8438 L391.5,262.75 Q391.5,261.5 392.1016,260.4063 Q392.7031,259.3125 393.7578,258.7266 Q394.8125,258.1406 396,258.1406 Q396.7188,258.1406 397.3438,258.3906 Q397.9688,258.6406 398.5,259.1406 Z "/><text fill="#000000" font-family="sans-serif" font-size="12" lengthAdjust="spacingAndGlyphs" textLength="131" x="410.5" y="267.5508">ComputationApplication</text><line style="stroke: #A80036; stroke-width: 1.5;" x1="382.5" x2="543.5" y1="278.6406" y2="278.6406"/><line style="stroke: #A80036; stroke-width: 1.5;" x1="382.5" x2="543.5" y1="286.6406" y2="286.6406"/><!--class ComputationInput--><rect fill="#FEFECE" filter="url(#f1simdn9clyzj0)" height="48" id="ComputationInput" style="stroke: #A80036; stroke-width: 1.5;" width="130" x="380" y="138.6406"/><ellipse cx="395" cy="154.6406" fill="#ADD1B2" rx="11" ry="11" style="stroke: #A80036; stroke-width: 1.0;"/><path d="M397,151.1406 Q397.2031,150.6406 397.4375,150.3906 Q397.6719,150.1406 397.9375,150.1406 Q398.4063,150.1406 398.7031,150.4219 Q399,150.7031 399,151.3594 L399,152.9219 Q399,153.5781 398.7188,153.8594 Q398.4375,154.1406 398,154.1406 Q397.6094,154.1406 397.3594,153.9688 Q397.1094,153.7969 397,153.3438 Q396.9531,153.0313 396.7813,152.8594 Q396.4688,152.5313 395.9063,152.3359 Q395.3438,152.1406 394.7813,152.1406 Q394.0781,152.1406 393.4922,152.4219 Q392.9063,152.7031 392.4531,153.3281 Q392,153.9531 392,154.8125 L392,155.7344 Q392,156.7656 392.8438,157.4531 Q393.6875,158.1406 395.1875,158.1406 Q396.0781,158.1406 396.7031,157.9375 Q397.0625,157.8281 397.4688,157.4688 Q397.7344,157.2656 397.875,157.2031 Q398.0156,157.1406 398.1875,157.1406 Q398.5156,157.1406 398.7578,157.3984 Q399,157.6563 399,158.0156 Q399,158.3594 398.6563,158.7656 Q398.1563,159.3594 397.3594,159.6875 Q396.3125,160.1406 395.0313,160.1406 Q393.5313,160.1406 392.3281,159.5469 Q391.3594,159.0781 390.6797,158.0625 Q390,157.0469 390,155.8438 L390,154.75 Q390,153.5 390.6016,152.4063 Q391.2031,151.3125 392.2578,150.7266 Q393.3125,150.1406 394.5,150.1406 Q395.2188,150.1406 395.8438,150.3906 Q396.4688,150.6406 397,151.1406 Z "/><text fill="#000000" font-family="sans-serif" font-size="12" lengthAdjust="spacingAndGlyphs" textLength="98" x="409" y="159.5508">ComputationInput</text><line style="stroke: #A80036; stroke-width: 1.5;" x1="381" x2="509" y1="170.6406" y2="170.6406"/><line style="stroke: #A80036; stroke-width: 1.5;" x1="381" x2="509" y1="178.6406" y2="178.6406"/><!--class ComputationStep--><rect fill="#FEFECE" filter="url(#f1simdn9clyzj0)" height="48" id="ComputationStep" style="stroke: #A80036; stroke-width: 1.5;" width="128" x="217" y="138.6406"/><ellipse cx="232" cy="154.6406" fill="#ADD1B2" rx="11" ry="11" style="stroke: #A80036; stroke-width: 1.0;"/><path d="M234,151.1406 Q234.2031,150.6406 234.4375,150.3906 Q234.6719,150.1406 234.9375,150.1406 Q235.4063,150.1406 235.7031,150.4219 Q236,150.7031 236,151.3594 L236,152.9219 Q236,153.5781 235.7188,153.8594 Q235.4375,154.1406 235,154.1406 Q234.6094,154.1406 234.3594,153.9688 Q234.1094,153.7969 234,153.3438 Q233.9531,153.0313 233.7813,152.8594 Q233.4688,152.5313 232.9063,152.3359 Q232.3438,152.1406 231.7813,152.1406 Q231.0781,152.1406 230.4922,152.4219 Q229.9063,152.7031 229.4531,153.3281 Q229,153.9531 229,154.8125 L229,155.7344 Q229,156.7656 229.8438,157.4531 Q230.6875,158.1406 232.1875,158.1406 Q233.0781,158.1406 233.7031,157.9375 Q234.0625,157.8281 234.4688,157.4688 Q234.7344,157.2656 234.875,157.2031 Q235.0156,157.1406 235.1875,157.1406 Q235.5156,157.1406 235.7578,157.3984 Q236,157.6563 236,158.0156 Q236,158.3594 235.6563,158.7656 Q235.1563,159.3594 234.3594,159.6875 Q233.3125,160.1406 232.0313,160.1406 Q230.5313,160.1406 229.3281,159.5469 Q228.3594,159.0781 227.6797,158.0625 Q227,157.0469 227,155.8438 L227,154.75 Q227,153.5 227.6016,152.4063 Q228.2031,151.3125 229.2578,150.7266 Q230.3125,150.1406 231.5,150.1406 Q232.2188,150.1406 232.8438,150.3906 Q233.4688,150.6406 234,151.1406 Z "/><text fill="#000000" font-family="sans-serif" font-size="12" lengthAdjust="spacingAndGlyphs" textLength="96" x="246" y="159.5508">ComputationStep</text><line style="stroke: #A80036; stroke-width: 1.5;" x1="218" x2="344" y1="170.6406" y2="170.6406"/><line style="stroke: #A80036; stroke-width: 1.5;" x1="218" x2="344" y1="178.6406" y2="178.6406"/><!--class ComputationStepPackage--><rect fill="#FEFECE" filter="url(#f1simdn9clyzj0)" height="48" id="ComputationStepPackage" style="stroke: #A80036; stroke-width: 1.5;" width="176" x="6" y="138.6406"/><ellipse cx="21" cy="154.6406" fill="#ADD1B2" rx="11" ry="11" style="stroke: #A80036; stroke-width: 1.0;"/><path d="M23,151.1406 Q23.2031,150.6406 23.4375,150.3906 Q23.6719,150.1406 23.9375,150.1406 Q24.4063,150.1406 24.7031,150.4219 Q25,150.7031 25,151.3594 L25,152.9219 Q25,153.5781 24.7188,153.8594 Q24.4375,154.1406 24,154.1406 Q23.6094,154.1406 23.3594,153.9688 Q23.1094,153.7969 23,153.3438 Q22.9531,153.0313 22.7813,152.8594 Q22.4688,152.5313 21.9063,152.3359 Q21.3438,152.1406 20.7813,152.1406 Q20.0781,152.1406 19.4922,152.4219 Q18.9063,152.7031 18.4531,153.3281 Q18,153.9531 18,154.8125 L18,155.7344 Q18,156.7656 18.8438,157.4531 Q19.6875,158.1406 21.1875,158.1406 Q22.0781,158.1406 22.7031,157.9375 Q23.0625,157.8281 23.4688,157.4688 Q23.7344,157.2656 23.875,157.2031 Q24.0156,157.1406 24.1875,157.1406 Q24.5156,157.1406 24.7578,157.3984 Q25,157.6563 25,158.0156 Q25,158.3594 24.6563,158.7656 Q24.1563,159.3594 23.3594,159.6875 Q22.3125,160.1406 21.0313,160.1406 Q19.5313,160.1406 18.3281,159.5469 Q17.3594,159.0781 16.6797,158.0625 Q16,157.0469 16,155.8438 L16,154.75 Q16,153.5 16.6016,152.4063 Q17.2031,151.3125 18.2578,150.7266 Q19.3125,150.1406 20.5,150.1406 Q21.2188,150.1406 21.8438,150.3906 Q22.4688,150.6406 23,151.1406 Z "/><text fill="#000000" font-family="sans-serif" font-size="12" lengthAdjust="spacingAndGlyphs" textLength="144" x="35" y="159.5508">ComputationStepPackage</text><line style="stroke: #A80036; stroke-width: 1.5;" x1="7" x2="181" y1="170.6406" y2="170.6406"/><line style="stroke: #A80036; stroke-width: 1.5;" x1="7" x2="181" y1="178.6406" y2="178.6406"/><!--class ComputationStepParam--><rect fill="#FEFECE" filter="url(#f1simdn9clyzj0)" height="48" id="ComputationStepParam" style="stroke: #A80036; stroke-width: 1.5;" width="165" x="181.5" y="246.6406"/><ellipse cx="196.5" cy="262.6406" fill="#ADD1B2" rx="11" ry="11" style="stroke: #A80036; stroke-width: 1.0;"/><path d="M198.5,259.1406 Q198.7031,258.6406 198.9375,258.3906 Q199.1719,258.1406 199.4375,258.1406 Q199.9063,258.1406 200.2031,258.4219 Q200.5,258.7031 200.5,259.3594 L200.5,260.9219 Q200.5,261.5781 200.2188,261.8594 Q199.9375,262.1406 199.5,262.1406 Q199.1094,262.1406 198.8594,261.9688 Q198.6094,261.7969 198.5,261.3438 Q198.4531,261.0313 198.2813,260.8594 Q197.9688,260.5313 197.4063,260.3359 Q196.8438,260.1406 196.2813,260.1406 Q195.5781,260.1406 194.9922,260.4219 Q194.4063,260.7031 193.9531,261.3281 Q193.5,261.9531 193.5,262.8125 L193.5,263.7344 Q193.5,264.7656 194.3438,265.4531 Q195.1875,266.1406 196.6875,266.1406 Q197.5781,266.1406 198.2031,265.9375 Q198.5625,265.8281 198.9688,265.4688 Q199.2344,265.2656 199.375,265.2031 Q199.5156,265.1406 199.6875,265.1406 Q200.0156,265.1406 200.2578,265.3984 Q200.5,265.6563 200.5,266.0156 Q200.5,266.3594 200.1563,266.7656 Q199.6563,267.3594 198.8594,267.6875 Q197.8125,268.1406 196.5313,268.1406 Q195.0313,268.1406 193.8281,267.5469 Q192.8594,267.0781 192.1797,266.0625 Q191.5,265.0469 191.5,263.8438 L191.5,262.75 Q191.5,261.5 192.1016,260.4063 Q192.7031,259.3125 193.7578,258.7266 Q194.8125,258.1406 196,258.1406 Q196.7188,258.1406 197.3438,258.3906 Q197.9688,258.6406 198.5,259.1406 Z "/><text fill="#000000" font-family="sans-serif" font-size="12" lengthAdjust="spacingAndGlyphs" textLength="133" x="210.5" y="267.5508">ComputationStepParam</text><line style="stroke: #A80036; stroke-width: 1.5;" x1="182.5" x2="345.5" y1="278.6406" y2="278.6406"/><line style="stroke: #A80036; stroke-width: 1.5;" x1="182.5" x2="345.5" y1="286.6406" y2="286.6406"/><!--class Computation--><rect fill="#FEFECE" filter="url(#f1simdn9clyzj0)" height="48" id="Computation" style="stroke: #A80036; stroke-width: 1.5;" width="103" x="187.5" y="30.6406"/><ellipse cx="202.5" cy="46.6406" fill="#ADD1B2" rx="11" ry="11" style="stroke: #A80036; stroke-width: 1.0;"/><path d="M204.5,43.1406 Q204.7031,42.6406 204.9375,42.3906 Q205.1719,42.1406 205.4375,42.1406 Q205.9063,42.1406 206.2031,42.4219 Q206.5,42.7031 206.5,43.3594 L206.5,44.9219 Q206.5,45.5781 206.2188,45.8594 Q205.9375,46.1406 205.5,46.1406 Q205.1094,46.1406 204.8594,45.9688 Q204.6094,45.7969 204.5,45.3438 Q204.4531,45.0313 204.2813,44.8594 Q203.9688,44.5313 203.4063,44.3359 Q202.8438,44.1406 202.2813,44.1406 Q201.5781,44.1406 200.9922,44.4219 Q200.4063,44.7031 199.9531,45.3281 Q199.5,45.9531 199.5,46.8125 L199.5,47.7344 Q199.5,48.7656 200.3438,49.4531 Q201.1875,50.1406 202.6875,50.1406 Q203.5781,50.1406 204.2031,49.9375 Q204.5625,49.8281 204.9688,49.4688 Q205.2344,49.2656 205.375,49.2031 Q205.5156,49.1406 205.6875,49.1406 Q206.0156,49.1406 206.2578,49.3984 Q206.5,49.6563 206.5,50.0156 Q206.5,50.3594 206.1563,50.7656 Q205.6563,51.3594 204.8594,51.6875 Q203.8125,52.1406 202.5313,52.1406 Q201.0313,52.1406 199.8281,51.5469 Q198.8594,51.0781 198.1797,50.0625 Q197.5,49.0469 197.5,47.8438 L197.5,46.75 Q197.5,45.5 198.1016,44.4063 Q198.7031,43.3125 199.7578,42.7266 Q200.8125,42.1406 202,42.1406 Q202.7188,42.1406 203.3438,42.3906 Q203.9688,42.6406 204.5,43.1406 Z "/><text fill="#000000" font-family="sans-serif" font-size="12" lengthAdjust="spacingAndGlyphs" textLength="71" x="216.5" y="51.5508">Computation</text><line style="stroke: #A80036; stroke-width: 1.5;" x1="188.5" x2="289.5" y1="62.6406" y2="62.6406"/><line style="stroke: #A80036; stroke-width: 1.5;" x1="188.5" x2="289.5" y1="70.6406" y2="70.6406"/><!--class Machine--><rect fill="#FEFECE" filter="url(#f1simdn9clyzj0)" height="48" id="Machine" style="stroke: #A80036; stroke-width: 1.5;" width="78" x="636" y="30.6406"/><ellipse cx="651" cy="46.6406" fill="#ADD1B2" rx="11" ry="11" style="stroke: #A80036; stroke-width: 1.0;"/><path d="M653,43.1406 Q653.2031,42.6406 653.4375,42.3906 Q653.6719,42.1406 653.9375,42.1406 Q654.4063,42.1406 654.7031,42.4219 Q655,42.7031 655,43.3594 L655,44.9219 Q655,45.5781 654.7188,45.8594 Q654.4375,46.1406 654,46.1406 Q653.6094,46.1406 653.3594,45.9688 Q653.1094,45.7969 653,45.3438 Q652.9531,45.0313 652.7813,44.8594 Q652.4688,44.5313 651.9063,44.3359 Q651.3438,44.1406 650.7813,44.1406 Q650.0781,44.1406 649.4922,44.4219 Q648.9063,44.7031 648.4531,45.3281 Q648,45.9531 648,46.8125 L648,47.7344 Q648,48.7656 648.8438,49.4531 Q649.6875,50.1406 651.1875,50.1406 Q652.0781,50.1406 652.7031,49.9375 Q653.0625,49.8281 653.4688,49.4688 Q653.7344,49.2656 653.875,49.2031 Q654.0156,49.1406 654.1875,49.1406 Q654.5156,49.1406 654.7578,49.3984 Q655,49.6563 655,50.0156 Q655,50.3594 654.6563,50.7656 Q654.1563,51.3594 653.3594,51.6875 Q652.3125,52.1406 651.0313,52.1406 Q649.5313,52.1406 648.3281,51.5469 Q647.3594,51.0781 646.6797,50.0625 Q646,49.0469 646,47.8438 L646,46.75 Q646,45.5 646.6016,44.4063 Q647.2031,43.3125 648.2578,42.7266 Q649.3125,42.1406 650.5,42.1406 Q651.2188,42.1406 651.8438,42.3906 Q652.4688,42.6406 653,43.1406 Z "/><text fill="#000000" font-family="sans-serif" font-size="12" lengthAdjust="spacingAndGlyphs" textLength="46" x="665" y="51.5508">Machine</text><line style="stroke: #A80036; stroke-width: 1.5;" x1="637" x2="713" y1="62.6406" y2="62.6406"/><line style="stroke: #A80036; stroke-width: 1.5;" x1="637" x2="713" y1="70.6406" y2="70.6406"/><!--class MachineMetrics--><rect fill="#FEFECE" filter="url(#f1simdn9clyzj0)" height="48" id="MachineMetrics" style="stroke: #A80036; stroke-width: 1.5;" width="117" x="616.5" y="138.6406"/><ellipse cx="631.5" cy="154.6406" fill="#ADD1B2" rx="11" ry="11" style="stroke: #A80036; stroke-width: 1.0;"/><path d="M633.5,151.1406 Q633.7031,150.6406 633.9375,150.3906 Q634.1719,150.1406 634.4375,150.1406 Q634.9063,150.1406 635.2031,150.4219 Q635.5,150.7031 635.5,151.3594 L635.5,152.9219 Q635.5,153.5781 635.2188,153.8594 Q634.9375,154.1406 634.5,154.1406 Q634.1094,154.1406 633.8594,153.9688 Q633.6094,153.7969 633.5,153.3438 Q633.4531,153.0313 633.2813,152.8594 Q632.9688,152.5313 632.4063,152.3359 Q631.8438,152.1406 631.2813,152.1406 Q630.5781,152.1406 629.9922,152.4219 Q629.4063,152.7031 628.9531,153.3281 Q628.5,153.9531 628.5,154.8125 L628.5,155.7344 Q628.5,156.7656 629.3438,157.4531 Q630.1875,158.1406 631.6875,158.1406 Q632.5781,158.1406 633.2031,157.9375 Q633.5625,157.8281 633.9688,157.4688 Q634.2344,157.2656 634.375,157.2031 Q634.5156,157.1406 634.6875,157.1406 Q635.0156,157.1406 635.2578,157.3984 Q635.5,157.6563 635.5,158.0156 Q635.5,158.3594 635.1563,158.7656 Q634.6563,159.3594 633.8594,159.6875 Q632.8125,160.1406 631.5313,160.1406 Q630.0313,160.1406 628.8281,159.5469 Q627.8594,159.0781 627.1797,158.0625 Q626.5,157.0469 626.5,155.8438 L626.5,154.75 Q626.5,153.5 627.1016,152.4063 Q627.7031,151.3125 628.7578,150.7266 Q629.8125,150.1406 631,150.1406 Q631.7188,150.1406 632.3438,150.3906 Q632.9688,150.6406 633.5,151.1406 Z "/><text fill="#000000" font-family="sans-serif" font-size="12" lengthAdjust="spacingAndGlyphs" textLength="85" x="645.5" y="159.5508">MachineMetrics</text><line style="stroke: #A80036; stroke-width: 1.5;" x1="617.5" x2="732.5" y1="170.6406" y2="170.6406"/><line style="stroke: #A80036; stroke-width: 1.5;" x1="617.5" x2="732.5" y1="178.6406" y2="178.6406"/><!--class MachineMetricValue--><rect fill="#FEFECE" filter="url(#f1simdn9clyzj0)" height="48" id="MachineMetricValue" style="stroke: #A80036; stroke-width: 1.5;" width="141" x="604.5" y="246.6406"/><ellipse cx="619.5" cy="262.6406" fill="#ADD1B2" rx="11" ry="11" style="stroke: #A80036; stroke-width: 1.0;"/><path d="M621.5,259.1406 Q621.7031,258.6406 621.9375,258.3906 Q622.1719,258.1406 622.4375,258.1406 Q622.9063,258.1406 623.2031,258.4219 Q623.5,258.7031 623.5,259.3594 L623.5,260.9219 Q623.5,261.5781 623.2188,261.8594 Q622.9375,262.1406 622.5,262.1406 Q622.1094,262.1406 621.8594,261.9688 Q621.6094,261.7969 621.5,261.3438 Q621.4531,261.0313 621.2813,260.8594 Q620.9688,260.5313 620.4063,260.3359 Q619.8438,260.1406 619.2813,260.1406 Q618.5781,260.1406 617.9922,260.4219 Q617.4063,260.7031 616.9531,261.3281 Q616.5,261.9531 616.5,262.8125 L616.5,263.7344 Q616.5,264.7656 617.3438,265.4531 Q618.1875,266.1406 619.6875,266.1406 Q620.5781,266.1406 621.2031,265.9375 Q621.5625,265.8281 621.9688,265.4688 Q622.2344,265.2656 622.375,265.2031 Q622.5156,265.1406 622.6875,265.1406 Q623.0156,265.1406 623.2578,265.3984 Q623.5,265.6563 623.5,266.0156 Q623.5,266.3594 623.1563,266.7656 Q622.6563,267.3594 621.8594,267.6875 Q620.8125,268.1406 619.5313,268.1406 Q618.0313,268.1406 616.8281,267.5469 Q615.8594,267.0781 615.1797,266.0625 Q614.5,265.0469 614.5,263.8438 L614.5,262.75 Q614.5,261.5 615.1016,260.4063 Q615.7031,259.3125 616.7578,258.7266 Q617.8125,258.1406 619,258.1406 Q619.7188,258.1406 620.3438,258.3906 Q620.9688,258.6406 621.5,259.1406 Z "/><text fill="#000000" font-family="sans-serif" font-size="12" lengthAdjust="spacingAndGlyphs" textLength="109" x="633.5" y="267.5508">MachineMetricValue</text><line style="stroke: #A80036; stroke-width: 1.5;" x1="605.5" x2="744.5" y1="278.6406" y2="278.6406"/><line style="stroke: #A80036; stroke-width: 1.5;" x1="605.5" x2="744.5" y1="286.6406" y2="286.6406"/><!--class Topic--><rect fill="#FEFECE" filter="url(#f1simdn9clyzj0)" height="48" id="Topic" style="stroke: #A80036; stroke-width: 1.5;" width="62" x="749" y="30.6406"/><ellipse cx="764" cy="46.6406" fill="#ADD1B2" rx="11" ry="11" style="stroke: #A80036; stroke-width: 1.0;"/><path d="M766,43.1406 Q766.2031,42.6406 766.4375,42.3906 Q766.6719,42.1406 766.9375,42.1406 Q767.4063,42.1406 767.7031,42.4219 Q768,42.7031 768,43.3594 L768,44.9219 Q768,45.5781 767.7188,45.8594 Q767.4375,46.1406 767,46.1406 Q766.6094,46.1406 766.3594,45.9688 Q766.1094,45.7969 766,45.3438 Q765.9531,45.0313 765.7813,44.8594 Q765.4688,44.5313 764.9063,44.3359 Q764.3438,44.1406 763.7813,44.1406 Q763.0781,44.1406 762.4922,44.4219 Q761.9063,44.7031 761.4531,45.3281 Q761,45.9531 761,46.8125 L761,47.7344 Q761,48.7656 761.8438,49.4531 Q762.6875,50.1406 764.1875,50.1406 Q765.0781,50.1406 765.7031,49.9375 Q766.0625,49.8281 766.4688,49.4688 Q766.7344,49.2656 766.875,49.2031 Q767.0156,49.1406 767.1875,49.1406 Q767.5156,49.1406 767.7578,49.3984 Q768,49.6563 768,50.0156 Q768,50.3594 767.6563,50.7656 Q767.1563,51.3594 766.3594,51.6875 Q765.3125,52.1406 764.0313,52.1406 Q762.5313,52.1406 761.3281,51.5469 Q760.3594,51.0781 759.6797,50.0625 Q759,49.0469 759,47.8438 L759,46.75 Q759,45.5 759.6016,44.4063 Q760.2031,43.3125 761.2578,42.7266 Q762.3125,42.1406 763.5,42.1406 Q764.2188,42.1406 764.8438,42.3906 Q765.4688,42.6406 766,43.1406 Z "/><text fill="#000000" font-family="sans-serif" font-size="12" lengthAdjust="spacingAndGlyphs" textLength="30" x="778" y="51.5508">Topic</text><line style="stroke: #A80036; stroke-width: 1.5;" x1="750" x2="810" y1="62.6406" y2="62.6406"/><line style="stroke: #A80036; stroke-width: 1.5;" x1="750" x2="810" y1="70.6406" y2="70.6406"/><!--link ComputationTask to ComputationApplication--><path d="M511.549,90.8126 C525.024,117.3666 537.924,154.5836 527,186.6406 C519.194,209.5478 502.224,231.0558 487.72,246.4354 " fill="none" id="ComputationTask-ComputationApplication" style="stroke: #A80036; stroke-width: 1.0;"/><polygon fill="#A80036" points="505.196,79.0606,504.531,86.241,510.9032,89.6166,511.5682,82.4362,505.196,79.0606" style="stroke: #A80036; stroke-width: 1.0;"/><!--link ComputationTask to ComputationInput--><path d="M474.971,91.0426 C468.362,106.6096 460.784,124.4616 454.901,138.3186 " fill="none" id="ComputationTask-ComputationInput" style="stroke: #A80036; stroke-width: 1.0;"/><polygon fill="#FFFFFF" points="480.236,78.6406,474.2095,82.6006,475.547,89.6866,481.5735,85.7266,480.236,78.6406" style="stroke: #A80036; stroke-width: 1.0;"/><!--link ComputationInput to ComputationApplication--><path d="M448.906,186.6406 C451.623,202.6436 455.264,224.0867 458.165,241.1686 " fill="none" id="ComputationInput-ComputationApplication" style="stroke: #A80036; stroke-width: 1.0; stroke-dasharray: 7.0,7.0;"/><polygon fill="#A80036" points="459.04,246.319,461.4769,236.7764,458.203,241.3896,453.5898,238.1157,459.04,246.319" style="stroke: #A80036; stroke-width: 1.0;"/><!--link ComputationStepPackage to ComputationStep--><path d="M195.07,162.6406 C202.32,162.6406 209.569,162.6406 216.819,162.6406 " fill="none" id="ComputationStepPackage-ComputationStep" style="stroke: #A80036; stroke-width: 1.0;"/><polygon fill="#A80036" points="182.021,162.6406,188.021,166.6406,194.021,162.6406,188.021,158.6406,182.021,162.6406" style="stroke: #A80036; stroke-width: 1.0;"/><text fill="#000000" font-family="sans-serif" font-size="13" lengthAdjust="spacingAndGlyphs" textLength="20" x="189.9907" y="159.2614">1..*</text><!--link ComputationStep to ComputationStepParam--><path d="M275.247,199.5099 C272.769,214.966 269.94,232.6001 267.74,246.319 " fill="none" id="ComputationStep-ComputationStepParam" style="stroke: #A80036; stroke-width: 1.0;"/><polygon fill="#FFFFFF" points="277.311,186.6406,272.4113,191.9315,275.4107,198.4892,280.3104,193.1983,277.311,186.6406" style="stroke: #A80036; stroke-width: 1.0;"/><text fill="#000000" font-family="sans-serif" font-size="13" lengthAdjust="spacingAndGlyphs" textLength="20" x="246.2141" y="235.9786">0..*</text><!--link ComputationStep to ComputationApplication--><path d="M320.491,186.6406 C349.488,203.5293 388.889,226.4771 418.913,243.9633 " fill="none" id="ComputationStep-ComputationApplication" style="stroke: #A80036; stroke-width: 1.0; stroke-dasharray: 7.0,7.0;"/><polygon fill="#A80036" points="423.272,246.5023,417.5071,238.517,418.9511,243.9864,413.4816,245.4304,423.272,246.5023" style="stroke: #A80036; stroke-width: 1.0;"/><!--link Computation to ComputationStepPackage--><path d="M196.821,86.4746 C174.095,103.0876 146.522,123.2456 125.651,138.5026 " fill="none" id="Computation-ComputationStepPackage" style="stroke: #A80036; stroke-width: 1.0;"/><polygon fill="#A80036" points="207.537,78.6406,200.3326,78.9525,197.8496,85.7226,205.0539,85.4107,207.537,78.6406" style="stroke: #A80036; stroke-width: 1.0;"/><text fill="#000000" font-family="sans-serif" font-size="13" lengthAdjust="spacingAndGlyphs" textLength="7" x="125.8647" y="127.8074">1</text><!--link Computation to ComputationInput--><path d="M295.429,84.6766 C328.348,101.6156 369.305,122.6906 400.033,138.5026 " fill="none" id="Computation-ComputationInput" style="stroke: #A80036; stroke-width: 1.0;"/><polygon fill="#A80036" points="283.699,78.6406,287.2042,84.9425,294.3694,84.1308,290.8643,77.8289,283.699,78.6406" style="stroke: #A80036; stroke-width: 1.0;"/><text fill="#000000" font-family="sans-serif" font-size="13" lengthAdjust="spacingAndGlyphs" textLength="7" x="380.6133" y="127.8074">1</text><!--link Machine to MachineMetrics--><path d="M675,91.9786 C675,107.3216 675,124.7386 675,138.3186 " fill="none" id="Machine-MachineMetrics" style="stroke: #A80036; stroke-width: 1.0;"/><polygon fill="#FFFFFF" points="675,78.6406,671,84.6406,675,90.6406,679,84.6406,675,78.6406" style="stroke: #A80036; stroke-width: 1.0;"/><!--link MachineMetrics to MachineMetricValue--><path d="M675,199.9789 C675,215.3219 675,232.7386 675,246.319 " fill="none" id="MachineMetrics-MachineMetricValue" style="stroke: #A80036; stroke-width: 1.0;"/><polygon fill="#FFFFFF" points="675,186.6406,671,192.6406,675,198.6406,679,192.6406,675,186.6406" style="stroke: #A80036; stroke-width: 1.0;"/><!--
@startuml
    title Model

    class ComputationTask
    class ComputationApplication
    class ComputationInput
    class ComputationStep
    class ComputationStepPackage
    class ComputationStepParam
    class Computation
    class Machine
    class MachineMetrics
    class MachineMetricValue
    class Topic

    ComputationTask *- - ComputationApplication
    ComputationTask o- - ComputationInput
    ComputationInput ..> ComputationApplication
    ComputationStepPackage *- "1..*" ComputationStep
    ComputationStep o- - "0..*" ComputationStepParam
    ComputationStep ..> ComputationApplication
    Computation *- - "1"ComputationStepPackage
    Computation *- - "1" ComputationInput
    Machine o- - MachineMetrics
    MachineMetrics o- - MachineMetricValue
@enduml

PlantUML version 1.2018.11(Sat Sep 22 18:43:53 CEST 2018)
(GPL source distribution)
Java Runtime: OpenJDK Runtime Environment
JVM: OpenJDK 64-Bit Server VM
Java Version: 1.8.0_152-release-1248-b8
Operating System: Windows 10
OS Version: 10.0
Default Encoding: Cp1250
Language: pl
Country: PL
--></g></svg>