<?xml version="1.0" encoding="UTF-8" standalone="no"?><svg xmlns="http://www.w3.org/2000/svg" xmlns:xlink="http://www.w3.org/1999/xlink" contentScriptType="application/ecmascript" contentStyleType="text/css" height="1449px" preserveAspectRatio="none" style="width:862px;height:1449px;" version="1.1" viewBox="0 0 862 1449" width="862px" zoomAndPan="magnify"><defs><filter height="300%" id="ftpcrsuplo3y7" width="300%" x="-1" y="-1"><feGaussianBlur result="blurOut" stdDeviation="2.0"/><feColorMatrix in="blurOut" result="blurOut2" type="matrix" values="0 0 0 0 0 0 0 0 0 0 0 0 0 0 0 0 0 0 .4 0"/><feOffset dx="4.0" dy="4.0" in="blurOut2" result="blurOut3"/><feBlend in="SourceGraphic" in2="blurOut3" mode="normal"/></filter></defs><g><!--entity AU--><ellipse cx="261" cy="511" fill="#FEFECE" filter="url(#ftpcrsuplo3y7)" rx="8" ry="8" style="stroke: #A80036; stroke-width: 2.0;"/><path d="M261,519 L261,546 M248,527 L274,527 M261,546 L248,561 M261,546 L274,561 " fill="none" filter="url(#ftpcrsuplo3y7)" style="stroke: #A80036; stroke-width: 2.0;"/><text fill="#000000" font-family="sans-serif" font-size="14" lengthAdjust="spacingAndGlyphs" textLength="58" x="232" y="582.5332">App User</text><!--entity AD--><ellipse cx="171" cy="18" fill="#FEFECE" filter="url(#ftpcrsuplo3y7)" rx="8" ry="8" style="stroke: #A80036; stroke-width: 2.0;"/><path d="M171,26 L171,53 M158,34 L184,34 M171,53 L158,68 M171,53 L184,68 " fill="none" filter="url(#ftpcrsuplo3y7)" style="stroke: #A80036; stroke-width: 2.0;"/><text fill="#000000" font-family="sans-serif" font-size="14" lengthAdjust="spacingAndGlyphs" textLength="65" x="138.5" y="89.5332">Developer</text><!--entity AS--><ellipse cx="569" cy="1136" fill="#FEFECE" filter="url(#ftpcrsuplo3y7)" rx="8" ry="8" style="stroke: #A80036; stroke-width: 2.0;"/><path d="M569,1144 L569,1171 M556,1152 L582,1152 M569,1171 L556,1186 M569,1171 L582,1186 " fill="none" filter="url(#ftpcrsuplo3y7)" style="stroke: #A80036; stroke-width: 2.0;"/><text fill="#000000" font-family="sans-serif" font-size="14" lengthAdjust="spacingAndGlyphs" textLength="52" x="543" y="1207.5332">Supplier</text><!--entity AA--><ellipse cx="367" cy="511" fill="#FEFECE" filter="url(#ftpcrsuplo3y7)" rx="8" ry="8" style="stroke: #A80036; stroke-width: 2.0;"/><path d="M367,519 L367,546 M354,527 L380,527 M367,546 L354,561 M367,546 L380,561 " fill="none" filter="url(#ftpcrsuplo3y7)" style="stroke: #A80036; stroke-width: 2.0;"/><text fill="#000000" font-family="sans-serif" font-size="14" lengthAdjust="spacingAndGlyphs" textLength="83" x="325.5" y="582.5332">Administrator</text><!--entity CLa--><rect fill="#FEFECE" filter="url(#ftpcrsuplo3y7)" height="47.6094" style="stroke: #A80036; stroke-width: 1.5;" width="100" x="44" y="519.5"/><rect fill="#FEFECE" height="10" style="stroke: #A80036; stroke-width: 1.5;" width="15" x="124" y="524.5"/><rect fill="#FEFECE" height="2" style="stroke: #A80036; stroke-width: 1.5;" width="4" x="122" y="526.5"/><rect fill="#FEFECE" height="2" style="stroke: #A80036; stroke-width: 1.5;" width="4" x="122" y="530.5"/><text fill="#000000" font-family="sans-serif" font-size="14" lengthAdjust="spacingAndGlyphs" textLength="60" x="59" y="554.0332">Launcher</text><!--entity CLi--><rect fill="#FEFECE" filter="url(#ftpcrsuplo3y7)" height="47.6094" style="stroke: #A80036; stroke-width: 1.5;" width="84" x="129" y="273"/><rect fill="#FEFECE" height="10" style="stroke: #A80036; stroke-width: 1.5;" width="15" x="193" y="278"/><rect fill="#FEFECE" height="2" style="stroke: #A80036; stroke-width: 1.5;" width="4" x="191" y="280"/><rect fill="#FEFECE" height="2" style="stroke: #A80036; stroke-width: 1.5;" width="4" x="191" y="284"/><text fill="#000000" font-family="sans-serif" font-size="14" lengthAdjust="spacingAndGlyphs" textLength="44" x="144" y="307.5332">Library</text><!--entity CLo--><rect fill="#FEFECE" filter="url(#ftpcrsuplo3y7)" height="47.6094" style="stroke: #A80036; stroke-width: 1.5;" width="85" x="23.5" y="772"/><rect fill="#FEFECE" height="10" style="stroke: #A80036; stroke-width: 1.5;" width="15" x="88.5" y="777"/><rect fill="#FEFECE" height="2" style="stroke: #A80036; stroke-width: 1.5;" width="4" x="86.5" y="779"/><rect fill="#FEFECE" height="2" style="stroke: #A80036; stroke-width: 1.5;" width="4" x="86.5" y="783"/><text fill="#000000" font-family="sans-serif" font-size="14" lengthAdjust="spacingAndGlyphs" textLength="45" x="38.5" y="806.5332">Logger</text><!--entity CM--><rect fill="#FEFECE" filter="url(#ftpcrsuplo3y7)" height="47.6094" style="stroke: #A80036; stroke-width: 1.5;" width="153" x="316.5" y="892"/><rect fill="#FEFECE" height="10" style="stroke: #A80036; stroke-width: 1.5;" width="15" x="449.5" y="897"/><rect fill="#FEFECE" height="2" style="stroke: #A80036; stroke-width: 1.5;" width="4" x="447.5" y="899"/><rect fill="#FEFECE" height="2" style="stroke: #A80036; stroke-width: 1.5;" width="4" x="447.5" y="903"/><text fill="#000000" font-family="sans-serif" font-size="14" lengthAdjust="spacingAndGlyphs" textLength="113" x="331.5" y="926.5332">Machine Manager</text><!--entity CP--><rect fill="#FEFECE" filter="url(#ftpcrsuplo3y7)" height="47.6094" style="stroke: #A80036; stroke-width: 1.5;" width="102" x="453" y="273"/><rect fill="#FEFECE" height="10" style="stroke: #A80036; stroke-width: 1.5;" width="15" x="535" y="278"/><rect fill="#FEFECE" height="2" style="stroke: #A80036; stroke-width: 1.5;" width="4" x="533" y="280"/><rect fill="#FEFECE" height="2" style="stroke: #A80036; stroke-width: 1.5;" width="4" x="533" y="284"/><text fill="#000000" font-family="sans-serif" font-size="14" lengthAdjust="spacingAndGlyphs" textLength="62" x="468" y="307.5332">Payments</text><!--entity CMa--><rect fill="#FEFECE" filter="url(#ftpcrsuplo3y7)" height="47.6094" style="stroke: #A80036; stroke-width: 1.5;" width="93" x="344.5" y="1144.5"/><rect fill="#FEFECE" height="10" style="stroke: #A80036; stroke-width: 1.5;" width="15" x="417.5" y="1149.5"/><rect fill="#FEFECE" height="2" style="stroke: #A80036; stroke-width: 1.5;" width="4" x="415.5" y="1151.5"/><rect fill="#FEFECE" height="2" style="stroke: #A80036; stroke-width: 1.5;" width="4" x="415.5" y="1155.5"/><text fill="#000000" font-family="sans-serif" font-size="14" lengthAdjust="spacingAndGlyphs" textLength="53" x="359.5" y="1179.0332">Machine</text><!--entity CA--><rect fill="#FEFECE" filter="url(#ftpcrsuplo3y7)" height="47.6094" style="stroke: #A80036; stroke-width: 1.5;" width="126" x="239" y="26.5"/><rect fill="#FEFECE" height="10" style="stroke: #A80036; stroke-width: 1.5;" width="15" x="345" y="31.5"/><rect fill="#FEFECE" height="2" style="stroke: #A80036; stroke-width: 1.5;" width="4" x="343" y="33.5"/><rect fill="#FEFECE" height="2" style="stroke: #A80036; stroke-width: 1.5;" width="4" x="343" y="37.5"/><text fill="#000000" font-family="sans-serif" font-size="14" lengthAdjust="spacingAndGlyphs" textLength="86" x="254" y="61.0332">OAuth Server</text><!--entity CQ--><rect fill="#FEFECE" filter="url(#ftpcrsuplo3y7)" height="47.6094" style="stroke: #A80036; stroke-width: 1.5;" width="83" x="555.5" y="1391"/><rect fill="#FEFECE" height="10" style="stroke: #A80036; stroke-width: 1.5;" width="15" x="618.5" y="1396"/><rect fill="#FEFECE" height="2" style="stroke: #A80036; stroke-width: 1.5;" width="4" x="616.5" y="1398"/><rect fill="#FEFECE" height="2" style="stroke: #A80036; stroke-width: 1.5;" width="4" x="616.5" y="1402"/><text fill="#000000" font-family="sans-serif" font-size="14" lengthAdjust="spacingAndGlyphs" textLength="43" x="570.5" y="1425.5332">Queue</text><!--entity ICLoCLa--><ellipse cx="92" cy="676" fill="#FEFECE" filter="url(#ftpcrsuplo3y7)" rx="8" ry="8" style="stroke: #A80036; stroke-width: 2.0;"/><text fill="#000000" font-family="sans-serif" font-size="14" lengthAdjust="spacingAndGlyphs" textLength="107" x="38.5" y="707.5332">/logger/launcher/</text><!--entity ICLoCMa--><ellipse cx="66" cy="916" fill="#FEFECE" filter="url(#ftpcrsuplo3y7)" rx="8" ry="8" style="stroke: #A80036; stroke-width: 2.0;"/><text fill="#000000" font-family="sans-serif" font-size="14" lengthAdjust="spacingAndGlyphs" textLength="105" x="13.5" y="947.5332">/logger/machine/</text><!--entity ICMCMa--><ellipse cx="391" cy="1036" fill="#FEFECE" filter="url(#ftpcrsuplo3y7)" rx="8" ry="8" style="stroke: #A80036; stroke-width: 2.0;"/><text fill="#000000" font-family="sans-serif" font-size="14" lengthAdjust="spacingAndGlyphs" textLength="186" x="298" y="1067.5332">/machine-manager/machines/</text><!--entity ICLiAA--><ellipse cx="270" cy="411" fill="#FEFECE" filter="url(#ftpcrsuplo3y7)" rx="8" ry="8" style="stroke: #A80036; stroke-width: 2.0;"/><text fill="#000000" font-family="sans-serif" font-size="14" lengthAdjust="spacingAndGlyphs" textLength="89" x="225.5" y="442.5332">/library/admin/</text><!--entity ICMAA--><ellipse cx="362" cy="676" fill="#FEFECE" filter="url(#ftpcrsuplo3y7)" rx="8" ry="8" style="stroke: #A80036; stroke-width: 2.0;"/><text fill="#000000" font-family="sans-serif" font-size="14" lengthAdjust="spacingAndGlyphs" textLength="164" x="280" y="707.5332">/machine-manager/admin/</text><!--entity ICMCLa--><ellipse cx="242" cy="796" fill="#FEFECE" filter="url(#ftpcrsuplo3y7)" rx="8" ry="8" style="stroke: #A80036; stroke-width: 2.0;"/><text fill="#000000" font-family="sans-serif" font-size="14" lengthAdjust="spacingAndGlyphs" textLength="181" x="151.5" y="827.5332">/machine-manager/launcher/</text><!--entity ICLiCLa--><ellipse cx="97" cy="411" fill="#FEFECE" filter="url(#ftpcrsuplo3y7)" rx="8" ry="8" style="stroke: #A80036; stroke-width: 2.0;"/><text fill="#000000" font-family="sans-serif" font-size="14" lengthAdjust="spacingAndGlyphs" textLength="106" x="44" y="442.5332">/library/launcher/</text><!--entity ICPCLa--><ellipse cx="442" cy="411" fill="#FEFECE" filter="url(#ftpcrsuplo3y7)" rx="8" ry="8" style="stroke: #A80036; stroke-width: 2.0;"/><text fill="#000000" font-family="sans-serif" font-size="14" lengthAdjust="spacingAndGlyphs" textLength="128" x="378" y="442.5332">/payments/launcher/</text><!--entity ICPCM--><ellipse cx="588" cy="676" fill="#FEFECE" filter="url(#ftpcrsuplo3y7)" rx="8" ry="8" style="stroke: #A80036; stroke-width: 2.0;"/><text fill="#000000" font-family="sans-serif" font-size="14" lengthAdjust="spacingAndGlyphs" textLength="187" x="494.5" y="707.5332">/payments/machine-manager/</text><!--entity ICLiAD--><ellipse cx="171" cy="183" fill="#FEFECE" filter="url(#ftpcrsuplo3y7)" rx="8" ry="8" style="stroke: #A80036; stroke-width: 2.0;"/><text fill="#000000" font-family="sans-serif" font-size="14" lengthAdjust="spacingAndGlyphs" textLength="74" x="134" y="214.5332">/library/dev/</text><!--entity ICMAS--><ellipse cx="639" cy="1036" fill="#FEFECE" filter="url(#ftpcrsuplo3y7)" rx="8" ry="8" style="stroke: #A80036; stroke-width: 2.0;"/><text fill="#000000" font-family="sans-serif" font-size="14" lengthAdjust="spacingAndGlyphs" textLength="208" x="535" y="1067.5332">/machine-manager/management/</text><!--entity ICLaAU--><ellipse cx="188" cy="543.5" fill="#FEFECE" filter="url(#ftpcrsuplo3y7)" rx="8" ry="8" style="stroke: #A80036; stroke-width: 2.0;"/><text fill="#000000" font-family="sans-serif" font-size="14" lengthAdjust="spacingAndGlyphs" textLength="124" x="126" y="575.0332">/launcher/app-user/</text><!--entity ICMaCM--><ellipse cx="187" cy="1036" fill="#FEFECE" filter="url(#ftpcrsuplo3y7)" rx="8" ry="8" style="stroke: #A80036; stroke-width: 2.0;"/><text fill="#000000" font-family="sans-serif" font-size="14" lengthAdjust="spacingAndGlyphs" textLength="121" x="126.5" y="1067.5332">/machine/manager/</text><!--entity ICQ--><ellipse cx="597" cy="1301" fill="#FEFECE" filter="url(#ftpcrsuplo3y7)" rx="8" ry="8" style="stroke: #A80036; stroke-width: 2.0;"/><text fill="#000000" font-family="sans-serif" font-size="14" lengthAdjust="spacingAndGlyphs" textLength="48" x="573" y="1332.5332">/queue/</text><!--entity ICA--><ellipse cx="302" cy="183" fill="#FEFECE" filter="url(#ftpcrsuplo3y7)" rx="8" ry="8" style="stroke: #A80036; stroke-width: 2.0;"/><text fill="#000000" font-family="sans-serif" font-size="14" lengthAdjust="spacingAndGlyphs" textLength="36" x="284" y="214.5332">/auth/</text><!--link AU to AA--><path d="M310.638,543.5 C315.561,543.5 320.485,543.5 325.408,543.5 " fill="none" id="AU-AA" style="stroke: #A80036; stroke-width: 1.0;"/><polygon fill="none" points="310.398,550.5,290.398,543.5,310.398,536.5,310.398,550.5" style="stroke: #A80036; stroke-width: 1.0;"/><!--link CA to ICA--><path d="M302,74.53 C302,104.24 302,154.41 302,173.91 " fill="none" id="CA-ICA" style="stroke: #A80036; stroke-width: 1.0;"/><!--link AD to ICLiAD--><path d="M171,93.15 C171,119.15 171,150.93 171,168.57 " fill="none" id="AD-ICLiAD" style="stroke: #A80036; stroke-width: 1.0;"/><polygon fill="#A80036" points="171,173.98,175,164.98,171,168.98,167,164.98,171,173.98" style="stroke: #A80036; stroke-width: 1.0;"/><!--link ICLiAD to CLi--><path d="M171,192.05 C171,208.71 171,247.47 171,272.67 " fill="none" id="ICLiAD-CLi" style="stroke: #A80036; stroke-width: 1.0;"/><!--link ICMAS to AS--><path d="M632.201,1049.676 C622.838,1067.13 605.531,1099.396 591.392,1125.755 " fill="none" id="ICMAS-AS" style="stroke: #A80036; stroke-width: 1.0;"/><polygon fill="#A80036" points="634.621,1045.163,626.8407,1051.2018,632.2567,1049.5687,633.8899,1054.9847,634.621,1045.163" style="stroke: #A80036; stroke-width: 1.0;"/><!--link CM to ICMAS--><path d="M441.015,940.032 C500.86,968.738 599.002,1015.814 629.594,1030.488 " fill="none" id="CM-ICMAS" style="stroke: #A80036; stroke-width: 1.0;"/><!--link ICLaAU to AU--><path d="M202.236,543.5 C212.01,543.5 221.784,543.5 231.558,543.5 " fill="none" id="ICLaAU-AU" style="stroke: #A80036; stroke-width: 1.0;"/><polygon fill="#A80036" points="197.125,543.5,206.125,547.5,202.125,543.5,206.125,539.5,197.125,543.5" style="stroke: #A80036; stroke-width: 1.0;"/><!--link CLa to ICLaAU--><path d="M144.305,543.5 C155.797,543.5 167.29,543.5 178.783,543.5 " fill="none" id="CLa-ICLaAU" style="stroke: #A80036; stroke-width: 1.0;"/><!--link CLi to ICLiCLa--><path d="M155.667,321.21 C139.072,346.32 113.499,385.03 102.4227,401.79 " fill="none" id="CLi-ICLiCLa" style="stroke: #A80036; stroke-width: 1.0;"/><!--link ICLiCLa to CLa--><path d="M96.5773,430.39 C96.0409,453.721 95.1154,493.98 94.5316,519.374 " fill="none" id="ICLiCLa-CLa" style="stroke: #A80036; stroke-width: 1.0;"/><path d="M88.2869,423.0441 A9,9 0 0 0 105.197 423.4307" fill="none" style="stroke: #A80036; stroke-width: 1.5;"/><!--link CLa to ICMCLa--><path d="M113.474,567.784 C129.698,587.789 152.841,617.787 170,646 C197.667,691.491 223.009,749.203 234.893,777.603 " fill="none" id="CLa-ICMCLa" style="stroke: #A80036; stroke-width: 1.0;"/><path d="M245.4043,780.8878 A9,9 0 0 0 229.7744 787.3534" fill="none" style="stroke: #A80036; stroke-width: 1.5;"/><!--link ICMCLa to CM--><path d="M251.446,804.381 C273.463,821.587 328.942,864.942 363.545,891.983 " fill="none" id="ICMCLa-CM" style="stroke: #A80036; stroke-width: 1.0;"/><!--link CM to ICMCMa--><path d="M392.61,940.032 C392.157,966.726 391.436,1009.305 391.137,1026.942 " fill="none" id="CM-ICMCMa" style="stroke: #A80036; stroke-width: 1.0;"/><!--link ICMCMa to CMa--><path d="M391,1055.387 C391,1078.721 391,1118.98 391,1144.374 " fill="none" id="ICMCMa-CMa" style="stroke: #A80036; stroke-width: 1.0;"/><path d="M382.5428,1048.2412 A9,9 0 0 0 399.4572 1048.2412" fill="none" style="stroke: #A80036; stroke-width: 1.5;"/><!--link CM to ICMaCM--><path d="M352.792,940.032 C308.225,965.56 238.295,1005.617 205.342,1024.493 " fill="none" id="CM-ICMaCM" style="stroke: #A80036; stroke-width: 1.0;"/><path d="M203.2472,1035.4399 A9,9 0 0 0 194.8386 1020.7636" fill="none" style="stroke: #A80036; stroke-width: 1.5;"/><!--link ICMaCM to CMa--><path d="M196.029,1042.776 C223.403,1060.287 306.549,1113.476 354.966,1144.449 " fill="none" id="ICMaCM-CMa" style="stroke: #A80036; stroke-width: 1.0;"/><!--link CMa to AS--><path d="M442.93,1168.5 C476.227,1168.5 509.523,1168.5 542.82,1168.5 " fill="none" id="CMa-AS" style="stroke: #A80036; stroke-width: 1.0;"/><polygon fill="#A80036" points="437.586,1168.5,446.586,1172.5,442.586,1168.5,446.586,1164.5,437.586,1168.5" style="stroke: #A80036; stroke-width: 1.0;"/><!--link CLi to ICLiAA--><path d="M191.513,321.21 C213.714,346.32 247.927,385.03 262.745,401.79 " fill="none" id="CLi-ICLiAA" style="stroke: #A80036; stroke-width: 1.0;"/><!--link ICLiAA to AA--><path d="M279.092,424.23 C291.985,441.578 316.211,474.171 335.971,500.755 " fill="none" id="ICLiAA-AA" style="stroke: #A80036; stroke-width: 1.0;"/><polygon fill="#A80036" points="276.068,420.16,278.2312,429.7683,279.0527,424.1715,284.6496,424.9929,276.068,420.16" style="stroke: #A80036; stroke-width: 1.0;"/><!--link ICMAA to CM--><path d="M363.067,685.192 C367.336,717.969 383.279,840.37 389.991,891.901 " fill="none" id="ICMAA-CM" style="stroke: #A80036; stroke-width: 1.0;"/><!--link AA to ICMAA--><path d="M365.404,586.15 C364.408,612.153 363.19,643.934 362.514,661.572 " fill="none" id="AA-ICMAA" style="stroke: #A80036; stroke-width: 1.0;"/><polygon fill="#A80036" points="362.307,666.983,366.6487,658.1428,362.4985,661.9867,358.6545,657.8364,362.307,666.983" style="stroke: #A80036; stroke-width: 1.0;"/><!--link CP to ICPCLa--><path d="M491.154,321.21 C477.25,346.32 455.823,385.03 446.543,401.79 " fill="none" id="CP-ICPCLa" style="stroke: #A80036; stroke-width: 1.0;"/><!--link ICPCLa to CLa--><path d="M423.162,417.3 C368.384,432.83 209.942,478.516 161,501 C149.686,506.198 137.949,512.944 127.52,519.481 " fill="none" id="ICPCLa-CLa" style="stroke: #A80036; stroke-width: 1.0;"/><path d="M427.6766,407.2381 A9,9 0 0 0 432.2749 423.5155" fill="none" style="stroke: #A80036; stroke-width: 1.5;"/><!--link CP to ICPCM--><path d="M512.336,321.03 C518.113,337.56 525.69,360.46 531,381 C559.892,492.748 581.539,631.775 586.78,666.733 " fill="none" id="CP-ICPCM" style="stroke: #A80036; stroke-width: 1.0;"/><!--link ICPCM to CM--><path d="M574.793,693.12 C540.993,734.373 451.26,843.893 411.925,891.901 " fill="none" id="ICPCM-CM" style="stroke: #A80036; stroke-width: 1.0;"/><path d="M572.7953,682.213 A9,9 0 0 0 585.8789 692.9331" fill="none" style="stroke: #A80036; stroke-width: 1.5;"/><!--link CLa to ICLoCLa--><path d="M93.647,567.53 C93.2273,594.917 92.5411,639.694 92.2023,661.801 " fill="none" id="CLa-ICLoCLa" style="stroke: #A80036; stroke-width: 1.0;"/><polygon fill="#A80036" points="92.124,666.908,96.2624,657.9708,92.2011,661.9086,88.2633,657.8474,92.124,666.908" style="stroke: #A80036; stroke-width: 1.0;"/><!--link ICLoCLa to CLo--><path d="M90.2129,685.111 C86.3351,702.71 77.025,744.963 71.145,771.65 " fill="none" id="ICLoCLa-CLo" style="stroke: #A80036; stroke-width: 1.0;"/><!--link CLo to ICLoCMa--><path d="M66,820.032 C66,846.726 66,889.305 66,906.942 " fill="none" id="CLo-ICLoCMa" style="stroke: #A80036; stroke-width: 1.0;"/><!--link ICLoCMa to CMa--><path d="M65.1552,930.536 C64.1248,959.269 65.8527,1026.916 101,1066 C164.489,1136.6 279.892,1158.093 344.322,1164.636 " fill="none" id="ICLoCMa-CMa" style="stroke: #A80036; stroke-width: 1.0;"/><polygon fill="#A80036" points="65.3889,925.329,60.9892,934.1405,65.1646,930.324,68.9812,934.4994,65.3889,925.329" style="stroke: #A80036; stroke-width: 1.0;"/><!--link ICQ to CQ--><path d="M597,1310.055 C597,1326.707 597,1365.4694 597,1390.666 " fill="none" id="ICQ-CQ" style="stroke: #A80036; stroke-width: 1.0;"/><!--link CM to ICQ--><path d="M469.9,924.124 C568.859,935.066 732.432,959.766 769,1006 C850.175,1108.632 662.511,1253.498 610.113,1290.906 " fill="none" id="CM-ICQ" style="stroke: #A80036; stroke-width: 1.0;"/><polygon fill="#A80036" points="606.024,1293.803,615.6803,1291.8649,610.1041,1290.9129,611.0562,1285.3367,606.024,1293.803" style="stroke: #A80036; stroke-width: 1.0;"/><!--link CMa to ICQ--><path d="M427.354,1192.53 C471.718,1220.635 544.99,1267.052 578.832,1288.491 " fill="none" id="CMa-ICQ" style="stroke: #A80036; stroke-width: 1.0;"/><path d="M589.561,1285.2763 A9,9 0 0 0 580.5101 1299.5654" fill="none" style="stroke: #A80036; stroke-width: 1.5;"/><!--
@startuml

skinparam componentStyle uml2

actor "App User" as AU
actor Developer as AD
actor Supplier as AS
actor Administrator as AA

AA -le-|> AU

component Launcher as CLa
component Library as CLi
component Logger as CLo
component "Machine Manager" as CM
component Payments as CP
component Machine as CMa
component "OAuth Server" as CA
component Queue as CQ

interface "/logger/launcher/" as ICLoCLa
interface "/logger/machine/" as ICLoCMa
interface "/machine-manager/machines/" as ICMCMa
interface "/library/admin/" as ICLiAA
interface "/machine-manager/admin/" as ICMAA
interface "/machine-manager/launcher/" as ICMCLa
interface "/library/launcher/" as ICLiCLa
interface "/payments/launcher/" as ICPCLa
interface "/payments/machine-manager/" as ICPCM
interface "/library/dev/" as ICLiAD
interface "/machine-manager/management/" as ICMAS
interface "/launcher/app-user/" as ICLaAU
interface "/machine/manager/" as ICMaCM
interface "/queue/" as ICQ
interface "/auth/" as ICA

CA -do- ICA

AD -do-> ICLiAD
ICLiAD -do- CLi

AS -up-> ICMAS
ICMAS -up- CM

AU -le-> ICLaAU
ICLaAU -le- CLa

CLi -do- ICLiCLa
ICLiCLa )-do- CLa

CLa -do-( ICMCLa
ICMCLa -do- CM

CM -do- ICMCMa
ICMCMa )-do- CMa
CM -do-( ICMaCM
ICMaCM -do- CMa

CMa <-ri- AS

CLi -do- ICLiAA
AA -up-> ICLiAA
CM - -up- ICMAA
AA -do-> ICMAA

CP -do- ICPCLa
ICPCLa )-do- CLa

CP -do- ICPCM
CM -up-( ICPCM

CLa -do-> ICLoCLa
ICLoCLa -do- CLo
CLo -do- ICLoCMa
ICLoCMa <-do- CMa

CQ -up- ICQ
CM -do-> ICQ
CMa -do-( ICQ

@enduml

PlantUML version 1.2018.11(Sat Sep 22 18:43:53 CEST 2018)
(GPL source distribution)
Java Runtime: OpenJDK Runtime Environment
JVM: OpenJDK 64-Bit Server VM
Java Version: 1.8.0_152-release-1248-b8
Operating System: Windows 10
OS Version: 10.0
Default Encoding: Cp1250
Language: pl
Country: PL
--></g></svg>