<?xml version="1.0" encoding="UTF-8" standalone="no"?><svg xmlns="http://www.w3.org/2000/svg" xmlns:xlink="http://www.w3.org/1999/xlink" contentScriptType="application/ecmascript" contentStyleType="text/css" height="993px" preserveAspectRatio="none" style="width:864px;height:993px;" version="1.1" viewBox="0 0 864 993" width="864px" zoomAndPan="magnify"><defs><filter height="300%" id="fqf9n6z0uusfl" width="300%" x="-1" y="-1"><feGaussianBlur result="blurOut" stdDeviation="2.0"/><feColorMatrix in="blurOut" result="blurOut2" type="matrix" values="0 0 0 0 0 0 0 0 0 0 0 0 0 0 0 0 0 0 .4 0"/><feOffset dx="4.0" dy="4.0" in="blurOut2" result="blurOut3"/><feBlend in="SourceGraphic" in2="blurOut3" mode="normal"/></filter></defs><g><!--entity AU--><ellipse cx="473" cy="283" fill="#FEFECE" filter="url(#fqf9n6z0uusfl)" rx="8" ry="8" style="stroke: #A80036; stroke-width: 2.0;"/><path d="M473,291 L473,318 M460,299 L486,299 M473,318 L460,333 M473,318 L486,333 " fill="none" filter="url(#fqf9n6z0uusfl)" style="stroke: #A80036; stroke-width: 2.0;"/><text fill="#000000" font-family="sans-serif" font-size="14" lengthAdjust="spacingAndGlyphs" textLength="58" x="444" y="354.5332">App User</text><!--entity AD--><ellipse cx="314" cy="18" fill="#FEFECE" filter="url(#fqf9n6z0uusfl)" rx="8" ry="8" style="stroke: #A80036; stroke-width: 2.0;"/><path d="M314,26 L314,53 M301,34 L327,34 M314,53 L301,68 M314,53 L327,68 " fill="none" filter="url(#fqf9n6z0uusfl)" style="stroke: #A80036; stroke-width: 2.0;"/><text fill="#000000" font-family="sans-serif" font-size="14" lengthAdjust="spacingAndGlyphs" textLength="65" x="281.5" y="89.5332">Developer</text><!--entity AS--><ellipse cx="627" cy="908" fill="#FEFECE" filter="url(#fqf9n6z0uusfl)" rx="8" ry="8" style="stroke: #A80036; stroke-width: 2.0;"/><path d="M627,916 L627,943 M614,924 L640,924 M627,943 L614,958 M627,943 L640,958 " fill="none" filter="url(#fqf9n6z0uusfl)" style="stroke: #A80036; stroke-width: 2.0;"/><text fill="#000000" font-family="sans-serif" font-size="14" lengthAdjust="spacingAndGlyphs" textLength="52" x="601" y="979.5332">Supplier</text><!--entity AA--><ellipse cx="579" cy="283" fill="#FEFECE" filter="url(#fqf9n6z0uusfl)" rx="8" ry="8" style="stroke: #A80036; stroke-width: 2.0;"/><path d="M579,291 L579,318 M566,299 L592,299 M579,318 L566,333 M579,318 L592,333 " fill="none" filter="url(#fqf9n6z0uusfl)" style="stroke: #A80036; stroke-width: 2.0;"/><text fill="#000000" font-family="sans-serif" font-size="14" lengthAdjust="spacingAndGlyphs" textLength="83" x="537.5" y="354.5332">Administrator</text><!--entity CLa--><rect fill="#FEFECE" filter="url(#fqf9n6z0uusfl)" height="47.6094" style="stroke: #A80036; stroke-width: 1.5;" width="100" x="256" y="291.5"/><rect fill="#FEFECE" height="10" style="stroke: #A80036; stroke-width: 1.5;" width="15" x="336" y="296.5"/><rect fill="#FEFECE" height="2" style="stroke: #A80036; stroke-width: 1.5;" width="4" x="334" y="298.5"/><rect fill="#FEFECE" height="2" style="stroke: #A80036; stroke-width: 1.5;" width="4" x="334" y="302.5"/><text fill="#000000" font-family="sans-serif" font-size="14" lengthAdjust="spacingAndGlyphs" textLength="60" x="271" y="326.0332">Launcher</text><!--entity CLi--><rect fill="#FEFECE" filter="url(#fqf9n6z0uusfl)" height="47.6094" style="stroke: #A80036; stroke-width: 1.5;" width="84" x="435" y="26.5"/><rect fill="#FEFECE" height="10" style="stroke: #A80036; stroke-width: 1.5;" width="15" x="499" y="31.5"/><rect fill="#FEFECE" height="2" style="stroke: #A80036; stroke-width: 1.5;" width="4" x="497" y="33.5"/><rect fill="#FEFECE" height="2" style="stroke: #A80036; stroke-width: 1.5;" width="4" x="497" y="37.5"/><text fill="#000000" font-family="sans-serif" font-size="14" lengthAdjust="spacingAndGlyphs" textLength="44" x="450" y="61.0332">Library</text><!--entity CLo--><rect fill="#FEFECE" filter="url(#fqf9n6z0uusfl)" height="47.6094" style="stroke: #A80036; stroke-width: 1.5;" width="85" x="243.5" y="544"/><rect fill="#FEFECE" height="10" style="stroke: #A80036; stroke-width: 1.5;" width="15" x="308.5" y="549"/><rect fill="#FEFECE" height="2" style="stroke: #A80036; stroke-width: 1.5;" width="4" x="306.5" y="551"/><rect fill="#FEFECE" height="2" style="stroke: #A80036; stroke-width: 1.5;" width="4" x="306.5" y="555"/><text fill="#000000" font-family="sans-serif" font-size="14" lengthAdjust="spacingAndGlyphs" textLength="45" x="258.5" y="578.5332">Logger</text><!--entity CM--><rect fill="#FEFECE" filter="url(#fqf9n6z0uusfl)" height="47.6094" style="stroke: #A80036; stroke-width: 1.5;" width="153" x="404.5" y="664"/><rect fill="#FEFECE" height="10" style="stroke: #A80036; stroke-width: 1.5;" width="15" x="537.5" y="669"/><rect fill="#FEFECE" height="2" style="stroke: #A80036; stroke-width: 1.5;" width="4" x="535.5" y="671"/><rect fill="#FEFECE" height="2" style="stroke: #A80036; stroke-width: 1.5;" width="4" x="535.5" y="675"/><text fill="#000000" font-family="sans-serif" font-size="14" lengthAdjust="spacingAndGlyphs" textLength="113" x="419.5" y="698.5332">Machine Manager</text><!--entity CP--><rect fill="#FEFECE" filter="url(#fqf9n6z0uusfl)" height="47.6094" style="stroke: #A80036; stroke-width: 1.5;" width="102" x="132" y="26.5"/><rect fill="#FEFECE" height="10" style="stroke: #A80036; stroke-width: 1.5;" width="15" x="214" y="31.5"/><rect fill="#FEFECE" height="2" style="stroke: #A80036; stroke-width: 1.5;" width="4" x="212" y="33.5"/><rect fill="#FEFECE" height="2" style="stroke: #A80036; stroke-width: 1.5;" width="4" x="212" y="37.5"/><text fill="#000000" font-family="sans-serif" font-size="14" lengthAdjust="spacingAndGlyphs" textLength="62" x="147" y="61.0332">Payments</text><!--entity CMa--><rect fill="#FEFECE" filter="url(#fqf9n6z0uusfl)" height="47.6094" style="stroke: #A80036; stroke-width: 1.5;" width="93" x="351.5" y="916.5"/><rect fill="#FEFECE" height="10" style="stroke: #A80036; stroke-width: 1.5;" width="15" x="424.5" y="921.5"/><rect fill="#FEFECE" height="2" style="stroke: #A80036; stroke-width: 1.5;" width="4" x="422.5" y="923.5"/><rect fill="#FEFECE" height="2" style="stroke: #A80036; stroke-width: 1.5;" width="4" x="422.5" y="927.5"/><text fill="#000000" font-family="sans-serif" font-size="14" lengthAdjust="spacingAndGlyphs" textLength="53" x="366.5" y="951.0332">Machine</text><!--entity CA--><rect fill="#FEFECE" filter="url(#fqf9n6z0uusfl)" height="47.6094" style="stroke: #A80036; stroke-width: 1.5;" width="126" x="554" y="26.5"/><rect fill="#FEFECE" height="10" style="stroke: #A80036; stroke-width: 1.5;" width="15" x="660" y="31.5"/><rect fill="#FEFECE" height="2" style="stroke: #A80036; stroke-width: 1.5;" width="4" x="658" y="33.5"/><rect fill="#FEFECE" height="2" style="stroke: #A80036; stroke-width: 1.5;" width="4" x="658" y="37.5"/><text fill="#000000" font-family="sans-serif" font-size="14" lengthAdjust="spacingAndGlyphs" textLength="86" x="569" y="61.0332">OAuth Server</text><!--entity ICLoCLa--><ellipse cx="299" cy="448" fill="#FEFECE" filter="url(#fqf9n6z0uusfl)" rx="8" ry="8" style="stroke: #A80036; stroke-width: 2.0;"/><text fill="#000000" font-family="sans-serif" font-size="14" lengthAdjust="spacingAndGlyphs" textLength="107" x="245.5" y="479.5332">/logger/launcher/</text><!--entity ICLoCMa--><ellipse cx="249" cy="688" fill="#FEFECE" filter="url(#fqf9n6z0uusfl)" rx="8" ry="8" style="stroke: #A80036; stroke-width: 2.0;"/><text fill="#000000" font-family="sans-serif" font-size="14" lengthAdjust="spacingAndGlyphs" textLength="105" x="196.5" y="719.5332">/logger/machine/</text><!--entity ICMCMa--><ellipse cx="500" cy="808" fill="#FEFECE" filter="url(#fqf9n6z0uusfl)" rx="8" ry="8" style="stroke: #A80036; stroke-width: 2.0;"/><text fill="#000000" font-family="sans-serif" font-size="14" lengthAdjust="spacingAndGlyphs" textLength="186" x="407" y="839.5332">/machine-manager/machines/</text><!--entity ICLiAA--><ellipse cx="567" cy="183" fill="#FEFECE" filter="url(#fqf9n6z0uusfl)" rx="8" ry="8" style="stroke: #A80036; stroke-width: 2.0;"/><text fill="#000000" font-family="sans-serif" font-size="14" lengthAdjust="spacingAndGlyphs" textLength="89" x="522.5" y="214.5332">/library/admin/</text><!--entity ICMAA--><ellipse cx="606" cy="448" fill="#FEFECE" filter="url(#fqf9n6z0uusfl)" rx="8" ry="8" style="stroke: #A80036; stroke-width: 2.0;"/><text fill="#000000" font-family="sans-serif" font-size="14" lengthAdjust="spacingAndGlyphs" textLength="164" x="524" y="479.5332">/machine-manager/admin/</text><!--entity ICMCLa--><ellipse cx="462" cy="568" fill="#FEFECE" filter="url(#fqf9n6z0uusfl)" rx="8" ry="8" style="stroke: #A80036; stroke-width: 2.0;"/><text fill="#000000" font-family="sans-serif" font-size="14" lengthAdjust="spacingAndGlyphs" textLength="181" x="371.5" y="599.5332">/machine-manager/launcher/</text><!--entity ICLiCLa--><ellipse cx="417" cy="183" fill="#FEFECE" filter="url(#fqf9n6z0uusfl)" rx="8" ry="8" style="stroke: #A80036; stroke-width: 2.0;"/><text fill="#000000" font-family="sans-serif" font-size="14" lengthAdjust="spacingAndGlyphs" textLength="106" x="364" y="214.5332">/library/launcher/</text><!--entity ICPCLa--><ellipse cx="244" cy="183" fill="#FEFECE" filter="url(#fqf9n6z0uusfl)" rx="8" ry="8" style="stroke: #A80036; stroke-width: 2.0;"/><text fill="#000000" font-family="sans-serif" font-size="14" lengthAdjust="spacingAndGlyphs" textLength="128" x="180" y="214.5332">/payments/launcher/</text><!--entity ICPCM--><ellipse cx="107" cy="568" fill="#FEFECE" filter="url(#fqf9n6z0uusfl)" rx="8" ry="8" style="stroke: #A80036; stroke-width: 2.0;"/><text fill="#000000" font-family="sans-serif" font-size="14" lengthAdjust="spacingAndGlyphs" textLength="187" x="13.5" y="599.5332">/payments/machine-manager/</text><!--entity ICLiAD--><ellipse cx="391" cy="50.5" fill="#FEFECE" filter="url(#fqf9n6z0uusfl)" rx="8" ry="8" style="stroke: #A80036; stroke-width: 2.0;"/><text fill="#000000" font-family="sans-serif" font-size="14" lengthAdjust="spacingAndGlyphs" textLength="74" x="354" y="82.0332">/library/dev/</text><!--entity ICMAS--><ellipse cx="748" cy="808" fill="#FEFECE" filter="url(#fqf9n6z0uusfl)" rx="8" ry="8" style="stroke: #A80036; stroke-width: 2.0;"/><text fill="#000000" font-family="sans-serif" font-size="14" lengthAdjust="spacingAndGlyphs" textLength="208" x="644" y="839.5332">/machine-manager/management/</text><!--entity ICLaAU--><ellipse cx="400" cy="315.5" fill="#FEFECE" filter="url(#fqf9n6z0uusfl)" rx="8" ry="8" style="stroke: #A80036; stroke-width: 2.0;"/><text fill="#000000" font-family="sans-serif" font-size="14" lengthAdjust="spacingAndGlyphs" textLength="95" x="352.5" y="347.0332">/launcher/user/</text><!--entity ICMaCM--><ellipse cx="296" cy="808" fill="#FEFECE" filter="url(#fqf9n6z0uusfl)" rx="8" ry="8" style="stroke: #A80036; stroke-width: 2.0;"/><text fill="#000000" font-family="sans-serif" font-size="14" lengthAdjust="spacingAndGlyphs" textLength="121" x="235.5" y="839.5332">/machine/manager/</text><!--link AU to AA--><path d="M522.638,315.5 C527.561,315.5 532.485,315.5 537.408,315.5 " fill="none" id="AU-AA" style="stroke: #A80036; stroke-width: 1.0;"/><polygon fill="none" points="522.398,322.5,502.398,315.5,522.398,308.5,522.398,322.5" style="stroke: #A80036; stroke-width: 1.0;"/><!--link AD to ICLiAD--><path d="M346.785,50.5 C356.688,50.5 366.592,50.5 376.495,50.5 " fill="none" id="AD-ICLiAD" style="stroke: #A80036; stroke-width: 1.0;"/><polygon fill="#A80036" points="381.673,50.5,372.673,46.5,376.673,50.5,372.673,54.5,381.673,50.5" style="stroke: #A80036; stroke-width: 1.0;"/><!--link ICLiAD to CLi--><path d="M400.07,50.5 C411.69,50.5 423.309,50.5 434.929,50.5 " fill="none" id="ICLiAD-CLi" style="stroke: #A80036; stroke-width: 1.0;"/><!--link ICMAS to AS--><path d="M736.934,820.935 C718.064,841.287 679.176,883.2277 653.084,911.3679 " fill="none" id="ICMAS-AS" style="stroke: #A80036; stroke-width: 1.0;"/><polygon fill="#A80036" points="740.431,817.163,731.3787,821.0432,737.0315,820.8296,737.2452,826.4824,740.431,817.163" style="stroke: #A80036; stroke-width: 1.0;"/><!--link CM to ICMAS--><path d="M533.114,712.032 C598.675,741.006 706.582,788.696 738.703,802.891 " fill="none" id="CM-ICMAS" style="stroke: #A80036; stroke-width: 1.0;"/><!--link ICLaAU to AU--><path d="M414.236,315.5 C424.01,315.5 433.784,315.5 443.558,315.5 " fill="none" id="ICLaAU-AU" style="stroke: #A80036; stroke-width: 1.0;"/><polygon fill="#A80036" points="409.125,315.5,418.125,319.5,414.125,315.5,418.125,311.5,409.125,315.5" style="stroke: #A80036; stroke-width: 1.0;"/><!--link CLa to ICLaAU--><path d="M356.305,315.5 C367.797,315.5 379.29,315.5 390.783,315.5 " fill="none" id="CLa-ICLaAU" style="stroke: #A80036; stroke-width: 1.0;"/><!--link CLi to ICLiCLa--><path d="M466.411,74.53 C452.753,104.238 429.686,154.408 420.72,173.908 " fill="none" id="CLi-ICLiCLa" style="stroke: #A80036; stroke-width: 1.0;"/><!--link ICLiCLa to CLa--><path d="M403.476,199.9 C384.032,222.76 348.059,265.053 325.671,291.374 " fill="none" id="ICLiCLa-CLa" style="stroke: #A80036; stroke-width: 1.0;"/><path d="M401.6195,189.0285 A9,9 0 0 0 414.5039 199.9871" fill="none" style="stroke: #A80036; stroke-width: 1.5;"/><!--link CLa to ICMCLa--><path d="M323.268,339.872 C338.049,360.18 359.63,390.564 377,418 C406.511,464.613 437.822,521.788 452.874,549.83 " fill="none" id="CLa-ICMCLa" style="stroke: #A80036; stroke-width: 1.0;"/><path d="M463.6595,552.0684 A9,9 0 0 0 448.7412 560.0398" fill="none" style="stroke: #A80036; stroke-width: 1.5;"/><!--link ICMCLa to CM--><path d="M463.306,577.111 C466.14,594.71 472.943,636.963 477.24,663.65 " fill="none" id="ICMCLa-CM" style="stroke: #A80036; stroke-width: 1.0;"/><!--link CM to ICMCMa--><path d="M484.708,712.032 C489.007,738.726 495.863,781.305 498.703,798.942 " fill="none" id="CM-ICMCMa" style="stroke: #A80036; stroke-width: 1.0;"/><!--link ICMCMa to CMa--><path d="M487.336,825.203 C469.414,848.132 436.558,890.1687 416.076,916.3735 " fill="none" id="ICMCMa-CMa" style="stroke: #A80036; stroke-width: 1.0;"/><path d="M485.0602,814.3797 A9,9 0 0 0 498.3864 824.7966" fill="none" style="stroke: #A80036; stroke-width: 1.5;"/><!--link CM to ICMaCM--><path d="M444.891,712.032 C405.419,737.208 343.794,776.515 313.716,795.7 " fill="none" id="CM-ICMaCM" style="stroke: #A80036; stroke-width: 1.0;"/><path d="M312.2698,806.6544 A9,9 0 0 0 303.1748 792.3933" fill="none" style="stroke: #A80036; stroke-width: 1.5;"/><!--link ICMaCM to CMa--><path d="M302.381,817.163 C317.645,836.693 356.723,886.6902 379.924,916.3735 " fill="none" id="ICMaCM-CMa" style="stroke: #A80036; stroke-width: 1.0;"/><!--link CMa to AS--><path d="M449.711,940.5 C500.134,940.5 550.558,940.5 600.982,940.5 " fill="none" id="CMa-AS" style="stroke: #A80036; stroke-width: 1.0;"/><polygon fill="#A80036" points="444.516,940.5,453.516,944.5,449.516,940.5,453.516,936.5,444.516,940.5" style="stroke: #A80036; stroke-width: 1.0;"/><!--link CLi to ICLiAA--><path d="M492.883,74.53 C513.371,104.238 547.971,154.408 561.419,173.908 " fill="none" id="CLi-ICLiAA" style="stroke: #A80036; stroke-width: 1.0;"/><!--link ICLiAA to AA--><path d="M568.249,197.584 C569.872,215.231 572.779,246.846 575.161,272.755 " fill="none" id="ICLiAA-AA" style="stroke: #A80036; stroke-width: 1.0;"/><polygon fill="#A80036" points="567.751,192.163,564.5933,201.4919,568.2096,197.1419,572.5596,200.7582,567.751,192.163" style="stroke: #A80036; stroke-width: 1.0;"/><!--link ICMAA to CM--><path d="M606.134,457.019 C606.184,480.356 603.907,549.639 577,598 C562.193,624.613 536.585,647.75 515.539,663.759 " fill="none" id="ICMAA-CM" style="stroke: #A80036; stroke-width: 1.0;"/><!--link AA to ICMAA--><path d="M587.617,358.15 C593.044,384.379 599.687,416.487 603.316,434.029 " fill="none" id="AA-ICMAA" style="stroke: #A80036; stroke-width: 1.0;"/><polygon fill="#A80036" points="604.341,438.983,606.4352,429.3594,603.3283,434.0866,598.601,430.9797,604.341,438.983" style="stroke: #A80036; stroke-width: 1.0;"/><!--link CP to ICPCLa--><path d="M193.765,74.53 C207.652,104.238 231.103,154.408 240.218,173.908 " fill="none" id="CP-ICPCLa" style="stroke: #A80036; stroke-width: 1.0;"/><!--link ICPCLa to CLa--><path d="M252.285,201.438 C263.296,224.615 282.783,265.632 295.013,291.374 " fill="none" id="ICPCLa-CLa" style="stroke: #A80036; stroke-width: 1.0;"/><path d="M241.56,198.5726 A9,9 0 0 0 256.8379 191.3142" fill="none" style="stroke: #A80036; stroke-width: 1.5;"/><!--link CP to ICPCM--><path d="M175.212,74.615 C168.624,95.016 159.416,125.675 154,153 C122.004,314.426 109.758,515.894 107.428,558.751 " fill="none" id="CP-ICPCM" style="stroke: #A80036; stroke-width: 1.0;"/><!--link ICPCM to CM--><path d="M125.961,574.982 C177.087,591.113 319.863,636.16 408.001,663.968 " fill="none" id="ICPCM-CM" style="stroke: #A80036; stroke-width: 1.0;"/><path d="M116.635,580.9085 A9,9 0 0 0 121.7259 564.7784" fill="none" style="stroke: #A80036; stroke-width: 1.5;"/><!--link CLa to ICLoCLa--><path d="M304.765,339.53 C303.296,366.917 300.894,411.694 299.708,433.801 " fill="none" id="CLa-ICLoCLa" style="stroke: #A80036; stroke-width: 1.0;"/><polygon fill="#A80036" points="299.434,438.908,303.9091,430.1346,299.7011,433.9151,295.9206,429.7071,299.434,438.908" style="stroke: #A80036; stroke-width: 1.0;"/><!--link ICLoCLa to CLo--><path d="M298.106,457.111 C296.168,474.71 291.513,516.963 288.573,543.65 " fill="none" id="ICLoCLa-CLo" style="stroke: #A80036; stroke-width: 1.0;"/><!--link CLo to ICLoCMa--><path d="M278.778,592.032 C270.408,618.726 257.057,661.305 251.527,678.942 " fill="none" id="CLo-ICLoCMa" style="stroke: #A80036; stroke-width: 1.0;"/><!--link ICLoCMa to CMa--><path d="M239.87,701.269 C221.239,727.93 182.806,792.413 210,838 C240.404,888.9674 306.241,915.874 351.342,928.8866 " fill="none" id="ICLoCMa-CMa" style="stroke: #A80036; stroke-width: 1.0;"/><polygon fill="#A80036" points="242.888,697.033,234.4074,702.0409,239.9863,701.1049,240.9224,706.6837,242.888,697.033" style="stroke: #A80036; stroke-width: 1.0;"/><!--
@startuml

skinparam componentStyle uml2

skinparam actor {
    BackgroundColor<<Machine>> Brown
}

actor "App User" as AU
actor Developer as AD
actor Supplier as AS
actor Administrator as AA

AA -le-|> AU

component Launcher as CLa
component Library as CLi
component Logger as CLo
component "Machine Manager" as CM
component Payments as CP
component Machine as CMa
component "OAuth Server" as CA

interface "/logger/launcher/" as ICLoCLa
interface "/logger/machine/" as ICLoCMa
interface "/machine-manager/machines/" as ICMCMa
interface "/library/admin/" as ICLiAA
interface "/machine-manager/admin/" as ICMAA
interface "/machine-manager/launcher/" as ICMCLa
interface "/library/launcher/" as ICLiCLa
interface "/payments/launcher/" as ICPCLa
interface "/payments/machine-manager/" as ICPCM
interface "/library/dev/" as ICLiAD
interface "/machine-manager/management/" as ICMAS
interface "/launcher/user/" as ICLaAU
interface "/machine/manager/" as ICMaCM

AD -ri-> ICLiAD
ICLiAD -ri- CLi

AS -up-> ICMAS
ICMAS -up- CM

AU -le-> ICLaAU
ICLaAU -le- CLa

CLi -do- ICLiCLa
ICLiCLa )-do- CLa

CLa -do-( ICMCLa
ICMCLa -do- CM

CM -do- ICMCMa
ICMCMa )-do- CMa
CM -do-( ICMaCM
ICMaCM -do- CMa

CMa <-ri- AS

CLi -do- ICLiAA
AA -up-> ICLiAA
CM - -up- ICMAA
AA -do-> ICMAA

CP -do- ICPCLa
ICPCLa )-do- CLa

CP -do- ICPCM
CM -up-( ICPCM

CLa -do-> ICLoCLa
ICLoCLa -do- CLo
CLo -do- ICLoCMa
ICLoCMa <-do- CMa

@enduml

PlantUML version 1.2018.11(Sat Sep 22 18:43:53 CEST 2018)
(GPL source distribution)
Java Runtime: OpenJDK Runtime Environment
JVM: OpenJDK 64-Bit Server VM
Java Version: 1.8.0_152-release-1248-b8
Operating System: Windows 10
OS Version: 10.0
Default Encoding: Cp1250
Language: pl
Country: PL
--></g></svg>