<?xml version="1.0" encoding="UTF-8" standalone="no"?><svg xmlns="http://www.w3.org/2000/svg" xmlns:xlink="http://www.w3.org/1999/xlink" contentScriptType="application/ecmascript" contentStyleType="text/css" height="1061.25px" preserveAspectRatio="none" style="width:1197px;height:1061px;" version="1.1" viewBox="0 0 1197 1061" width="1197.5px" zoomAndPan="magnify"><defs><filter height="300%" id="fyau27q7n316t" width="300%" x="-1" y="-1"><feGaussianBlur result="blurOut" stdDeviation="2.5"/><feColorMatrix in="blurOut" result="blurOut2" type="matrix" values="0 0 0 0 0 0 0 0 0 0 0 0 0 0 0 0 0 0 .4 0"/><feOffset dx="5.0" dy="5.0" in="blurOut2" result="blurOut3"/><feBlend in="SourceGraphic" in2="blurOut3" mode="normal"/></filter></defs><g><!--MD5=[7fd26a705acf29f011d2a1fffbedca5c]
entity AU--><ellipse cx="775" cy="203.75" fill="#FEFECE" filter="url(#fyau27q7n316t)" rx="10" ry="10" style="stroke: #A80036; stroke-width: 2.5;"/><path d="M775,213.75 L775,247.5 M758.75,223.75 L791.25,223.75 M775,247.5 L758.75,266.25 M775,247.5 L791.25,266.25 " fill="none" filter="url(#fyau27q7n316t)" style="stroke: #A80036; stroke-width: 2.5;"/><text fill="#000000" font-family="sans-serif" font-size="17.5" lengthAdjust="spacingAndGlyphs" textLength="72.5" x="738.75" y="293.1665">App User</text><!--MD5=[0bbf5511d91d17fcdd97aa38a0263a02]
entity AD--><ellipse cx="872.5" cy="22.5" fill="#FEFECE" filter="url(#fyau27q7n316t)" rx="10" ry="10" style="stroke: #A80036; stroke-width: 2.5;"/><path d="M872.5,32.5 L872.5,66.25 M856.25,42.5 L888.75,42.5 M872.5,66.25 L856.25,85 M872.5,66.25 L888.75,85 " fill="none" filter="url(#fyau27q7n316t)" style="stroke: #A80036; stroke-width: 2.5;"/><text fill="#000000" font-family="sans-serif" font-size="17.5" lengthAdjust="spacingAndGlyphs" textLength="81.25" x="831.875" y="111.9165">Developer</text><!--MD5=[4ec5e0198a45b1576103bd8a641ef52b]
entity AS--><ellipse cx="906.25" cy="955" fill="#FEFECE" filter="url(#fyau27q7n316t)" rx="10" ry="10" style="stroke: #A80036; stroke-width: 2.5;"/><path d="M906.25,965 L906.25,998.75 M890,975 L922.5,975 M906.25,998.75 L890,1017.5 M906.25,998.75 L922.5,1017.5 " fill="none" filter="url(#fyau27q7n316t)" style="stroke: #A80036; stroke-width: 2.5;"/><text fill="#000000" font-family="sans-serif" font-size="17.5" lengthAdjust="spacingAndGlyphs" textLength="65" x="873.75" y="1044.4165">Supplier</text><!--MD5=[455beceef6f1269795dd52bc15d5237a]
entity AA--><ellipse cx="907.5" cy="203.75" fill="#FEFECE" filter="url(#fyau27q7n316t)" rx="10" ry="10" style="stroke: #A80036; stroke-width: 2.5;"/><path d="M907.5,213.75 L907.5,247.5 M891.25,223.75 L923.75,223.75 M907.5,247.5 L891.25,266.25 M907.5,247.5 L923.75,266.25 " fill="none" filter="url(#fyau27q7n316t)" style="stroke: #A80036; stroke-width: 2.5;"/><text fill="#000000" font-family="sans-serif" font-size="17.5" lengthAdjust="spacingAndGlyphs" textLength="103.75" x="855.625" y="293.1665">Administrator</text><!--MD5=[13ef81e1caf38a686d6daa76b1f326dd]
entity CLa--><rect fill="#FEFECE" filter="url(#fyau27q7n316t)" height="59.5117" style="stroke: #A80036; stroke-width: 1.875;" width="125" x="315" y="214.375"/><rect fill="#FEFECE" height="12.5" style="stroke: #A80036; stroke-width: 1.875;" width="18.75" x="415" y="220.625"/><rect fill="#FEFECE" height="2.5" style="stroke: #A80036; stroke-width: 1.875;" width="5" x="412.5" y="223.125"/><rect fill="#FEFECE" height="2.5" style="stroke: #A80036; stroke-width: 1.875;" width="5" x="412.5" y="228.125"/><text fill="#000000" font-family="sans-serif" font-size="17.5" lengthAdjust="spacingAndGlyphs" textLength="75" x="333.75" y="257.5415">Launcher</text><!--MD5=[df1d7567e083c4145a2a30a88a226a67]
entity CLaU--><rect fill="#FEFECE" filter="url(#fyau27q7n316t)" height="59.5117" style="stroke: #A80036; stroke-width: 1.875;" width="145" x="550" y="214.375"/><rect fill="#FEFECE" height="12.5" style="stroke: #A80036; stroke-width: 1.875;" width="18.75" x="670" y="220.625"/><rect fill="#FEFECE" height="2.5" style="stroke: #A80036; stroke-width: 1.875;" width="5" x="667.5" y="223.125"/><rect fill="#FEFECE" height="2.5" style="stroke: #A80036; stroke-width: 1.875;" width="5" x="667.5" y="228.125"/><text fill="#000000" font-family="sans-serif" font-size="17.5" lengthAdjust="spacingAndGlyphs" textLength="95" x="568.75" y="257.5415">Launcher UI</text><!--MD5=[692c723e68c085288a975e87182f1099]
entity CLi--><rect fill="#FEFECE" filter="url(#fyau27q7n316t)" height="59.5117" style="stroke: #A80036; stroke-width: 1.875;" width="105" x="433.75" y="33.125"/><rect fill="#FEFECE" height="12.5" style="stroke: #A80036; stroke-width: 1.875;" width="18.75" x="513.75" y="39.375"/><rect fill="#FEFECE" height="2.5" style="stroke: #A80036; stroke-width: 1.875;" width="5" x="511.25" y="41.875"/><rect fill="#FEFECE" height="2.5" style="stroke: #A80036; stroke-width: 1.875;" width="5" x="511.25" y="46.875"/><text fill="#000000" font-family="sans-serif" font-size="17.5" lengthAdjust="spacingAndGlyphs" textLength="55" x="452.5" y="76.2915">Library</text><!--MD5=[8ab7244dbfc03c63d2ae105d7780c4bb]
entity CLiU--><rect fill="#FEFECE" filter="url(#fyau27q7n316t)" height="59.5117" style="stroke: #A80036; stroke-width: 1.875;" width="125" x="655" y="33.125"/><rect fill="#FEFECE" height="12.5" style="stroke: #A80036; stroke-width: 1.875;" width="18.75" x="755" y="39.375"/><rect fill="#FEFECE" height="2.5" style="stroke: #A80036; stroke-width: 1.875;" width="5" x="752.5" y="41.875"/><rect fill="#FEFECE" height="2.5" style="stroke: #A80036; stroke-width: 1.875;" width="5" x="752.5" y="46.875"/><text fill="#000000" font-family="sans-serif" font-size="17.5" lengthAdjust="spacingAndGlyphs" textLength="75" x="673.75" y="76.2915">Library UI</text><!--MD5=[d06af39615811b08680b88f3b0a7c36a]
entity CLo--><rect fill="#FEFECE" filter="url(#fyau27q7n316t)" height="59.5117" style="stroke: #A80036; stroke-width: 1.875;" width="106.25" x="219.375" y="522.5"/><rect fill="#FEFECE" height="12.5" style="stroke: #A80036; stroke-width: 1.875;" width="18.75" x="300.625" y="528.75"/><rect fill="#FEFECE" height="2.5" style="stroke: #A80036; stroke-width: 1.875;" width="5" x="298.125" y="531.25"/><rect fill="#FEFECE" height="2.5" style="stroke: #A80036; stroke-width: 1.875;" width="5" x="298.125" y="536.25"/><text fill="#000000" font-family="sans-serif" font-size="17.5" lengthAdjust="spacingAndGlyphs" textLength="56.25" x="238.125" y="565.6665">Logger</text><!--MD5=[99f3cfe8ce18ee9cb444babb539f6fb5]
entity CM--><rect fill="#FEFECE" filter="url(#fyau27q7n316t)" height="59.5117" style="stroke: #A80036; stroke-width: 1.875;" width="191.25" x="528.125" y="522.5"/><rect fill="#FEFECE" height="12.5" style="stroke: #A80036; stroke-width: 1.875;" width="18.75" x="694.375" y="528.75"/><rect fill="#FEFECE" height="2.5" style="stroke: #A80036; stroke-width: 1.875;" width="5" x="691.875" y="531.25"/><rect fill="#FEFECE" height="2.5" style="stroke: #A80036; stroke-width: 1.875;" width="5" x="691.875" y="536.25"/><text fill="#000000" font-family="sans-serif" font-size="17.5" lengthAdjust="spacingAndGlyphs" textLength="141.25" x="546.875" y="565.6665">Machine Manager</text><!--MD5=[04a6525298f6fdc41316fd4e132d3f67]
entity CMU--><rect fill="#FEFECE" filter="url(#fyau27q7n316t)" height="59.5117" style="stroke: #A80036; stroke-width: 1.875;" width="211.25" x="973.125" y="807.5"/><rect fill="#FEFECE" height="12.5" style="stroke: #A80036; stroke-width: 1.875;" width="18.75" x="1159.375" y="813.75"/><rect fill="#FEFECE" height="2.5" style="stroke: #A80036; stroke-width: 1.875;" width="5" x="1156.875" y="816.25"/><rect fill="#FEFECE" height="2.5" style="stroke: #A80036; stroke-width: 1.875;" width="5" x="1156.875" y="821.25"/><text fill="#000000" font-family="sans-serif" font-size="17.5" lengthAdjust="spacingAndGlyphs" textLength="161.25" x="991.875" y="850.6665">Machine Manager UI</text><!--MD5=[066ef1dac2fa6412368fd4a6a202e1d0]
entity CP--><rect fill="#FEFECE" filter="url(#fyau27q7n316t)" height="59.5117" style="stroke: #A80036; stroke-width: 1.875;" width="127.5" x="71.25" y="214.375"/><rect fill="#FEFECE" height="12.5" style="stroke: #A80036; stroke-width: 1.875;" width="18.75" x="173.75" y="220.625"/><rect fill="#FEFECE" height="2.5" style="stroke: #A80036; stroke-width: 1.875;" width="5" x="171.25" y="223.125"/><rect fill="#FEFECE" height="2.5" style="stroke: #A80036; stroke-width: 1.875;" width="5" x="171.25" y="228.125"/><text fill="#000000" font-family="sans-serif" font-size="17.5" lengthAdjust="spacingAndGlyphs" textLength="77.5" x="90" y="257.5415">Payments</text><!--MD5=[7d1306c14304a8aeb36c748a1de597ae]
entity CMa--><rect fill="#FEFECE" filter="url(#fyau27q7n316t)" height="59.5117" style="stroke: #A80036; stroke-width: 1.875;" width="116.25" x="508.125" y="807.5"/><rect fill="#FEFECE" height="12.5" style="stroke: #A80036; stroke-width: 1.875;" width="18.75" x="599.375" y="813.75"/><rect fill="#FEFECE" height="2.5" style="stroke: #A80036; stroke-width: 1.875;" width="5" x="596.875" y="816.25"/><rect fill="#FEFECE" height="2.5" style="stroke: #A80036; stroke-width: 1.875;" width="5" x="596.875" y="821.25"/><text fill="#000000" font-family="sans-serif" font-size="17.5" lengthAdjust="spacingAndGlyphs" textLength="66.25" x="526.875" y="850.6665">Machine</text><!--MD5=[7b252b082557083cb6afa3ae89fae9bf]
entity CA--><rect fill="#FEFECE" filter="url(#fyau27q7n316t)" height="59.5117" style="stroke: #A80036; stroke-width: 1.875;" width="157.5" x="958.75" y="33.125"/><rect fill="#FEFECE" height="12.5" style="stroke: #A80036; stroke-width: 1.875;" width="18.75" x="1091.25" y="39.375"/><rect fill="#FEFECE" height="2.5" style="stroke: #A80036; stroke-width: 1.875;" width="5" x="1088.75" y="41.875"/><rect fill="#FEFECE" height="2.5" style="stroke: #A80036; stroke-width: 1.875;" width="5" x="1088.75" y="46.875"/><text fill="#000000" font-family="sans-serif" font-size="17.5" lengthAdjust="spacingAndGlyphs" textLength="107.5" x="977.5" y="76.2915">OAuth Server</text><!--MD5=[0ef9057800571c1cb4bd5813faf3e12a]
entity CQ--><rect fill="#FEFECE" filter="url(#fyau27q7n316t)" height="59.5117" style="stroke: #A80036; stroke-width: 1.875;" width="103.75" x="735.625" y="807.5"/><rect fill="#FEFECE" height="12.5" style="stroke: #A80036; stroke-width: 1.875;" width="18.75" x="814.375" y="813.75"/><rect fill="#FEFECE" height="2.5" style="stroke: #A80036; stroke-width: 1.875;" width="5" x="811.875" y="816.25"/><rect fill="#FEFECE" height="2.5" style="stroke: #A80036; stroke-width: 1.875;" width="5" x="811.875" y="821.25"/><text fill="#000000" font-family="sans-serif" font-size="17.5" lengthAdjust="spacingAndGlyphs" textLength="53.75" x="754.375" y="850.6665">Queue</text><!--MD5=[c6a628d096a97a9e01514cb399814b6e]
entity ICLoCLa--><ellipse cx="380" cy="410" fill="#FEFECE" filter="url(#fyau27q7n316t)" rx="10" ry="10" style="stroke: #A80036; stroke-width: 2.5;"/><text fill="#000000" font-family="sans-serif" font-size="17.5" lengthAdjust="spacingAndGlyphs" textLength="133.75" x="313.125" y="449.4165">/logger/launcher/</text><!--MD5=[93257e81970ddbb29d9f7f54aac9d479]
entity ICLoCMa--><ellipse cx="166.25" cy="695" fill="#FEFECE" filter="url(#fyau27q7n316t)" rx="10" ry="10" style="stroke: #A80036; stroke-width: 2.5;"/><text fill="#000000" font-family="sans-serif" font-size="17.5" lengthAdjust="spacingAndGlyphs" textLength="131.25" x="100.625" y="734.4165">/logger/machine/</text><!--MD5=[a5a6755f4ad4879a5d1f553901fd0c13]
entity ICMCMa--><ellipse cx="625" cy="695" fill="#FEFECE" filter="url(#fyau27q7n316t)" rx="10" ry="10" style="stroke: #A80036; stroke-width: 2.5;"/><text fill="#000000" font-family="sans-serif" font-size="17.5" lengthAdjust="spacingAndGlyphs" textLength="232.5" x="508.75" y="734.4165">/machine-manager/machines/</text><!--MD5=[9d42982d321b807ee3a6490f22d698c0]
entity ICMCLa--><ellipse cx="623.75" cy="410" fill="#FEFECE" filter="url(#fyau27q7n316t)" rx="10" ry="10" style="stroke: #A80036; stroke-width: 2.5;"/><text fill="#000000" font-family="sans-serif" font-size="17.5" lengthAdjust="spacingAndGlyphs" textLength="226.25" x="510.625" y="449.4165">/machine-manager/launcher/</text><!--MD5=[b7af15a0bb0eead3a1db244dc7b86c22]
entity ICLiCLa--><ellipse cx="377.5" cy="63.125" fill="#FEFECE" filter="url(#fyau27q7n316t)" rx="10" ry="10" style="stroke: #A80036; stroke-width: 2.5;"/><text fill="#000000" font-family="sans-serif" font-size="17.5" lengthAdjust="spacingAndGlyphs" textLength="132.5" x="311.25" y="102.5415">/library/launcher/</text><!--MD5=[7a48bb5bd5da374a476b93adb72f8296]
entity ICPCLa--><ellipse cx="257.5" cy="244.375" fill="#FEFECE" filter="url(#fyau27q7n316t)" rx="10" ry="10" style="stroke: #A80036; stroke-width: 2.5;"/><text fill="#000000" font-family="sans-serif" font-size="17.5" lengthAdjust="spacingAndGlyphs" textLength="160" x="177.5" y="283.7915">/payments/launcher/</text><!--MD5=[a271f9e37265cf2a32080008518b457d]
entity ICPCM--><ellipse cx="133.75" cy="410" fill="#FEFECE" filter="url(#fyau27q7n316t)" rx="10" ry="10" style="stroke: #A80036; stroke-width: 2.5;"/><text fill="#000000" font-family="sans-serif" font-size="17.5" lengthAdjust="spacingAndGlyphs" textLength="233.75" x="16.875" y="449.4165">/payments/machine-manager/</text><!--MD5=[84e18eac2ba66e4b88e3eaf9aab3c71e]
entity ICLiAD--><ellipse cx="596.25" cy="63.125" fill="#FEFECE" filter="url(#fyau27q7n316t)" rx="10" ry="10" style="stroke: #A80036; stroke-width: 2.5;"/><text fill="#000000" font-family="sans-serif" font-size="17.5" lengthAdjust="spacingAndGlyphs" textLength="92.5" x="550" y="102.5415">/library/dev/</text><!--MD5=[827f23a2a30008c3d2b787ace1ad4f12]
entity ICMAS--><ellipse cx="1031.25" cy="552.5" fill="#FEFECE" filter="url(#fyau27q7n316t)" rx="10" ry="10" style="stroke: #A80036; stroke-width: 2.5;"/><text fill="#000000" font-family="sans-serif" font-size="17.5" lengthAdjust="spacingAndGlyphs" textLength="260" x="901.25" y="591.9165">/machine-manager/management/</text><!--MD5=[9c5ef54d6c74f25c81d411c324de82aa]
entity ICLaAU--><ellipse cx="495" cy="244.375" fill="#FEFECE" filter="url(#fyau27q7n316t)" rx="10" ry="10" style="stroke: #A80036; stroke-width: 2.5;"/><text fill="#000000" font-family="sans-serif" font-size="17.5" lengthAdjust="spacingAndGlyphs" textLength="155" x="417.5" y="283.7915">/launcher/app-user/</text><!--MD5=[a4b81b68d32c6768dd73d20f597a08e4]
entity ICMaCM--><ellipse cx="370" cy="695" fill="#FEFECE" filter="url(#fyau27q7n316t)" rx="10" ry="10" style="stroke: #A80036; stroke-width: 2.5;"/><text fill="#000000" font-family="sans-serif" font-size="17.5" lengthAdjust="spacingAndGlyphs" textLength="151.25" x="294.375" y="734.4165">/machine/manager/</text><!--MD5=[020dfa538be32c68e7033e9c4d50a513]
entity ICQ--><ellipse cx="680" cy="837.5" fill="#FEFECE" filter="url(#fyau27q7n316t)" rx="10" ry="10" style="stroke: #A80036; stroke-width: 2.5;"/><text fill="#000000" font-family="sans-serif" font-size="17.5" lengthAdjust="spacingAndGlyphs" textLength="60" x="650" y="876.9165">/queue/</text><!--MD5=[c01cfe8b7786fac9ac37580adbfc7ce1]
entity ICA--><ellipse cx="1037.5" cy="244.375" fill="#FEFECE" filter="url(#fyau27q7n316t)" rx="10" ry="10" style="stroke: #A80036; stroke-width: 2.5;"/><text fill="#000000" font-family="sans-serif" font-size="17.5" lengthAdjust="spacingAndGlyphs" textLength="45" x="1015" y="283.7915">/auth/</text><!--MD5=[ef883a676d198a9e4dd17bd57a40d3c1]
reverse link AU to AA--><path d="M837.0475,244.375 C843.2013,244.375 849.3563,244.375 855.51,244.375 " fill="none" id="AU&lt;-AA" style="stroke: #A80036; stroke-width: 1.25;"/><polygon fill="none" points="836.7475,253.125,811.7475,244.375,836.7475,235.625,836.7475,253.125" style="stroke: #A80036; stroke-width: 1.25;"/><!--MD5=[30f85a35ea76998d5dca0a9e6159185f]
reverse link AD to AA--><path d="M887.5687,141.3313 C890.865,158.1675 894.2788,175.6037 897.33,191.1862 " fill="none" id="AD&lt;-AA" style="stroke: #A80036; stroke-width: 1.25;"/><polygon fill="none" points="878.935,142.7725,882.7175,116.5575,896.1087,139.41,878.935,142.7725" style="stroke: #A80036; stroke-width: 1.25;"/><!--MD5=[4e95a7d6e9033432487c0331d714ce1d]
link AA to AS--><path d="M907.1587,297.5387 C906.7888,358.3437 906.25,462.1088 906.25,551.25 C906.25,551.25 906.25,551.25 906.25,696.25 C906.25,771.15 906.25,856.6338 906.25,916.8038 " fill="none" id="AA-&gt;AS" style="stroke: #A80036; stroke-width: 1.25;"/><polygon fill="none" points="915,917.1363,906.25,942.1365,897.5,917.1363,915,917.1363" style="stroke: #A80036; stroke-width: 1.25;"/><!--MD5=[b8e448e63d69cb99bb243c54139c515a]
link CA to ICA--><path d="M1037.5,93.4925 C1037.5,134.25 1037.5,206.3038 1037.5,232.895 " fill="none" id="CA-ICA" style="stroke: #A80036; stroke-width: 1.25;"/><!--MD5=[0b4b7e73e2cca185d2964d2fbcf7464b]
reverse link CLiU to AD--><path d="M786.85,63.125 C801.7388,63.125 816.6288,63.125 831.5175,63.125 " fill="none" id="CLiU&lt;-AD" style="stroke: #A80036; stroke-width: 1.25;"/><polygon fill="#A80036" points="780.4688,63.125,791.7188,68.125,786.7188,63.125,791.7188,58.125,780.4688,63.125" style="stroke: #A80036; stroke-width: 1.25;"/><!--MD5=[75fd02c551a3d1543d2cbb454a547f98]
reverse link ICLiAD to CLiU--><path d="M620.1588,63.125 C631.7163,63.125 643.275,63.125 654.8325,63.125 " fill="none" id="ICLiAD&lt;-CLiU" style="stroke: #A80036; stroke-width: 1.25;"/><path d="M611.4652,73.6965 A11.25,11.25 0 0 0 611.4652 52.5535" fill="none" style="stroke: #A80036; stroke-width: 1.875;"/><!--MD5=[5953600adf53ba16e70e80aa29481ab4]
link CLi to ICLiAD--><path d="M539.1013,63.125 C554.2813,63.125 569.4613,63.125 584.6413,63.125 " fill="none" id="CLi-ICLiAD" style="stroke: #A80036; stroke-width: 1.25;"/><!--MD5=[9d567a73333acdaeabc16a3d9c944d68]
reverse link CMU to AS--><path d="M1041.9325,871.965 C1011.4913,899.4288 968.6475,938.0819 939.295,964.5631 " fill="none" id="CMU&lt;-AS" style="stroke: #A80036; stroke-width: 1.25;"/><polygon fill="#A80036" points="1046.7088,867.6575,1035.0066,871.4813,1042.0683,871.8442,1041.7054,878.906,1046.7088,867.6575" style="stroke: #A80036; stroke-width: 1.25;"/><!--MD5=[6fac36503a5bf1a295a0fc97aa54aeee]
reverse link ICMAS to CMU--><path d="M1035.0525,576.3625 C1043.6038,627.22 1064.345,750.5813 1073.8475,807.0963 " fill="none" id="ICMAS&lt;-CMU" style="stroke: #A80036; stroke-width: 1.25;"/><path d="M1023.1523,569.3502 A11.25,11.25 0 0 0 1044.003 565.8464" fill="none" style="stroke: #A80036; stroke-width: 1.875;"/><!--MD5=[eff116ff5c25ce1b56a951e0a3de3d1a]
link CM to ICMAS--><path d="M719.6563,552.5 C819.6663,552.5 919.6763,552.5 1019.6875,552.5 " fill="none" id="CM-ICMAS" style="stroke: #A80036; stroke-width: 1.25;"/><!--MD5=[6e068595f6b373895ac37eb521b510aa]
reverse link CLaU to AU--><path d="M701.5625,244.375 C713.7775,244.375 725.9913,244.375 738.2063,244.375 " fill="none" id="CLaU&lt;-AU" style="stroke: #A80036; stroke-width: 1.25;"/><polygon fill="#A80036" points="695.1763,244.375,706.4263,249.375,701.4263,244.375,706.4263,239.375,695.1763,244.375" style="stroke: #A80036; stroke-width: 1.25;"/><!--MD5=[573e7c99338458230ed9cd3fe5686884]
reverse link ICLaAU to CLaU--><path d="M519.0337,244.375 C529.3462,244.375 539.6587,244.375 549.9725,244.375 " fill="none" id="ICLaAU&lt;-CLaU" style="stroke: #A80036; stroke-width: 1.25;"/><path d="M510.3027,254.9465 A11.25,11.25 0 0 0 510.3027 233.8035" fill="none" style="stroke: #A80036; stroke-width: 1.875;"/><!--MD5=[3313b18ba8cd5e2c64f67afc3389f40d]
link CLa to ICLaAU--><path d="M440.3813,244.375 C454.7463,244.375 469.1125,244.375 483.4788,244.375 " fill="none" id="CLa-ICLaAU" style="stroke: #A80036; stroke-width: 1.25;"/><!--MD5=[c3e65a8bb4d1b4e2de96d53e9e6ef334]
link ICLiCLa to CLi--><path d="M388.97,63.125 C403.79,63.125 418.61,63.125 433.43,63.125 " fill="none" id="ICLiCLa-CLi" style="stroke: #A80036; stroke-width: 1.25;"/><!--MD5=[3d9a236e25bdd7bd4020069882b9533b]
reverse link ICLiCLa to CLa--><path d="M377.5,87.3 C377.5,119.645 377.5,178.6675 377.5,214.0525 " fill="none" id="ICLiCLa&lt;-CLa" style="stroke: #A80036; stroke-width: 1.25;"/><path d="M366.9285,78.3452 A11.25,11.25 0 0 0 388.0715 78.3452" fill="none" style="stroke: #A80036; stroke-width: 1.875;"/><!--MD5=[b0fef91c0769a145f5583a9b7891c06d]
link CLa to ICMCLa--><path d="M420.9575,274.4125 C473.7388,309.3762 560.7488,367.015 601.4538,393.98 " fill="none" id="CLa-&gt;ICMCLa" style="stroke: #A80036; stroke-width: 1.25;"/><path d="M614.7088,390.0796 A11.25,11.25 0 0 0 603.031 407.7051" fill="none" style="stroke: #A80036; stroke-width: 1.875;"/><!--MD5=[c6d85754455067e8d34eb99addf17e09]
link ICMCLa to CM--><path d="M623.75,421.3188 C623.75,442.1337 623.75,490.5863 623.75,522.0825 " fill="none" id="ICMCLa-CM" style="stroke: #A80036; stroke-width: 1.25;"/><!--MD5=[d503f141600181c7291041abdf084bdc]
link CM to ICMCMa--><path d="M624.0088,582.7575 C624.2887,614.1538 624.7212,662.5363 624.9088,683.4913 " fill="none" id="CM-ICMCMa" style="stroke: #A80036; stroke-width: 1.25;"/><!--MD5=[676ceb828103b1b2d543a41a9124a9e0]
reverse link ICMCMa to CMa--><path d="M615.9025,717.93 C605.86,741.8613 589.6413,780.5075 578.49,807.0825 " fill="none" id="ICMCMa&lt;-CMa" style="stroke: #A80036; stroke-width: 1.25;"/><path d="M609.5381,705.7757 A11.25,11.25 0 0 0 629.0339 713.9576" fill="none" style="stroke: #A80036; stroke-width: 1.875;"/><!--MD5=[517c657fcfd08da73dfb8bd90adb35c0]
link CM to ICMaCM--><path d="M571.1725,582.7575 C516.4188,612.9675 433.1613,658.9025 393.1113,680.9988 " fill="none" id="CM-&gt;ICMaCM" style="stroke: #A80036; stroke-width: 1.25;"/><path d="M390.1926,694.6819 A11.25,11.25 0 0 0 379.9777 676.1701" fill="none" style="stroke: #A80036; stroke-width: 1.875;"/><!--MD5=[2c696636d786bc5bf4f392559d4ba00e]
link ICMaCM to CMa--><path d="M381.6888,704.5888 C409.415,724.3675 480.2338,774.8888 525.6463,807.285 " fill="none" id="ICMaCM-CMa" style="stroke: #A80036; stroke-width: 1.25;"/><!--MD5=[82448dd99e68a4fea9609aa3f63059af]
reverse link CMa to AS--><path d="M630.7063,868.2525 C703.1563,901.415 817.9263,953.9474 873.6913,979.4723 " fill="none" id="CMa&lt;-AS" style="stroke: #A80036; stroke-width: 1.25;"/><polygon fill="#A80036" points="624.6975,865.5025,632.8457,874.7312,630.3804,868.1038,637.0078,865.6385,624.6975,865.5025" style="stroke: #A80036; stroke-width: 1.25;"/><!--MD5=[65880657afef6bb7808aaadc4cc03227]
link CP to ICPCLa--><path d="M199.1213,244.375 C214.78,244.375 230.4388,244.375 246.0975,244.375 " fill="none" id="CP-ICPCLa" style="stroke: #A80036; stroke-width: 1.25;"/><!--MD5=[8c93f9d444b72431441c8f84c4cc0bd7]
reverse link ICPCLa to CLa--><path d="M282.0662,244.375 C293.0113,244.375 303.955,244.375 314.9,244.375 " fill="none" id="ICPCLa&lt;-CLa" style="stroke: #A80036; stroke-width: 1.25;"/><path d="M273.0665,254.9465 A11.25,11.25 0 0 0 273.0665 233.8035" fill="none" style="stroke: #A80036; stroke-width: 1.875;"/><!--MD5=[aedd7ecbc3502cb6d770083d02f60f78]
link CP to ICPCM--><path d="M134.78,274.4125 C134.495,311.5475 134.0138,374.26 133.8275,398.635 " fill="none" id="CP-ICPCM" style="stroke: #A80036; stroke-width: 1.25;"/><!--MD5=[edf4ed3435154ec958f64dd92f157f37]
reverse link ICPCM to CM--><path d="M157.535,418.0463 C223.5175,436.8975 411.6275,490.6437 527.745,523.82 " fill="none" id="ICPCM&lt;-CM" style="stroke: #A80036; stroke-width: 1.25;"/><path d="M146.1744,425.7943 A11.25,11.25 0 0 0 151.9825 405.4646" fill="none" style="stroke: #A80036; stroke-width: 1.875;"/><!--MD5=[4ad2fdb7fb9023daa6b9671719b9dca7]
link CLa to ICLoCLa--><path d="M377.9413,274.4125 C378.4663,308.6463 379.3238,364.6175 379.7475,392.2513 " fill="none" id="CLa-&gt;ICLoCLa" style="stroke: #A80036; stroke-width: 1.25;"/><polygon fill="#A80036" points="379.845,398.635,384.6709,387.3092,379.7486,392.3857,374.672,387.4635,379.845,398.635" style="stroke: #A80036; stroke-width: 1.25;"/><!--MD5=[290dd422d171610ee2d97273efe36bb4]
link ICLoCLa to CLo--><path d="M372.2688,421.3188 C356.2863,442.1337 319.0812,490.5863 294.8963,522.0825 " fill="none" id="ICLoCLa-CLo" style="stroke: #A80036; stroke-width: 1.25;"/><!--MD5=[8c11256d7c4b71ed41c46ef08029ca7c]
link CLo to ICLoCMa--><path d="M250.485,582.7575 C226.6575,614.1538 189.9388,662.5363 174.0363,683.4913 " fill="none" id="CLo-ICLoCMa" style="stroke: #A80036; stroke-width: 1.25;"/><!--MD5=[b0c7fac1af65936a140da80479020bbf]
reverse link ICLoCMa to CMa--><path d="M184.1,703.1625 C203.3763,710.5825 235.02,722.635 262.5,732.5 C347.4663,763.0025 446.5337,796.4475 507.8312,816.895 " fill="none" id="ICLoCMa&lt;-CMa" style="stroke: #A80036; stroke-width: 1.25;"/><polygon fill="#A80036" points="178.06,700.8337,186.7586,709.5456,183.8917,703.0818,190.3555,700.2149,178.06,700.8337" style="stroke: #A80036; stroke-width: 1.25;"/><!--MD5=[4b91f40ab3c7246ac21e526426d23345]
link ICQ to CQ--><path d="M691.3375,837.5 C705.9875,837.5 720.6375,837.5 735.2875,837.5 " fill="none" id="ICQ-CQ" style="stroke: #A80036; stroke-width: 1.25;"/><!--MD5=[7681764080f37bd13a3f64e2ef77b84c]
link CM to ICQ--><path d="M691.0663,582.5463 C721.8088,599.5275 755.1688,624.2813 772.5,657.5 C787.9188,687.0525 784.3688,701.3513 772.5,732.5 C765.0238,752.1213 724.9675,793.0088 700.08,817.1838 " fill="none" id="CM-&gt;ICQ" style="stroke: #A80036; stroke-width: 1.25;"/><path d="M700.8833,831.0771 A11.25,11.25 0 0 0 686.2288 815.8366" fill="none" style="stroke: #A80036; stroke-width: 1.875;"/><!--MD5=[148a9063bf650b69095a41fbfa64f6c8]
link CMa to ICQ--><path d="M624.4575,837.5 C634.9463,837.5 645.435,837.5 655.9238,837.5 " fill="none" id="CMa-&gt;ICQ" style="stroke: #A80036; stroke-width: 1.25;"/><path d="M664.8698,826.9285 A11.25,11.25 0 0 0 664.8698 848.0715" fill="none" style="stroke: #A80036; stroke-width: 1.875;"/><!--MD5=[1a23ec061ba6529e5954a3673ed26f93]
@startuml


skinparam componentStyle uml2



actor "App User" as AU
actor Developer as AD
actor Supplier as AS
actor Administrator as AA

AA -le-|> AU
AA -up-|> AD
AA -do-|> AS

component Launcher as CLa
component "Launcher UI" as CLaU
component Library as CLi
component "Library UI" as CLiU
component Logger as CLo
component "Machine Manager" as CM
component "Machine Manager UI" as CMU
component Payments as CP
component Machine as CMa
component "OAuth Server" as CA
component Queue as CQ

interface "/logger/launcher/" as ICLoCLa
interface "/logger/machine/" as ICLoCMa
interface "/machine-manager/machines/" as ICMCMa
interface "/machine-manager/launcher/" as ICMCLa
interface "/library/launcher/" as ICLiCLa
interface "/payments/launcher/" as ICPCLa
interface "/payments/machine-manager/" as ICPCM
interface "/library/dev/" as ICLiAD
interface "/machine-manager/management/" as ICMAS
interface "/launcher/app-user/" as ICLaAU
interface "/machine/manager/" as ICMaCM
interface "/queue/" as ICQ
interface "/auth/" as ICA

CA -do- ICA

AD -le-> CLiU
CLiU -le-( ICLiAD
ICLiAD -le- CLi

AS -up-> CMU
CMU -up-( ICMAS
ICMAS -le- CM

AU -le-> CLaU
CLaU -le-( ICLaAU
ICLaAU -le- CLa

CLi -le- ICLiCLa
ICLiCLa )-do- CLa

CLa -do-( ICMCLa
ICMCLa -do- CM

CM -do- ICMCMa
ICMCMa )-do- CMa
CM -do-( ICMaCM
ICMaCM -do- CMa

CMa <-do- AS

CP -ri- ICPCLa
ICPCLa )-ri- CLa

CP -do- ICPCM
CM -up-( ICPCM

CLa -do-> ICLoCLa
ICLoCLa -do- CLo
CLo -do- ICLoCMa
ICLoCMa <-do- CMa

CQ -le- ICQ
CM -do-( ICQ
CMa -ri-( ICQ

@enduml

PlantUML version 1.2019.10(Fri Sep 13 22:53:03 CEST 2019)
(GPL source distribution)
Java Runtime: OpenJDK Runtime Environment
JVM: OpenJDK 64-Bit Server VM
Java Version: 11.0.4+10-b304.69
Operating System: Windows 10
Default Encoding: Cp1250
Language: pl
Country: PL
--></g></svg>