<?xml version="1.0" encoding="UTF-8" standalone="no"?><svg xmlns="http://www.w3.org/2000/svg" xmlns:xlink="http://www.w3.org/1999/xlink" contentScriptType="application/ecmascript" contentStyleType="text/css" height="993px" preserveAspectRatio="none" style="width:865px;height:993px;" version="1.1" viewBox="0 0 865 993" width="865px" zoomAndPan="magnify"><defs><filter height="300%" id="fr6vnhxmrgjbi" width="300%" x="-1" y="-1"><feGaussianBlur result="blurOut" stdDeviation="2.0"/><feColorMatrix in="blurOut" result="blurOut2" type="matrix" values="0 0 0 0 0 0 0 0 0 0 0 0 0 0 0 0 0 0 .4 0"/><feOffset dx="4.0" dy="4.0" in="blurOut2" result="blurOut3"/><feBlend in="SourceGraphic" in2="blurOut3" mode="normal"/></filter></defs><g><!--entity AU--><ellipse cx="484" cy="283" fill="#FEFECE" filter="url(#fr6vnhxmrgjbi)" rx="8" ry="8" style="stroke: #A80036; stroke-width: 2.0;"/><path d="M484,291 L484,318 M471,299 L497,299 M484,318 L471,333 M484,318 L497,333 " fill="none" filter="url(#fr6vnhxmrgjbi)" style="stroke: #A80036; stroke-width: 2.0;"/><text fill="#000000" font-family="sans-serif" font-size="14" lengthAdjust="spacingAndGlyphs" textLength="58" x="455" y="354.5332">App User</text><!--entity AD--><ellipse cx="350" cy="18" fill="#FEFECE" filter="url(#fr6vnhxmrgjbi)" rx="8" ry="8" style="stroke: #A80036; stroke-width: 2.0;"/><path d="M350,26 L350,53 M337,34 L363,34 M350,53 L337,68 M350,53 L363,68 " fill="none" filter="url(#fr6vnhxmrgjbi)" style="stroke: #A80036; stroke-width: 2.0;"/><text fill="#000000" font-family="sans-serif" font-size="14" lengthAdjust="spacingAndGlyphs" textLength="65" x="317.5" y="89.5332">Developer</text><!--entity AS--><ellipse cx="647" cy="908" fill="#FEFECE" filter="url(#fr6vnhxmrgjbi)" rx="8" ry="8" style="stroke: #A80036; stroke-width: 2.0;"/><path d="M647,916 L647,943 M634,924 L660,924 M647,943 L634,958 M647,943 L660,958 " fill="none" filter="url(#fr6vnhxmrgjbi)" style="stroke: #A80036; stroke-width: 2.0;"/><text fill="#000000" font-family="sans-serif" font-size="14" lengthAdjust="spacingAndGlyphs" textLength="52" x="621" y="979.5332">Supplier</text><!--entity AA--><ellipse cx="590" cy="283" fill="#FEFECE" filter="url(#fr6vnhxmrgjbi)" rx="8" ry="8" style="stroke: #A80036; stroke-width: 2.0;"/><path d="M590,291 L590,318 M577,299 L603,299 M590,318 L577,333 M590,318 L603,333 " fill="none" filter="url(#fr6vnhxmrgjbi)" style="stroke: #A80036; stroke-width: 2.0;"/><text fill="#000000" font-family="sans-serif" font-size="14" lengthAdjust="spacingAndGlyphs" textLength="83" x="548.5" y="354.5332">Administrator</text><!--entity CLa--><rect fill="#FEFECE" filter="url(#fr6vnhxmrgjbi)" height="47.6094" style="stroke: #A80036; stroke-width: 1.5;" width="100" x="267" y="291.5"/><rect fill="#FEFECE" height="10" style="stroke: #A80036; stroke-width: 1.5;" width="15" x="347" y="296.5"/><rect fill="#FEFECE" height="2" style="stroke: #A80036; stroke-width: 1.5;" width="4" x="345" y="298.5"/><rect fill="#FEFECE" height="2" style="stroke: #A80036; stroke-width: 1.5;" width="4" x="345" y="302.5"/><text fill="#000000" font-family="sans-serif" font-size="14" lengthAdjust="spacingAndGlyphs" textLength="60" x="282" y="326.0332">Launcher</text><!--entity CLi--><rect fill="#FEFECE" filter="url(#fr6vnhxmrgjbi)" height="47.6094" style="stroke: #A80036; stroke-width: 1.5;" width="84" x="471" y="26.5"/><rect fill="#FEFECE" height="10" style="stroke: #A80036; stroke-width: 1.5;" width="15" x="535" y="31.5"/><rect fill="#FEFECE" height="2" style="stroke: #A80036; stroke-width: 1.5;" width="4" x="533" y="33.5"/><rect fill="#FEFECE" height="2" style="stroke: #A80036; stroke-width: 1.5;" width="4" x="533" y="37.5"/><text fill="#000000" font-family="sans-serif" font-size="14" lengthAdjust="spacingAndGlyphs" textLength="44" x="486" y="61.0332">Library</text><!--entity CLo--><rect fill="#FEFECE" filter="url(#fr6vnhxmrgjbi)" height="47.6094" style="stroke: #A80036; stroke-width: 1.5;" width="85" x="243.5" y="544"/><rect fill="#FEFECE" height="10" style="stroke: #A80036; stroke-width: 1.5;" width="15" x="308.5" y="549"/><rect fill="#FEFECE" height="2" style="stroke: #A80036; stroke-width: 1.5;" width="4" x="306.5" y="551"/><rect fill="#FEFECE" height="2" style="stroke: #A80036; stroke-width: 1.5;" width="4" x="306.5" y="555"/><text fill="#000000" font-family="sans-serif" font-size="14" lengthAdjust="spacingAndGlyphs" textLength="45" x="258.5" y="578.5332">Logger</text><!--entity CM--><rect fill="#FEFECE" filter="url(#fr6vnhxmrgjbi)" height="47.6094" style="stroke: #A80036; stroke-width: 1.5;" width="153" x="403.5" y="664"/><rect fill="#FEFECE" height="10" style="stroke: #A80036; stroke-width: 1.5;" width="15" x="536.5" y="669"/><rect fill="#FEFECE" height="2" style="stroke: #A80036; stroke-width: 1.5;" width="4" x="534.5" y="671"/><rect fill="#FEFECE" height="2" style="stroke: #A80036; stroke-width: 1.5;" width="4" x="534.5" y="675"/><text fill="#000000" font-family="sans-serif" font-size="14" lengthAdjust="spacingAndGlyphs" textLength="113" x="418.5" y="698.5332">Machine Manager</text><!--entity CP--><rect fill="#FEFECE" filter="url(#fr6vnhxmrgjbi)" height="47.6094" style="stroke: #A80036; stroke-width: 1.5;" width="102" x="83" y="26.5"/><rect fill="#FEFECE" height="10" style="stroke: #A80036; stroke-width: 1.5;" width="15" x="165" y="31.5"/><rect fill="#FEFECE" height="2" style="stroke: #A80036; stroke-width: 1.5;" width="4" x="163" y="33.5"/><rect fill="#FEFECE" height="2" style="stroke: #A80036; stroke-width: 1.5;" width="4" x="163" y="37.5"/><text fill="#000000" font-family="sans-serif" font-size="14" lengthAdjust="spacingAndGlyphs" textLength="62" x="98" y="61.0332">Payments</text><!--entity CMa--><rect fill="#FEFECE" filter="url(#fr6vnhxmrgjbi)" height="47.6094" style="stroke: #A80036; stroke-width: 1.5;" width="93" x="332.5" y="916.5"/><rect fill="#FEFECE" height="10" style="stroke: #A80036; stroke-width: 1.5;" width="15" x="405.5" y="921.5"/><rect fill="#FEFECE" height="2" style="stroke: #A80036; stroke-width: 1.5;" width="4" x="403.5" y="923.5"/><rect fill="#FEFECE" height="2" style="stroke: #A80036; stroke-width: 1.5;" width="4" x="403.5" y="927.5"/><text fill="#000000" font-family="sans-serif" font-size="14" lengthAdjust="spacingAndGlyphs" textLength="53" x="347.5" y="951.0332">Machine</text><!--entity CA--><rect fill="#FEFECE" filter="url(#fr6vnhxmrgjbi)" height="47.6094" style="stroke: #A80036; stroke-width: 1.5;" width="69" x="723.5" y="26.5"/><rect fill="#FEFECE" height="10" style="stroke: #A80036; stroke-width: 1.5;" width="15" x="772.5" y="31.5"/><rect fill="#FEFECE" height="2" style="stroke: #A80036; stroke-width: 1.5;" width="4" x="770.5" y="33.5"/><rect fill="#FEFECE" height="2" style="stroke: #A80036; stroke-width: 1.5;" width="4" x="770.5" y="37.5"/><text fill="#000000" font-family="sans-serif" font-size="14" lengthAdjust="spacingAndGlyphs" textLength="29" x="738.5" y="61.0332">Auth</text><!--entity ICA--><ellipse cx="703" cy="183" fill="#FEFECE" filter="url(#fr6vnhxmrgjbi)" rx="8" ry="8" style="stroke: #A80036; stroke-width: 2.0;"/><text fill="#000000" font-family="sans-serif" font-size="14" lengthAdjust="spacingAndGlyphs" textLength="36" x="685" y="214.5332">/auth/</text><!--entity ICAOther--><ellipse cx="813" cy="183" fill="#FEFECE" filter="url(#fr6vnhxmrgjbi)" rx="8" ry="8" style="stroke: #A80036; stroke-width: 2.0;"/><text fill="#000000" font-family="sans-serif" font-size="14" lengthAdjust="spacingAndGlyphs" textLength="80" x="773" y="214.5332">Client OAuth</text><!--entity ICLoCLa--><ellipse cx="294" cy="448" fill="#FEFECE" filter="url(#fr6vnhxmrgjbi)" rx="8" ry="8" style="stroke: #A80036; stroke-width: 2.0;"/><text fill="#000000" font-family="sans-serif" font-size="14" lengthAdjust="spacingAndGlyphs" textLength="107" x="240.5" y="479.5332">/logger/launcher/</text><!--entity ICLoCMa--><ellipse cx="214" cy="688" fill="#FEFECE" filter="url(#fr6vnhxmrgjbi)" rx="8" ry="8" style="stroke: #A80036; stroke-width: 2.0;"/><text fill="#000000" font-family="sans-serif" font-size="14" lengthAdjust="spacingAndGlyphs" textLength="105" x="161.5" y="719.5332">/logger/machine/</text><!--entity ICMCMa--><ellipse cx="499" cy="808" fill="#FEFECE" filter="url(#fr6vnhxmrgjbi)" rx="8" ry="8" style="stroke: #A80036; stroke-width: 2.0;"/><text fill="#000000" font-family="sans-serif" font-size="14" lengthAdjust="spacingAndGlyphs" textLength="179" x="409.5" y="839.5332">/machine-manager/machine/</text><!--entity ICLiAA--><ellipse cx="589" cy="183" fill="#FEFECE" filter="url(#fr6vnhxmrgjbi)" rx="8" ry="8" style="stroke: #A80036; stroke-width: 2.0;"/><text fill="#000000" font-family="sans-serif" font-size="14" lengthAdjust="spacingAndGlyphs" textLength="89" x="544.5" y="214.5332">/library/admin/</text><!--entity ICMAA--><ellipse cx="605" cy="448" fill="#FEFECE" filter="url(#fr6vnhxmrgjbi)" rx="8" ry="8" style="stroke: #A80036; stroke-width: 2.0;"/><text fill="#000000" font-family="sans-serif" font-size="14" lengthAdjust="spacingAndGlyphs" textLength="164" x="523" y="479.5332">/machine-manager/admin/</text><!--entity ICMCLa--><ellipse cx="462" cy="568" fill="#FEFECE" filter="url(#fr6vnhxmrgjbi)" rx="8" ry="8" style="stroke: #A80036; stroke-width: 2.0;"/><text fill="#000000" font-family="sans-serif" font-size="14" lengthAdjust="spacingAndGlyphs" textLength="181" x="371.5" y="599.5332">/machine-manager/launcher/</text><!--entity ICLiCLa--><ellipse cx="438" cy="183" fill="#FEFECE" filter="url(#fr6vnhxmrgjbi)" rx="8" ry="8" style="stroke: #A80036; stroke-width: 2.0;"/><text fill="#000000" font-family="sans-serif" font-size="14" lengthAdjust="spacingAndGlyphs" textLength="106" x="385" y="214.5332">/library/launcher/</text><!--entity ICPCLa--><ellipse cx="265" cy="183" fill="#FEFECE" filter="url(#fr6vnhxmrgjbi)" rx="8" ry="8" style="stroke: #A80036; stroke-width: 2.0;"/><text fill="#000000" font-family="sans-serif" font-size="14" lengthAdjust="spacingAndGlyphs" textLength="128" x="201" y="214.5332">/payments/launcher/</text><!--entity ICPCM--><ellipse cx="107" cy="568" fill="#FEFECE" filter="url(#fr6vnhxmrgjbi)" rx="8" ry="8" style="stroke: #A80036; stroke-width: 2.0;"/><text fill="#000000" font-family="sans-serif" font-size="14" lengthAdjust="spacingAndGlyphs" textLength="187" x="13.5" y="599.5332">/payments/machine-manager/</text><!--entity ICLiAD--><ellipse cx="427" cy="50.5" fill="#FEFECE" filter="url(#fr6vnhxmrgjbi)" rx="8" ry="8" style="stroke: #A80036; stroke-width: 2.0;"/><text fill="#000000" font-family="sans-serif" font-size="14" lengthAdjust="spacingAndGlyphs" textLength="74" x="390" y="82.0332">/library/dev/</text><!--entity ICMAS--><ellipse cx="727" cy="808" fill="#FEFECE" filter="url(#fr6vnhxmrgjbi)" rx="8" ry="8" style="stroke: #A80036; stroke-width: 2.0;"/><text fill="#000000" font-family="sans-serif" font-size="14" lengthAdjust="spacingAndGlyphs" textLength="176" x="639" y="839.5332">/machine-manager/supplier/</text><!--entity ICLaAU--><ellipse cx="411" cy="315.5" fill="#FEFECE" filter="url(#fr6vnhxmrgjbi)" rx="8" ry="8" style="stroke: #A80036; stroke-width: 2.0;"/><text fill="#000000" font-family="sans-serif" font-size="14" lengthAdjust="spacingAndGlyphs" textLength="95" x="363.5" y="347.0332">/launcher/user/</text><!--entity ICMaCM--><ellipse cx="299" cy="808" fill="#FEFECE" filter="url(#fr6vnhxmrgjbi)" rx="8" ry="8" style="stroke: #A80036; stroke-width: 2.0;"/><text fill="#000000" font-family="sans-serif" font-size="14" lengthAdjust="spacingAndGlyphs" textLength="121" x="238.5" y="839.5332">/machine/manager/</text><!--link AU to AA--><path d="M533.638,315.5 C538.561,315.5 543.485,315.5 548.408,315.5 " fill="none" id="AU-AA" style="stroke: #A80036; stroke-width: 1.0;"/><polygon fill="none" points="533.398,322.5,513.398,315.5,533.398,308.5,533.398,322.5" style="stroke: #A80036; stroke-width: 1.0;"/><!--link CA to ICA--><path d="M748.294,74.53 C735.773,104.238 714.629,154.408 706.41,173.908 " fill="none" id="CA-ICA" style="stroke: #A80036; stroke-width: 1.0;"/><!--link CA to ICAOther--><path d="M767.706,74.53 C778.564,100.293 795.907,141.443 805.682,164.635 " fill="none" id="CA-ICAOther" style="stroke: #A80036; stroke-width: 1.0;"/><path d="M816.1874,167.7864 A9,9 0 0 0 800.6012 174.3567" fill="none" style="stroke: #A80036; stroke-width: 1.5;"/><!--link AD to ICLiAD--><path d="M382.785,50.5 C392.688,50.5 402.592,50.5 412.495,50.5 " fill="none" id="AD-ICLiAD" style="stroke: #A80036; stroke-width: 1.0;"/><polygon fill="#A80036" points="417.673,50.5,408.673,46.5,412.673,50.5,408.673,54.5,417.673,50.5" style="stroke: #A80036; stroke-width: 1.0;"/><!--link ICLiAD to CLi--><path d="M436.07,50.5 C447.69,50.5 459.309,50.5 470.929,50.5 " fill="none" id="ICLiAD-CLi" style="stroke: #A80036; stroke-width: 1.0;"/><!--link ICMAS to AS--><path d="M719.229,821.676 C708.53,839.13 688.75,871.396 672.591,897.7548 " fill="none" id="ICMAS-AS" style="stroke: #A80036; stroke-width: 1.0;"/><polygon fill="#A80036" points="721.996,817.163,713.8824,822.746,719.3831,821.4259,720.7031,826.9266,721.996,817.163" style="stroke: #A80036; stroke-width: 1.0;"/><!--link CM to ICMAS--><path d="M528.21,712.032 C588.58,740.872 687.761,788.254 717.982,802.692 " fill="none" id="CM-ICMAS" style="stroke: #A80036; stroke-width: 1.0;"/><!--link ICLaAU to AU--><path d="M425.236,315.5 C435.01,315.5 444.784,315.5 454.558,315.5 " fill="none" id="ICLaAU-AU" style="stroke: #A80036; stroke-width: 1.0;"/><polygon fill="#A80036" points="420.125,315.5,429.125,319.5,425.125,315.5,429.125,311.5,420.125,315.5" style="stroke: #A80036; stroke-width: 1.0;"/><!--link CLa to ICLaAU--><path d="M367.305,315.5 C378.797,315.5 390.29,315.5 401.783,315.5 " fill="none" id="CLa-ICLaAU" style="stroke: #A80036; stroke-width: 1.0;"/><!--link CLi to ICLiCLa--><path d="M499.764,74.53 C482.691,104.238 453.857,154.408 442.65,173.908 " fill="none" id="CLi-ICLiCLa" style="stroke: #A80036; stroke-width: 1.0;"/><!--link ICLiCLa to CLa--><path d="M423.537,199.599 C402.407,222.387 362.955,264.937 338.443,291.374 " fill="none" id="ICLiCLa-CLa" style="stroke: #A80036; stroke-width: 1.0;"/><path d="M422.1363,188.6703 A9,9 0 0 0 434.54 200.1702" fill="none" style="stroke: #A80036; stroke-width: 1.5;"/><!--link CLa to ICMCLa--><path d="M330.381,339.617 C359.26,389.508 426.862,506.297 452.188,550.05 " fill="none" id="CLa-ICMCLa" style="stroke: #A80036; stroke-width: 1.0;"/><path d="M463.0769,551.9786 A9,9 0 0 0 448.4374 560.4511" fill="none" style="stroke: #A80036; stroke-width: 1.5;"/><!--link ICMCLa to CM--><path d="M463.237,577.111 C465.922,594.71 472.367,636.963 476.438,663.65 " fill="none" id="ICMCLa-CM" style="stroke: #A80036; stroke-width: 1.0;"/><!--link CM to ICMCMa--><path d="M483.708,712.032 C488.007,738.726 494.863,781.305 497.703,798.942 " fill="none" id="CM-ICMCMa" style="stroke: #A80036; stroke-width: 1.0;"/><!--link ICMCMa to CMa--><path d="M484.656,824.599 C463.701,847.387 424.575,889.9368 400.266,916.3735 " fill="none" id="ICMCMa-CMa" style="stroke: #A80036; stroke-width: 1.0;"/><path d="M483.184,813.7047 A9,9 0 0 0 495.6352 825.1532" fill="none" style="stroke: #A80036; stroke-width: 1.5;"/><!--link CM to ICMaCM--><path d="M444.672,712.032 C406.239,737.087 346.34,776.138 316.759,795.422 " fill="none" id="CM-ICMaCM" style="stroke: #A80036; stroke-width: 1.0;"/><path d="M315.4834,806.3495 A9,9 0 0 0 306.2458 792.1803" fill="none" style="stroke: #A80036; stroke-width: 1.5;"/><!--link ICMaCM to CMa--><path d="M304.004,817.163 C315.977,836.693 346.626,886.6902 364.823,916.3735 " fill="none" id="ICMaCM-CMa" style="stroke: #A80036; stroke-width: 1.0;"/><!--link CMa to AS--><path d="M430.919,940.5 C494.153,940.5 557.387,940.5 620.621,940.5 " fill="none" id="CMa-AS" style="stroke: #A80036; stroke-width: 1.0;"/><polygon fill="#A80036" points="425.586,940.5,434.586,944.5,430.586,940.5,434.586,936.5,425.586,940.5" style="stroke: #A80036; stroke-width: 1.0;"/><!--link CLi to ICLiAA--><path d="M526.412,74.53 C543.713,104.238 572.931,154.408 584.288,173.908 " fill="none" id="CLi-ICLiAA" style="stroke: #A80036; stroke-width: 1.0;"/><!--link ICLiAA to AA--><path d="M589.104,197.584 C589.239,215.231 589.482,246.846 589.68,272.755 " fill="none" id="ICLiAA-AA" style="stroke: #A80036; stroke-width: 1.0;"/><polygon fill="#A80036" points="589.063,192.163,585.1325,201.1936,589.1016,197.1629,593.1323,201.1319,589.063,192.163" style="stroke: #A80036; stroke-width: 1.0;"/><!--link ICMAA to CM--><path d="M605.213,457.023 C605.488,480.371 603.842,549.681 577,598 C562.128,624.772 536.248,647.902 514.959,663.867 " fill="none" id="ICMAA-CM" style="stroke: #A80036; stroke-width: 1.0;"/><!--link AA to ICMAA--><path d="M594.787,358.15 C597.776,384.153 601.429,415.934 603.457,433.572 " fill="none" id="AA-ICMAA" style="stroke: #A80036; stroke-width: 1.0;"/><polygon fill="#A80036" points="604.078,438.983,607.0232,429.5848,603.5066,434.0158,599.0756,430.4991,604.078,438.983" style="stroke: #A80036; stroke-width: 1.0;"/><!--link CP to ICPCLa--><path d="M157.119,74.53 C186.94,104.238 237.302,154.408 256.877,173.908 " fill="none" id="CP-ICPCLa" style="stroke: #A80036; stroke-width: 1.0;"/><!--link ICPCLa to CLa--><path d="M272.074,201.752 C281.331,224.985 297.574,265.748 307.785,291.374 " fill="none" id="ICPCLa-CLa" style="stroke: #A80036; stroke-width: 1.0;"/><path d="M261.5365,198.1538 A9,9 0 0 0 277.2489 191.8911" fill="none" style="stroke: #A80036; stroke-width: 1.5;"/><!--link CP to ICPCM--><path d="M132.787,74.651 C127.985,166.339 110.416,501.772 107.432,558.748 " fill="none" id="CP-ICPCM" style="stroke: #A80036; stroke-width: 1.0;"/><!--link ICPCM to CM--><path d="M125.91,574.982 C176.899,591.113 319.294,636.16 407.196,663.968 " fill="none" id="ICPCM-CM" style="stroke: #A80036; stroke-width: 1.0;"/><path d="M116.6044,580.9088 A9,9 0 0 0 121.7054 564.7818" fill="none" style="stroke: #A80036; stroke-width: 1.5;"/><!--link CLa to ICLoCLa--><path d="M312.941,339.53 C308.114,366.917 300.223,411.694 296.326,433.801 " fill="none" id="CLa-ICLoCLa" style="stroke: #A80036; stroke-width: 1.0;"/><polygon fill="#A80036" points="295.426,438.908,300.9285,430.7396,296.2945,433.984,293.0501,429.35,295.426,438.908" style="stroke: #A80036; stroke-width: 1.0;"/><!--link ICLoCLa to CLo--><path d="M293.45,457.111 C292.257,474.71 289.392,516.963 287.583,543.65 " fill="none" id="ICLoCLa-CLo" style="stroke: #A80036; stroke-width: 1.0;"/><!--link CLo to ICLoCMa--><path d="M271.947,592.032 C255.659,618.726 229.678,661.305 218.917,678.942 " fill="none" id="CLo-ICLoCMa" style="stroke: #A80036; stroke-width: 1.0;"/><!--link ICLoCMa to CMa--><path d="M209.879,702.064 C202.087,729.358 188.093,793.577 213,838 C238.276,883.0809 292.633,910.5311 332.282,925.3223 " fill="none" id="ICLoCMa-CMa" style="stroke: #A80036; stroke-width: 1.0;"/><polygon fill="#A80036" points="211.341,697.114,204.9545,704.6115,209.9241,701.909,212.6265,706.8786,211.341,697.114" style="stroke: #A80036; stroke-width: 1.0;"/><!--
@startuml

skinparam componentStyle uml2

skinparam actor {
    BackgroundColor<<Machine>> Brown
}

actor "App User" as AU
actor Developer as AD
actor Supplier as AS
actor Administrator as AA

AA -le-|> AU

component Launcher as CLa
component Library as CLi
component Logger as CLo
component "Machine Manager" as CM
component Payments as CP
component Machine as CMa
component Auth as CA

interface "/auth/" as ICA
interface "Client OAuth" as ICAOther
interface "/logger/launcher/" as ICLoCLa
interface "/logger/machine/" as ICLoCMa
interface "/machine-manager/machine/" as ICMCMa
interface "/library/admin/" as ICLiAA
interface "/machine-manager/admin/" as ICMAA
interface "/machine-manager/launcher/" as ICMCLa
interface "/library/launcher/" as ICLiCLa
interface "/payments/launcher/" as ICPCLa
interface "/payments/machine-manager/" as ICPCM
interface "/library/dev/" as ICLiAD
interface "/machine-manager/supplier/" as ICMAS
interface "/launcher/user/" as ICLaAU
interface "/machine/manager/" as ICMaCM

CA -do- ICA
CA -do-( ICAOther

AD -ri-> ICLiAD
ICLiAD -ri- CLi

AS -up-> ICMAS
ICMAS -up- CM

AU -le-> ICLaAU
ICLaAU -le- CLa

CLi -do- ICLiCLa
ICLiCLa )-do- CLa

CLa -do-( ICMCLa
ICMCLa -do- CM

CM -do- ICMCMa
ICMCMa )-do- CMa
CM -do-( ICMaCM
ICMaCM -do- CMa

CMa <-ri- AS

CLi -do- ICLiAA
AA -up-> ICLiAA
CM - -up- ICMAA
AA -do-> ICMAA

CP -do- ICPCLa
ICPCLa )-do- CLa

CP -do- ICPCM
CM -up-( ICPCM

CLa -do-> ICLoCLa
ICLoCLa -do- CLo
CLo -do- ICLoCMa
ICLoCMa <-do- CMa

@enduml

PlantUML version 1.2018.11(Sat Sep 22 18:43:53 CEST 2018)
(GPL source distribution)
Java Runtime: OpenJDK Runtime Environment
JVM: OpenJDK 64-Bit Server VM
Java Version: 1.8.0_152-release-1248-b8
Operating System: Windows 10
OS Version: 10.0
Default Encoding: Cp1250
Language: pl
Country: PL
--></g></svg>