<?xml version="1.0" encoding="UTF-8" standalone="no"?><svg xmlns="http://www.w3.org/2000/svg" xmlns:xlink="http://www.w3.org/1999/xlink" contentScriptType="application/ecmascript" contentStyleType="text/css" height="427px" preserveAspectRatio="none" style="width:587px;height:427px;" version="1.1" viewBox="0 0 587 427" width="587px" zoomAndPan="magnify"><defs><filter height="300%" id="f1bgpebr0v8kih" width="300%" x="-1" y="-1"><feGaussianBlur result="blurOut" stdDeviation="2.0"/><feColorMatrix in="blurOut" result="blurOut2" type="matrix" values="0 0 0 0 0 0 0 0 0 0 0 0 0 0 0 0 0 0 .4 0"/><feOffset dx="4.0" dy="4.0" in="blurOut2" result="blurOut3"/><feBlend in="SourceGraphic" in2="blurOut3" mode="normal"/></filter></defs><g><text fill="#000000" font-family="sans-serif" font-size="14" font-weight="bold" lengthAdjust="spacingAndGlyphs" textLength="288" x="148.75" y="24.5332">DEPRECATED 12.10.19, ARCHIVE VERSION</text><rect fill="#FFFFFF" filter="url(#f1bgpebr0v8kih)" height="30.3516" style="stroke: #A80036; stroke-width: 1.0;" width="10" x="298" y="151.5703"/><rect fill="#FFFFFF" filter="url(#f1bgpebr0v8kih)" height="30.3516" style="stroke: #A80036; stroke-width: 1.0;" width="10" x="298" y="242.625"/><rect fill="#FFFFFF" filter="url(#f1bgpebr0v8kih)" height="117.4063" style="stroke: #A80036; stroke-width: 1.0;" width="10" x="539" y="212.2734"/><line style="stroke: #A80036; stroke-width: 1.0; stroke-dasharray: 5.0,5.0;" x1="37" x2="37" y1="119.2188" y2="338.6797"/><line style="stroke: #A80036; stroke-width: 1.0; stroke-dasharray: 5.0,5.0;" x1="302.5" x2="302.5" y1="119.2188" y2="338.6797"/><line style="stroke: #A80036; stroke-width: 1.0; stroke-dasharray: 5.0,5.0;" x1="543.5" x2="543.5" y1="119.2188" y2="338.6797"/><text fill="#000000" font-family="sans-serif" font-size="14" lengthAdjust="spacingAndGlyphs" textLength="52" x="8" y="116.1426">Supplier</text><ellipse cx="37" cy="44.6094" fill="#FEFECE" filter="url(#f1bgpebr0v8kih)" rx="8" ry="8" style="stroke: #A80036; stroke-width: 2.0;"/><path d="M37,52.6094 L37,79.6094 M24,60.6094 L50,60.6094 M37,79.6094 L24,94.6094 M37,79.6094 L50,94.6094 " fill="none" filter="url(#f1bgpebr0v8kih)" style="stroke: #A80036; stroke-width: 2.0;"/><text fill="#000000" font-family="sans-serif" font-size="14" lengthAdjust="spacingAndGlyphs" textLength="52" x="8" y="352.2129">Supplier</text><ellipse cx="37" cy="365.2891" fill="#FEFECE" filter="url(#f1bgpebr0v8kih)" rx="8" ry="8" style="stroke: #A80036; stroke-width: 2.0;"/><path d="M37,373.2891 L37,400.2891 M24,381.2891 L50,381.2891 M37,400.2891 L24,415.2891 M37,400.2891 L50,415.2891 " fill="none" filter="url(#f1bgpebr0v8kih)" style="stroke: #A80036; stroke-width: 2.0;"/><rect fill="#FEFECE" filter="url(#f1bgpebr0v8kih)" height="31.6094" style="stroke: #A80036; stroke-width: 1.5;" width="131" x="235.5" y="82.6094"/><text fill="#000000" font-family="sans-serif" font-size="14" lengthAdjust="spacingAndGlyphs" textLength="117" x="242.5" y="104.1426">:Machine Manager</text><rect fill="#FEFECE" filter="url(#f1bgpebr0v8kih)" height="31.6094" style="stroke: #A80036; stroke-width: 1.5;" width="131" x="235.5" y="337.6797"/><text fill="#000000" font-family="sans-serif" font-size="14" lengthAdjust="spacingAndGlyphs" textLength="117" x="242.5" y="359.2129">:Machine Manager</text><rect fill="#FEFECE" filter="url(#f1bgpebr0v8kih)" height="31.6094" style="stroke: #A80036; stroke-width: 1.5;" width="63" x="510.5" y="82.6094"/><text fill="#000000" font-family="sans-serif" font-size="14" lengthAdjust="spacingAndGlyphs" textLength="49" x="517.5" y="104.1426">:Cluster</text><rect fill="#FEFECE" filter="url(#f1bgpebr0v8kih)" height="31.6094" style="stroke: #A80036; stroke-width: 1.5;" width="63" x="510.5" y="337.6797"/><text fill="#000000" font-family="sans-serif" font-size="14" lengthAdjust="spacingAndGlyphs" textLength="49" x="517.5" y="359.2129">:Cluster</text><rect fill="#FFFFFF" filter="url(#f1bgpebr0v8kih)" height="30.3516" style="stroke: #A80036; stroke-width: 1.0;" width="10" x="298" y="151.5703"/><rect fill="#FFFFFF" filter="url(#f1bgpebr0v8kih)" height="30.3516" style="stroke: #A80036; stroke-width: 1.0;" width="10" x="298" y="242.625"/><rect fill="#FFFFFF" filter="url(#f1bgpebr0v8kih)" height="117.4063" style="stroke: #A80036; stroke-width: 1.0;" width="10" x="539" y="212.2734"/><polygon fill="#A80036" points="286,147.5703,296,151.5703,286,155.5703,290,151.5703" style="stroke: #A80036; stroke-width: 1.0;"/><line style="stroke: #A80036; stroke-width: 1.0;" x1="37" x2="292" y1="151.5703" y2="151.5703"/><text fill="#000000" font-family="sans-serif" font-size="13" lengthAdjust="spacingAndGlyphs" textLength="242" x="44" y="146.7139">POST /machine-manager/machines (json)</text><line style="stroke: #A80036; stroke-width: 1.0;" x1="37" x2="47" y1="181.9219" y2="177.9219"/><line style="stroke: #A80036; stroke-width: 1.0;" x1="37" x2="47" y1="181.9219" y2="185.9219"/><line style="stroke: #A80036; stroke-width: 1.0; stroke-dasharray: 2.0,2.0;" x1="37" x2="302" y1="181.9219" y2="181.9219"/><text fill="#000000" font-family="sans-serif" font-size="13" lengthAdjust="spacingAndGlyphs" textLength="115" x="54" y="177.0654">201 {id, :List&lt;Key&gt;}</text><line style="stroke: #A80036; stroke-width: 1.0;" x1="537" x2="527" y1="212.2734" y2="208.2734"/><line style="stroke: #A80036; stroke-width: 1.0;" x1="537" x2="527" y1="212.2734" y2="216.2734"/><line style="stroke: #A80036; stroke-width: 1.0;" x1="37" x2="538" y1="212.2734" y2="212.2734"/><text fill="#000000" font-family="sans-serif" font-size="13" lengthAdjust="spacingAndGlyphs" textLength="53" x="44" y="207.417">run(:Key)</text><polygon fill="#A80036" points="319,238.625,309,242.625,319,246.625,315,242.625" style="stroke: #A80036; stroke-width: 1.0;"/><line style="stroke: #A80036; stroke-width: 1.0;" x1="313" x2="538" y1="242.625" y2="242.625"/><text fill="#000000" font-family="sans-serif" font-size="13" lengthAdjust="spacingAndGlyphs" textLength="212" x="325" y="237.7686">PATCH /machine-manager/{id} (json)</text><line style="stroke: #A80036; stroke-width: 1.0;" x1="537" x2="527" y1="272.9766" y2="268.9766"/><line style="stroke: #A80036; stroke-width: 1.0;" x1="537" x2="527" y1="272.9766" y2="276.9766"/><line style="stroke: #A80036; stroke-width: 1.0; stroke-dasharray: 2.0,2.0;" x1="303" x2="538" y1="272.9766" y2="272.9766"/><text fill="#000000" font-family="sans-serif" font-size="13" lengthAdjust="spacingAndGlyphs" textLength="21" x="310" y="268.1201">200</text><rect fill="#FFFFFF" filter="url(#f1bgpebr0v8kih)" height="42.7031" style="stroke: #000000; stroke-width: 2.0;" width="344" x="232.5" y="280.9766"/><polygon fill="#EEEEEE" points="232.5,280.9766,294.5,280.9766,294.5,288.9766,284.5,298.9766,232.5,298.9766,232.5,280.9766" style="stroke: #000000; stroke-width: 2.0;"/><text fill="#000000" font-family="sans-serif" font-size="13" font-weight="bold" lengthAdjust="spacingAndGlyphs" textLength="17" x="245.5" y="296.4717">ref</text><text fill="#000000" font-family="sans-serif" font-size="13" lengthAdjust="spacingAndGlyphs" textLength="87" x="363" y="316.4717">healthchecking</text><!--
@startuml

title DEPRECATED 12.10.19, ARCHIVE VERSION

actor "Supplier" as AS
participant ":Machine Manager" as CM
participant ":Cluster" as CC

AS -> CM : POST /machine-manager/machines (json)
activate CM
CM - ->> AS : 201 {id, :List<Key>}
deactivate CM

AS ->> CC : run(:Key)
activate CC
CC -> CM : PATCH /machine-manager/{id} (json)
activate CM
CM - ->> CC : 200
deactivate CM

ref over CC, CM : healthchecking

@enduml

PlantUML version 1.2018.11(Sat Sep 22 18:43:53 CEST 2018)
(GPL source distribution)
Java Runtime: OpenJDK Runtime Environment
JVM: OpenJDK 64-Bit Server VM
Java Version: 1.8.0_152-release-1248-b8
Operating System: Windows 10
OS Version: 10.0
Default Encoding: Cp1250
Language: pl
Country: PL
--></g></svg>