<?xml version="1.0" encoding="UTF-8" standalone="no"?><svg xmlns="http://www.w3.org/2000/svg" xmlns:xlink="http://www.w3.org/1999/xlink" contentScriptType="application/ecmascript" contentStyleType="text/css" height="994px" preserveAspectRatio="none" style="width:1285px;height:994px;" version="1.1" viewBox="0 0 1285 994" width="1285px" zoomAndPan="magnify"><defs><filter height="300%" id="f1airyqhfyj58m" width="300%" x="-1" y="-1"><feGaussianBlur result="blurOut" stdDeviation="2.0"/><feColorMatrix in="blurOut" result="blurOut2" type="matrix" values="0 0 0 0 0 0 0 0 0 0 0 0 0 0 0 0 0 0 .4 0"/><feOffset dx="4.0" dy="4.0" in="blurOut2" result="blurOut3"/><feBlend in="SourceGraphic" in2="blurOut3" mode="normal"/></filter></defs><g><text fill="#000000" font-family="sans-serif" font-size="14" font-weight="bold" lengthAdjust="spacingAndGlyphs" textLength="288" x="499.75" y="24.5332">DEPRECATED 12.10.19, ARCHIVE VERSION</text><rect fill="#FFFFFF" filter="url(#f1airyqhfyj58m)" height="30.3516" style="stroke: #A80036; stroke-width: 1.0;" width="10" x="269" y="151.5703"/><rect fill="#FFFFFF" filter="url(#f1airyqhfyj58m)" height="182.1094" style="stroke: #A80036; stroke-width: 1.0;" width="10" x="269" y="212.2734"/><rect fill="#FFFFFF" filter="url(#f1airyqhfyj58m)" height="121.4063" style="stroke: #A80036; stroke-width: 1.0;" width="10" x="562" y="242.625"/><rect fill="#FFFFFF" filter="url(#f1airyqhfyj58m)" height="172.1094" style="stroke: #A80036; stroke-width: 1.0;" width="10" x="562" y="455.0859"/><rect fill="#FFFFFF" filter="url(#f1airyqhfyj58m)" height="74.7031" style="stroke: #A80036; stroke-width: 1.0;" width="10" x="562" y="752.6016"/><rect fill="#FFFFFF" filter="url(#f1airyqhfyj58m)" height="554.3281" style="stroke: #A80036; stroke-width: 1.0;" width="10" x="867" y="333.6797"/><rect fill="#FFFFFF" filter="url(#f1airyqhfyj58m)" height="30.3516" style="stroke: #A80036; stroke-width: 1.0;" width="10" x="872" y="536.1406"/><rect fill="#FFFFFF" filter="url(#f1airyqhfyj58m)" height="30.3516" style="stroke: #A80036; stroke-width: 1.0;" width="10" x="1122" y="424.7344"/><rect fill="#FFFFFF" filter="url(#f1airyqhfyj58m)" height="30.3516" style="stroke: #A80036; stroke-width: 1.0;" width="10" x="1122" y="659.5469"/><rect fill="#FFFFFF" filter="url(#f1airyqhfyj58m)" height="30.3516" style="stroke: #A80036; stroke-width: 1.0;" width="10" x="1122" y="857.6563"/><rect fill="#FFFFFF" filter="url(#f1airyqhfyj58m)" height="30.3516" style="stroke: #A80036; stroke-width: 1.0;" width="10" x="1207.5" y="272.9766"/><rect fill="#FFFFFF" filter="url(#f1airyqhfyj58m)" height="30.3516" style="stroke: #A80036; stroke-width: 1.0;" width="10" x="1207.5" y="596.8438"/><rect fill="#FFFFFF" filter="url(#f1airyqhfyj58m)" height="30.3516" style="stroke: #A80036; stroke-width: 1.0;" width="10" x="1207.5" y="796.9531"/><rect fill="#FFFFFF" filter="url(#f1airyqhfyj58m)" height="297.5156" style="stroke: #000000; stroke-width: 2.0;" width="795" x="479.5" y="470.0859"/><rect fill="#FFFFFF" filter="url(#f1airyqhfyj58m)" height="202.4609" style="stroke: #000000; stroke-width: 2.0;" width="775" x="489.5" y="495.4375"/><rect fill="#FFFFFF" height="62.7031" style="stroke: none; stroke-width: 1.0;" width="775" x="489.5" y="635.1953"/><rect fill="#FFFFFF" filter="url(#f1airyqhfyj58m)" height="48.7031" style="stroke: #000000; stroke-width: 2.0;" width="426" x="489.5" y="711.8984"/><line style="stroke: #A80036; stroke-width: 1.0; stroke-dasharray: 5.0,5.0;" x1="40" x2="40" y1="119.2188" y2="906.0078"/><line style="stroke: #A80036; stroke-width: 1.0; stroke-dasharray: 5.0,5.0;" x1="274" x2="274" y1="119.2188" y2="906.0078"/><line style="stroke: #A80036; stroke-width: 1.0; stroke-dasharray: 5.0,5.0;" x1="566.5" x2="566.5" y1="119.2188" y2="906.0078"/><line style="stroke: #A80036; stroke-width: 1.0; stroke-dasharray: 5.0,5.0;" x1="871.5" x2="871.5" y1="119.2188" y2="906.0078"/><line style="stroke: #A80036; stroke-width: 1.0; stroke-dasharray: 5.0,5.0;" x1="1126.5" x2="1126.5" y1="119.2188" y2="906.0078"/><line style="stroke: #A80036; stroke-width: 1.0; stroke-dasharray: 5.0,5.0;" x1="1212.5" x2="1212.5" y1="119.2188" y2="906.0078"/><text fill="#000000" font-family="sans-serif" font-size="14" lengthAdjust="spacingAndGlyphs" textLength="58" x="8" y="116.1426">App User</text><ellipse cx="40" cy="44.6094" fill="#FEFECE" filter="url(#f1airyqhfyj58m)" rx="8" ry="8" style="stroke: #A80036; stroke-width: 2.0;"/><path d="M40,52.6094 L40,79.6094 M27,60.6094 L53,60.6094 M40,79.6094 L27,94.6094 M40,79.6094 L53,94.6094 " fill="none" filter="url(#f1airyqhfyj58m)" style="stroke: #A80036; stroke-width: 2.0;"/><text fill="#000000" font-family="sans-serif" font-size="14" lengthAdjust="spacingAndGlyphs" textLength="58" x="8" y="919.541">App User</text><ellipse cx="40" cy="932.6172" fill="#FEFECE" filter="url(#f1airyqhfyj58m)" rx="8" ry="8" style="stroke: #A80036; stroke-width: 2.0;"/><path d="M40,940.6172 L40,967.6172 M27,948.6172 L53,948.6172 M40,967.6172 L27,982.6172 M40,967.6172 L53,982.6172 " fill="none" filter="url(#f1airyqhfyj58m)" style="stroke: #A80036; stroke-width: 2.0;"/><rect fill="#FEFECE" filter="url(#f1airyqhfyj58m)" height="31.6094" style="stroke: #A80036; stroke-width: 1.5;" width="78" x="233" y="82.6094"/><text fill="#000000" font-family="sans-serif" font-size="14" lengthAdjust="spacingAndGlyphs" textLength="64" x="240" y="104.1426">:Launcher</text><rect fill="#FEFECE" filter="url(#f1airyqhfyj58m)" height="31.6094" style="stroke: #A80036; stroke-width: 1.5;" width="78" x="233" y="905.0078"/><text fill="#000000" font-family="sans-serif" font-size="14" lengthAdjust="spacingAndGlyphs" textLength="64" x="240" y="926.541">:Launcher</text><rect fill="#FEFECE" filter="url(#f1airyqhfyj58m)" height="31.6094" style="stroke: #A80036; stroke-width: 1.5;" width="131" x="499.5" y="82.6094"/><text fill="#000000" font-family="sans-serif" font-size="14" lengthAdjust="spacingAndGlyphs" textLength="117" x="506.5" y="104.1426">:Machine Manager</text><rect fill="#FEFECE" filter="url(#f1airyqhfyj58m)" height="31.6094" style="stroke: #A80036; stroke-width: 1.5;" width="131" x="499.5" y="905.0078"/><text fill="#000000" font-family="sans-serif" font-size="14" lengthAdjust="spacingAndGlyphs" textLength="117" x="506.5" y="926.541">:Machine Manager</text><rect fill="#FEFECE" filter="url(#f1airyqhfyj58m)" height="31.6094" style="stroke: #A80036; stroke-width: 1.5;" width="63" x="838.5" y="82.6094"/><text fill="#000000" font-family="sans-serif" font-size="14" lengthAdjust="spacingAndGlyphs" textLength="49" x="845.5" y="104.1426">:Cluster</text><rect fill="#FEFECE" filter="url(#f1airyqhfyj58m)" height="31.6094" style="stroke: #A80036; stroke-width: 1.5;" width="63" x="838.5" y="905.0078"/><text fill="#000000" font-family="sans-serif" font-size="14" lengthAdjust="spacingAndGlyphs" textLength="49" x="845.5" y="926.541">:Cluster</text><rect fill="#FEFECE" filter="url(#f1airyqhfyj58m)" height="31.6094" style="stroke: #A80036; stroke-width: 1.5;" width="63" x="1093.5" y="82.6094"/><text fill="#000000" font-family="sans-serif" font-size="14" lengthAdjust="spacingAndGlyphs" textLength="49" x="1100.5" y="104.1426">:Logger</text><rect fill="#FEFECE" filter="url(#f1airyqhfyj58m)" height="31.6094" style="stroke: #A80036; stroke-width: 1.5;" width="63" x="1093.5" y="905.0078"/><text fill="#000000" font-family="sans-serif" font-size="14" lengthAdjust="spacingAndGlyphs" textLength="49" x="1100.5" y="926.541">:Logger</text><rect fill="#FEFECE" filter="url(#f1airyqhfyj58m)" height="31.6094" style="stroke: #A80036; stroke-width: 1.5;" width="80" x="1170.5" y="82.6094"/><text fill="#000000" font-family="sans-serif" font-size="14" lengthAdjust="spacingAndGlyphs" textLength="66" x="1177.5" y="104.1426">:Payments</text><rect fill="#FEFECE" filter="url(#f1airyqhfyj58m)" height="31.6094" style="stroke: #A80036; stroke-width: 1.5;" width="80" x="1170.5" y="905.0078"/><text fill="#000000" font-family="sans-serif" font-size="14" lengthAdjust="spacingAndGlyphs" textLength="66" x="1177.5" y="926.541">:Payments</text><rect fill="#FFFFFF" filter="url(#f1airyqhfyj58m)" height="30.3516" style="stroke: #A80036; stroke-width: 1.0;" width="10" x="269" y="151.5703"/><rect fill="#FFFFFF" filter="url(#f1airyqhfyj58m)" height="182.1094" style="stroke: #A80036; stroke-width: 1.0;" width="10" x="269" y="212.2734"/><rect fill="#FFFFFF" filter="url(#f1airyqhfyj58m)" height="121.4063" style="stroke: #A80036; stroke-width: 1.0;" width="10" x="562" y="242.625"/><rect fill="#FFFFFF" filter="url(#f1airyqhfyj58m)" height="172.1094" style="stroke: #A80036; stroke-width: 1.0;" width="10" x="562" y="455.0859"/><rect fill="#FFFFFF" filter="url(#f1airyqhfyj58m)" height="74.7031" style="stroke: #A80036; stroke-width: 1.0;" width="10" x="562" y="752.6016"/><rect fill="#FFFFFF" filter="url(#f1airyqhfyj58m)" height="554.3281" style="stroke: #A80036; stroke-width: 1.0;" width="10" x="867" y="333.6797"/><rect fill="#FFFFFF" filter="url(#f1airyqhfyj58m)" height="30.3516" style="stroke: #A80036; stroke-width: 1.0;" width="10" x="872" y="536.1406"/><rect fill="#FFFFFF" filter="url(#f1airyqhfyj58m)" height="30.3516" style="stroke: #A80036; stroke-width: 1.0;" width="10" x="1122" y="424.7344"/><rect fill="#FFFFFF" filter="url(#f1airyqhfyj58m)" height="30.3516" style="stroke: #A80036; stroke-width: 1.0;" width="10" x="1122" y="659.5469"/><rect fill="#FFFFFF" filter="url(#f1airyqhfyj58m)" height="30.3516" style="stroke: #A80036; stroke-width: 1.0;" width="10" x="1122" y="857.6563"/><rect fill="#FFFFFF" filter="url(#f1airyqhfyj58m)" height="30.3516" style="stroke: #A80036; stroke-width: 1.0;" width="10" x="1207.5" y="272.9766"/><rect fill="#FFFFFF" filter="url(#f1airyqhfyj58m)" height="30.3516" style="stroke: #A80036; stroke-width: 1.0;" width="10" x="1207.5" y="596.8438"/><rect fill="#FFFFFF" filter="url(#f1airyqhfyj58m)" height="30.3516" style="stroke: #A80036; stroke-width: 1.0;" width="10" x="1207.5" y="796.9531"/><polygon fill="#A80036" points="257,147.5703,267,151.5703,257,155.5703,261,151.5703" style="stroke: #A80036; stroke-width: 1.0;"/><line style="stroke: #A80036; stroke-width: 1.0;" x1="40" x2="263" y1="151.5703" y2="151.5703"/><text fill="#000000" font-family="sans-serif" font-size="13" lengthAdjust="spacingAndGlyphs" textLength="178" x="47" y="146.7139">GET /launcher/applications/{id}</text><line style="stroke: #A80036; stroke-width: 1.0;" x1="40" x2="50" y1="181.9219" y2="177.9219"/><line style="stroke: #A80036; stroke-width: 1.0;" x1="40" x2="50" y1="181.9219" y2="185.9219"/><line style="stroke: #A80036; stroke-width: 1.0; stroke-dasharray: 2.0,2.0;" x1="40" x2="273" y1="181.9219" y2="181.9219"/><text fill="#000000" font-family="sans-serif" font-size="13" lengthAdjust="spacingAndGlyphs" textLength="162" x="57" y="177.0654">200 ComputationApplication</text><polygon fill="#A80036" points="257,208.2734,267,212.2734,257,216.2734,261,212.2734" style="stroke: #A80036; stroke-width: 1.0;"/><line style="stroke: #A80036; stroke-width: 1.0;" x1="40" x2="263" y1="212.2734" y2="212.2734"/><text fill="#000000" font-family="sans-serif" font-size="13" lengthAdjust="spacingAndGlyphs" textLength="210" x="47" y="207.417">POST /launcher/computations (json)</text><polygon fill="#A80036" points="550,238.625,560,242.625,550,246.625,554,242.625" style="stroke: #A80036; stroke-width: 1.0;"/><line style="stroke: #A80036; stroke-width: 1.0;" x1="279" x2="556" y1="242.625" y2="242.625"/><text fill="#000000" font-family="sans-serif" font-size="13" lengthAdjust="spacingAndGlyphs" textLength="264" x="286" y="237.7686">POST /machine-manager/computations (json)</text><polygon fill="#A80036" points="1195.5,268.9766,1205.5,272.9766,1195.5,276.9766,1199.5,272.9766" style="stroke: #A80036; stroke-width: 1.0;"/><line style="stroke: #A80036; stroke-width: 1.0;" x1="572" x2="1201.5" y1="272.9766" y2="272.9766"/><text fill="#000000" font-family="sans-serif" font-size="13" lengthAdjust="spacingAndGlyphs" textLength="240" x="579" y="268.1201">POST /payments/computations/{id} (json)</text><line style="stroke: #A80036; stroke-width: 1.0;" x1="572" x2="582" y1="303.3281" y2="299.3281"/><line style="stroke: #A80036; stroke-width: 1.0;" x1="572" x2="582" y1="303.3281" y2="307.3281"/><line style="stroke: #A80036; stroke-width: 1.0; stroke-dasharray: 2.0,2.0;" x1="572" x2="1211.5" y1="303.3281" y2="303.3281"/><text fill="#000000" font-family="sans-serif" font-size="13" lengthAdjust="spacingAndGlyphs" textLength="21" x="589" y="298.4717">201</text><line style="stroke: #A80036; stroke-width: 1.0;" x1="865" x2="855" y1="333.6797" y2="329.6797"/><line style="stroke: #A80036; stroke-width: 1.0;" x1="865" x2="855" y1="333.6797" y2="337.6797"/><line style="stroke: #A80036; stroke-width: 1.0;" x1="572" x2="866" y1="333.6797" y2="333.6797"/><text fill="#000000" font-family="sans-serif" font-size="13" lengthAdjust="spacingAndGlyphs" textLength="200" x="579" y="328.8232">POST /cluster/computations (json)</text><line style="stroke: #A80036; stroke-width: 1.0;" x1="279" x2="289" y1="364.0313" y2="360.0313"/><line style="stroke: #A80036; stroke-width: 1.0;" x1="279" x2="289" y1="364.0313" y2="368.0313"/><line style="stroke: #A80036; stroke-width: 1.0; stroke-dasharray: 2.0,2.0;" x1="279" x2="566" y1="364.0313" y2="364.0313"/><text fill="#000000" font-family="sans-serif" font-size="13" lengthAdjust="spacingAndGlyphs" textLength="35" x="296" y="359.1748">201 id</text><line style="stroke: #A80036; stroke-width: 1.0;" x1="40" x2="50" y1="394.3828" y2="390.3828"/><line style="stroke: #A80036; stroke-width: 1.0;" x1="40" x2="50" y1="394.3828" y2="398.3828"/><line style="stroke: #A80036; stroke-width: 1.0; stroke-dasharray: 2.0,2.0;" x1="40" x2="273" y1="394.3828" y2="394.3828"/><text fill="#000000" font-family="sans-serif" font-size="13" lengthAdjust="spacingAndGlyphs" textLength="35" x="57" y="389.5264">201 id</text><polygon fill="#A80036" points="1110,420.7344,1120,424.7344,1110,428.7344,1114,424.7344" style="stroke: #A80036; stroke-width: 1.0;"/><line style="stroke: #A80036; stroke-width: 1.0;" x1="877" x2="1116" y1="424.7344" y2="424.7344"/><text fill="#000000" font-family="sans-serif" font-size="13" lengthAdjust="spacingAndGlyphs" textLength="218" x="884" y="419.8779">POST /logger/computations/{id} (json)</text><line style="stroke: #A80036; stroke-width: 1.0;" x1="877" x2="887" y1="455.0859" y2="451.0859"/><line style="stroke: #A80036; stroke-width: 1.0;" x1="877" x2="887" y1="455.0859" y2="459.0859"/><line style="stroke: #A80036; stroke-width: 1.0; stroke-dasharray: 2.0,2.0;" x1="877" x2="1126" y1="455.0859" y2="455.0859"/><text fill="#000000" font-family="sans-serif" font-size="13" lengthAdjust="spacingAndGlyphs" textLength="21" x="894" y="450.2295">201</text><path d="M479.5,470.0859 L552.5,470.0859 L552.5,478.0859 L542.5,488.0859 L479.5,488.0859 L479.5,470.0859 " fill="#EEEEEE" style="stroke: #000000; stroke-width: 1.0;"/><rect fill="none" height="297.5156" style="stroke: #000000; stroke-width: 2.0;" width="795" x="479.5" y="470.0859"/><text fill="#000000" font-family="sans-serif" font-size="13" font-weight="bold" lengthAdjust="spacingAndGlyphs" textLength="28" x="494.5" y="484.5811">loop</text><path d="M489.5,495.4375 L555.5,495.4375 L555.5,503.4375 L545.5,513.4375 L489.5,513.4375 L489.5,495.4375 " fill="#EEEEEE" style="stroke: #000000; stroke-width: 1.0;"/><rect fill="none" height="202.4609" style="stroke: #000000; stroke-width: 2.0;" width="775" x="489.5" y="495.4375"/><text fill="#000000" font-family="sans-serif" font-size="13" font-weight="bold" lengthAdjust="spacingAndGlyphs" textLength="21" x="504.5" y="509.9326">par</text><polygon fill="#A80036" points="860,532.1406,870,536.1406,860,540.1406,864,536.1406" style="stroke: #A80036; stroke-width: 1.0;"/><line style="stroke: #A80036; stroke-width: 1.0;" x1="572" x2="866" y1="536.1406" y2="536.1406"/><text fill="#000000" font-family="sans-serif" font-size="13" lengthAdjust="spacingAndGlyphs" textLength="188" x="579" y="531.2842">GET /cluster/status/computation</text><line style="stroke: #A80036; stroke-width: 1.0;" x1="572" x2="582" y1="566.4922" y2="562.4922"/><line style="stroke: #A80036; stroke-width: 1.0;" x1="572" x2="582" y1="566.4922" y2="570.4922"/><line style="stroke: #A80036; stroke-width: 1.0; stroke-dasharray: 2.0,2.0;" x1="572" x2="866" y1="566.4922" y2="566.4922"/><text fill="#000000" font-family="sans-serif" font-size="13" lengthAdjust="spacingAndGlyphs" textLength="130" x="589" y="561.6357">List&lt;ComputationInfo&gt;</text><polygon fill="#A80036" points="1195.5,592.8438,1205.5,596.8438,1195.5,600.8438,1199.5,596.8438" style="stroke: #A80036; stroke-width: 1.0;"/><line style="stroke: #A80036; stroke-width: 1.0;" x1="572" x2="1201.5" y1="596.8438" y2="596.8438"/><text fill="#000000" font-family="sans-serif" font-size="13" lengthAdjust="spacingAndGlyphs" textLength="248" x="579" y="591.9873">PATCH /payments/computations/{id} (json)</text><line style="stroke: #A80036; stroke-width: 1.0;" x1="567" x2="577" y1="627.1953" y2="623.1953"/><line style="stroke: #A80036; stroke-width: 1.0;" x1="567" x2="577" y1="627.1953" y2="631.1953"/><line style="stroke: #A80036; stroke-width: 1.0; stroke-dasharray: 2.0,2.0;" x1="567" x2="1211.5" y1="627.1953" y2="627.1953"/><text fill="#000000" font-family="sans-serif" font-size="13" lengthAdjust="spacingAndGlyphs" textLength="21" x="584" y="622.3389">200</text><line style="stroke: #000000; stroke-width: 1.0; stroke-dasharray: 2.0,2.0;" x1="489.5" x2="1264.5" y1="636.1953" y2="636.1953"/><polygon fill="#A80036" points="1110,655.5469,1120,659.5469,1110,663.5469,1114,659.5469" style="stroke: #A80036; stroke-width: 1.0;"/><line style="stroke: #A80036; stroke-width: 1.0;" x1="877" x2="1116" y1="659.5469" y2="659.5469"/><text fill="#000000" font-family="sans-serif" font-size="13" lengthAdjust="spacingAndGlyphs" textLength="226" x="884" y="654.6904">PATCH /logger/computations/{id} (json)</text><line style="stroke: #A80036; stroke-width: 1.0;" x1="877" x2="887" y1="689.8984" y2="685.8984"/><line style="stroke: #A80036; stroke-width: 1.0;" x1="877" x2="887" y1="689.8984" y2="693.8984"/><line style="stroke: #A80036; stroke-width: 1.0; stroke-dasharray: 2.0,2.0;" x1="877" x2="1126" y1="689.8984" y2="689.8984"/><text fill="#000000" font-family="sans-serif" font-size="13" lengthAdjust="spacingAndGlyphs" textLength="21" x="894" y="685.042">200</text><path d="M489.5,711.8984 L570.5,711.8984 L570.5,719.8984 L560.5,729.8984 L489.5,729.8984 L489.5,711.8984 " fill="#EEEEEE" style="stroke: #000000; stroke-width: 1.0;"/><rect fill="none" height="48.7031" style="stroke: #000000; stroke-width: 2.0;" width="426" x="489.5" y="711.8984"/><text fill="#000000" font-family="sans-serif" font-size="13" font-weight="bold" lengthAdjust="spacingAndGlyphs" textLength="36" x="504.5" y="726.3936">break</text><text fill="#000000" font-family="sans-serif" font-size="11" font-weight="bold" lengthAdjust="spacingAndGlyphs" textLength="115" x="585.5" y="725.3174">[finished computing]</text><line style="stroke: #A80036; stroke-width: 1.0;" x1="572" x2="582" y1="752.6016" y2="748.6016"/><line style="stroke: #A80036; stroke-width: 1.0;" x1="572" x2="582" y1="752.6016" y2="756.6016"/><line style="stroke: #A80036; stroke-width: 1.0;" x1="572" x2="866" y1="752.6016" y2="752.6016"/><text fill="#000000" font-family="sans-serif" font-size="13" lengthAdjust="spacingAndGlyphs" textLength="276" x="589" y="747.7451">PUT /machine-manager/computations/{id} (json)</text><polygon fill="#A80036" points="1195.5,792.9531,1205.5,796.9531,1195.5,800.9531,1199.5,796.9531" style="stroke: #A80036; stroke-width: 1.0;"/><line style="stroke: #A80036; stroke-width: 1.0;" x1="572" x2="1201.5" y1="796.9531" y2="796.9531"/><text fill="#000000" font-family="sans-serif" font-size="13" lengthAdjust="spacingAndGlyphs" textLength="241" x="579" y="792.0967">PATCH /payments/computation/{id} (json)</text><line style="stroke: #A80036; stroke-width: 1.0;" x1="567" x2="577" y1="827.3047" y2="823.3047"/><line style="stroke: #A80036; stroke-width: 1.0;" x1="567" x2="577" y1="827.3047" y2="831.3047"/><line style="stroke: #A80036; stroke-width: 1.0; stroke-dasharray: 2.0,2.0;" x1="567" x2="1211.5" y1="827.3047" y2="827.3047"/><text fill="#000000" font-family="sans-serif" font-size="13" lengthAdjust="spacingAndGlyphs" textLength="21" x="584" y="822.4482">201</text><polygon fill="#A80036" points="1110,853.6563,1120,857.6563,1110,861.6563,1114,857.6563" style="stroke: #A80036; stroke-width: 1.0;"/><line style="stroke: #A80036; stroke-width: 1.0;" x1="877" x2="1116" y1="857.6563" y2="857.6563"/><text fill="#000000" font-family="sans-serif" font-size="13" lengthAdjust="spacingAndGlyphs" textLength="208" x="884" y="852.7998">PUT /logger/computations/{id} (json)</text><line style="stroke: #A80036; stroke-width: 1.0;" x1="872" x2="882" y1="888.0078" y2="884.0078"/><line style="stroke: #A80036; stroke-width: 1.0;" x1="872" x2="882" y1="888.0078" y2="892.0078"/><line style="stroke: #A80036; stroke-width: 1.0; stroke-dasharray: 2.0,2.0;" x1="872" x2="1126" y1="888.0078" y2="888.0078"/><text fill="#000000" font-family="sans-serif" font-size="13" lengthAdjust="spacingAndGlyphs" textLength="21" x="889" y="883.1514">200</text><!--
@startuml

title DEPRECATED 12.10.19, ARCHIVE VERSION

actor "App User" as AU
participant ":Launcher" as CLa
participant ":Machine Manager" as CM
participant ":Cluster" as CC
participant ":Logger" as CLo
participant ":Payments" as CP

AU -> CLa : GET /launcher/applications/{id}
activate CLa
CLa - ->> AU : 200 ComputationApplication
deactivate CLa

AU -> CLa : POST /launcher/computations (json)
activate CLa
CLa -> CM : POST /machine-manager/computations (json)
activate CM

CM -> CP : POST /payments/computations/{id} (json)
activate CP
CP - ->> CM : 201
deactivate CP

CM ->> CC : POST /cluster/computations (json)
activate CC

CM - ->> CLa : 201 id
deactivate CM

CLa - ->> AU : 201 id
deactivate CLa

CC -> CLo : POST /logger/computations/{id} (json)
activate CLo
CLo - ->> CC : 201
deactivate CLo

loop

par

activate CM
CM -> CC : GET /cluster/status/computation
activate CC
CC - ->> CM : List<ComputationInfo>
deactivate CC

CM -> CP : PATCH /payments/computations/{id} (json)
activate CP
CP - ->> CM : 200
deactivate CP

deactivate CM

else

CC -> CLo : PATCH /logger/computations/{id} (json)
activate CLo
CLo - ->> CC : 200
deactivate CLo

end par

break finished computing
CC ->> CM : PUT /machine-manager/computations/{id} (json)
activate CM

end break
end loop

CM -> CP : PATCH /payments/computation/{id} (json)
activate CP
CP - ->> CM : 201
deactivate CP
deactivate CM

CC -> CLo : PUT /logger/computations/{id} (json)
activate CLo
CLo - ->> CC : 200
deactivate CLo


deactivate CC

@enduml

PlantUML version 1.2018.11(Sat Sep 22 18:43:53 CEST 2018)
(GPL source distribution)
Java Runtime: OpenJDK Runtime Environment
JVM: OpenJDK 64-Bit Server VM
Java Version: 1.8.0_152-release-1248-b8
Operating System: Windows 10
OS Version: 10.0
Default Encoding: Cp1250
Language: pl
Country: PL
--></g></svg>